G04 #@! TF.GenerationSoftware,KiCad,Pcbnew,(5.1.6)-1*
G04 #@! TF.CreationDate,2021-02-23T14:06:05-08:00*
G04 #@! TF.ProjectId,clap_detector,636c6170-5f64-4657-9465-63746f722e6b,rev?*
G04 #@! TF.SameCoordinates,Original*
G04 #@! TF.FileFunction,Soldermask,Top*
G04 #@! TF.FilePolarity,Negative*
%FSLAX46Y46*%
G04 Gerber Fmt 4.6, Leading zero omitted, Abs format (unit mm)*
G04 Created by KiCad (PCBNEW (5.1.6)-1) date 2021-02-23 14:06:05*
%MOMM*%
%LPD*%
G01*
G04 APERTURE LIST*
%ADD10C,5.800000*%
%ADD11R,2.800000X3.600000*%
%ADD12O,2.100000X1.300000*%
%ADD13C,0.900000*%
%ADD14C,6.500000*%
%ADD15C,1.540000*%
%ADD16C,0.100000*%
%ADD17R,1.400000X1.000000*%
%ADD18O,1.800000X1.800000*%
%ADD19R,1.800000X1.800000*%
%ADD20O,2.290000X1.840000*%
%ADD21R,2.000000X1.300000*%
%ADD22O,2.000000X1.300000*%
%ADD23R,2.000000X1.600000*%
%ADD24C,1.550000*%
%ADD25R,1.450000X0.500000*%
%ADD26C,2.500000*%
%ADD27R,2.500000X2.500000*%
G04 APERTURE END LIST*
D10*
G04 #@! TO.C,D3*
X198628000Y-117221000D03*
D11*
X197278000Y-110871000D03*
X199978000Y-123571000D03*
G04 #@! TD*
D10*
G04 #@! TO.C,D2*
X184531000Y-117348000D03*
D11*
X183181000Y-110998000D03*
X185881000Y-123698000D03*
G04 #@! TD*
D10*
G04 #@! TO.C,D1*
X170434000Y-117221000D03*
D11*
X169084000Y-110871000D03*
X171784000Y-123571000D03*
G04 #@! TD*
D12*
G04 #@! TO.C,MK1*
X200914000Y-137668000D03*
X200914000Y-135128000D03*
G04 #@! TD*
D13*
G04 #@! TO.C,H4*
X229027056Y-138002944D03*
X227330000Y-137300000D03*
X225632944Y-138002944D03*
X224930000Y-139700000D03*
X225632944Y-141397056D03*
X227330000Y-142100000D03*
X229027056Y-141397056D03*
X229730000Y-139700000D03*
D14*
X227330000Y-139700000D03*
G04 #@! TD*
D13*
G04 #@! TO.C,H3*
X161717056Y-138002944D03*
X160020000Y-137300000D03*
X158322944Y-138002944D03*
X157620000Y-139700000D03*
X158322944Y-141397056D03*
X160020000Y-142100000D03*
X161717056Y-141397056D03*
X162420000Y-139700000D03*
D14*
X160020000Y-139700000D03*
G04 #@! TD*
D13*
G04 #@! TO.C,H2*
X161717056Y-84662944D03*
X160020000Y-83960000D03*
X158322944Y-84662944D03*
X157620000Y-86360000D03*
X158322944Y-88057056D03*
X160020000Y-88760000D03*
X161717056Y-88057056D03*
X162420000Y-86360000D03*
D14*
X160020000Y-86360000D03*
G04 #@! TD*
D13*
G04 #@! TO.C,H1*
X229027056Y-84662944D03*
X227330000Y-83960000D03*
X225632944Y-84662944D03*
X224930000Y-86360000D03*
X225632944Y-88057056D03*
X227330000Y-88760000D03*
X229027056Y-88057056D03*
X229730000Y-86360000D03*
D14*
X227330000Y-86360000D03*
G04 #@! TD*
G04 #@! TO.C,R16*
G36*
G01*
X179010500Y-142975250D02*
X179010500Y-142012750D01*
G75*
G02*
X179279250Y-141744000I268750J0D01*
G01*
X179816750Y-141744000D01*
G75*
G02*
X180085500Y-142012750I0J-268750D01*
G01*
X180085500Y-142975250D01*
G75*
G02*
X179816750Y-143244000I-268750J0D01*
G01*
X179279250Y-143244000D01*
G75*
G02*
X179010500Y-142975250I0J268750D01*
G01*
G37*
G36*
G01*
X177135500Y-142975250D02*
X177135500Y-142012750D01*
G75*
G02*
X177404250Y-141744000I268750J0D01*
G01*
X177941750Y-141744000D01*
G75*
G02*
X178210500Y-142012750I0J-268750D01*
G01*
X178210500Y-142975250D01*
G75*
G02*
X177941750Y-143244000I-268750J0D01*
G01*
X177404250Y-143244000D01*
G75*
G02*
X177135500Y-142975250I0J268750D01*
G01*
G37*
G04 #@! TD*
G04 #@! TO.C,U2*
G36*
G01*
X172392000Y-136446000D02*
X172392000Y-136096000D01*
G75*
G02*
X172567000Y-135921000I175000J0D01*
G01*
X174267000Y-135921000D01*
G75*
G02*
X174442000Y-136096000I0J-175000D01*
G01*
X174442000Y-136446000D01*
G75*
G02*
X174267000Y-136621000I-175000J0D01*
G01*
X172567000Y-136621000D01*
G75*
G02*
X172392000Y-136446000I0J175000D01*
G01*
G37*
G36*
G01*
X172392000Y-137716000D02*
X172392000Y-137366000D01*
G75*
G02*
X172567000Y-137191000I175000J0D01*
G01*
X174267000Y-137191000D01*
G75*
G02*
X174442000Y-137366000I0J-175000D01*
G01*
X174442000Y-137716000D01*
G75*
G02*
X174267000Y-137891000I-175000J0D01*
G01*
X172567000Y-137891000D01*
G75*
G02*
X172392000Y-137716000I0J175000D01*
G01*
G37*
G36*
G01*
X172392000Y-138986000D02*
X172392000Y-138636000D01*
G75*
G02*
X172567000Y-138461000I175000J0D01*
G01*
X174267000Y-138461000D01*
G75*
G02*
X174442000Y-138636000I0J-175000D01*
G01*
X174442000Y-138986000D01*
G75*
G02*
X174267000Y-139161000I-175000J0D01*
G01*
X172567000Y-139161000D01*
G75*
G02*
X172392000Y-138986000I0J175000D01*
G01*
G37*
G36*
G01*
X172392000Y-140256000D02*
X172392000Y-139906000D01*
G75*
G02*
X172567000Y-139731000I175000J0D01*
G01*
X174267000Y-139731000D01*
G75*
G02*
X174442000Y-139906000I0J-175000D01*
G01*
X174442000Y-140256000D01*
G75*
G02*
X174267000Y-140431000I-175000J0D01*
G01*
X172567000Y-140431000D01*
G75*
G02*
X172392000Y-140256000I0J175000D01*
G01*
G37*
G36*
G01*
X167442000Y-140256000D02*
X167442000Y-139906000D01*
G75*
G02*
X167617000Y-139731000I175000J0D01*
G01*
X169317000Y-139731000D01*
G75*
G02*
X169492000Y-139906000I0J-175000D01*
G01*
X169492000Y-140256000D01*
G75*
G02*
X169317000Y-140431000I-175000J0D01*
G01*
X167617000Y-140431000D01*
G75*
G02*
X167442000Y-140256000I0J175000D01*
G01*
G37*
G36*
G01*
X167442000Y-138986000D02*
X167442000Y-138636000D01*
G75*
G02*
X167617000Y-138461000I175000J0D01*
G01*
X169317000Y-138461000D01*
G75*
G02*
X169492000Y-138636000I0J-175000D01*
G01*
X169492000Y-138986000D01*
G75*
G02*
X169317000Y-139161000I-175000J0D01*
G01*
X167617000Y-139161000D01*
G75*
G02*
X167442000Y-138986000I0J175000D01*
G01*
G37*
G36*
G01*
X167442000Y-137716000D02*
X167442000Y-137366000D01*
G75*
G02*
X167617000Y-137191000I175000J0D01*
G01*
X169317000Y-137191000D01*
G75*
G02*
X169492000Y-137366000I0J-175000D01*
G01*
X169492000Y-137716000D01*
G75*
G02*
X169317000Y-137891000I-175000J0D01*
G01*
X167617000Y-137891000D01*
G75*
G02*
X167442000Y-137716000I0J175000D01*
G01*
G37*
G36*
G01*
X167442000Y-136446000D02*
X167442000Y-136096000D01*
G75*
G02*
X167617000Y-135921000I175000J0D01*
G01*
X169317000Y-135921000D01*
G75*
G02*
X169492000Y-136096000I0J-175000D01*
G01*
X169492000Y-136446000D01*
G75*
G02*
X169317000Y-136621000I-175000J0D01*
G01*
X167617000Y-136621000D01*
G75*
G02*
X167442000Y-136446000I0J175000D01*
G01*
G37*
G04 #@! TD*
G04 #@! TO.C,U1*
G36*
G01*
X187759000Y-132763000D02*
X187759000Y-132413000D01*
G75*
G02*
X187934000Y-132238000I175000J0D01*
G01*
X189634000Y-132238000D01*
G75*
G02*
X189809000Y-132413000I0J-175000D01*
G01*
X189809000Y-132763000D01*
G75*
G02*
X189634000Y-132938000I-175000J0D01*
G01*
X187934000Y-132938000D01*
G75*
G02*
X187759000Y-132763000I0J175000D01*
G01*
G37*
G36*
G01*
X187759000Y-134033000D02*
X187759000Y-133683000D01*
G75*
G02*
X187934000Y-133508000I175000J0D01*
G01*
X189634000Y-133508000D01*
G75*
G02*
X189809000Y-133683000I0J-175000D01*
G01*
X189809000Y-134033000D01*
G75*
G02*
X189634000Y-134208000I-175000J0D01*
G01*
X187934000Y-134208000D01*
G75*
G02*
X187759000Y-134033000I0J175000D01*
G01*
G37*
G36*
G01*
X187759000Y-135303000D02*
X187759000Y-134953000D01*
G75*
G02*
X187934000Y-134778000I175000J0D01*
G01*
X189634000Y-134778000D01*
G75*
G02*
X189809000Y-134953000I0J-175000D01*
G01*
X189809000Y-135303000D01*
G75*
G02*
X189634000Y-135478000I-175000J0D01*
G01*
X187934000Y-135478000D01*
G75*
G02*
X187759000Y-135303000I0J175000D01*
G01*
G37*
G36*
G01*
X187759000Y-136573000D02*
X187759000Y-136223000D01*
G75*
G02*
X187934000Y-136048000I175000J0D01*
G01*
X189634000Y-136048000D01*
G75*
G02*
X189809000Y-136223000I0J-175000D01*
G01*
X189809000Y-136573000D01*
G75*
G02*
X189634000Y-136748000I-175000J0D01*
G01*
X187934000Y-136748000D01*
G75*
G02*
X187759000Y-136573000I0J175000D01*
G01*
G37*
G36*
G01*
X182809000Y-136573000D02*
X182809000Y-136223000D01*
G75*
G02*
X182984000Y-136048000I175000J0D01*
G01*
X184684000Y-136048000D01*
G75*
G02*
X184859000Y-136223000I0J-175000D01*
G01*
X184859000Y-136573000D01*
G75*
G02*
X184684000Y-136748000I-175000J0D01*
G01*
X182984000Y-136748000D01*
G75*
G02*
X182809000Y-136573000I0J175000D01*
G01*
G37*
G36*
G01*
X182809000Y-135303000D02*
X182809000Y-134953000D01*
G75*
G02*
X182984000Y-134778000I175000J0D01*
G01*
X184684000Y-134778000D01*
G75*
G02*
X184859000Y-134953000I0J-175000D01*
G01*
X184859000Y-135303000D01*
G75*
G02*
X184684000Y-135478000I-175000J0D01*
G01*
X182984000Y-135478000D01*
G75*
G02*
X182809000Y-135303000I0J175000D01*
G01*
G37*
G36*
G01*
X182809000Y-134033000D02*
X182809000Y-133683000D01*
G75*
G02*
X182984000Y-133508000I175000J0D01*
G01*
X184684000Y-133508000D01*
G75*
G02*
X184859000Y-133683000I0J-175000D01*
G01*
X184859000Y-134033000D01*
G75*
G02*
X184684000Y-134208000I-175000J0D01*
G01*
X182984000Y-134208000D01*
G75*
G02*
X182809000Y-134033000I0J175000D01*
G01*
G37*
G36*
G01*
X182809000Y-132763000D02*
X182809000Y-132413000D01*
G75*
G02*
X182984000Y-132238000I175000J0D01*
G01*
X184684000Y-132238000D01*
G75*
G02*
X184859000Y-132413000I0J-175000D01*
G01*
X184859000Y-132763000D01*
G75*
G02*
X184684000Y-132938000I-175000J0D01*
G01*
X182984000Y-132938000D01*
G75*
G02*
X182809000Y-132763000I0J175000D01*
G01*
G37*
G04 #@! TD*
D15*
G04 #@! TO.C,POT*
X158623000Y-123063000D03*
X158623000Y-120523000D03*
X158623000Y-117983000D03*
G04 #@! TD*
G04 #@! TO.C,R15*
G36*
G01*
X197903000Y-89515000D02*
X197903000Y-90825000D01*
G75*
G02*
X197633000Y-91095000I-270000J0D01*
G01*
X196823000Y-91095000D01*
G75*
G02*
X196553000Y-90825000I0J270000D01*
G01*
X196553000Y-89515000D01*
G75*
G02*
X196823000Y-89245000I270000J0D01*
G01*
X197633000Y-89245000D01*
G75*
G02*
X197903000Y-89515000I0J-270000D01*
G01*
G37*
G36*
G01*
X200703000Y-89515000D02*
X200703000Y-90825000D01*
G75*
G02*
X200433000Y-91095000I-270000J0D01*
G01*
X199623000Y-91095000D01*
G75*
G02*
X199353000Y-90825000I0J270000D01*
G01*
X199353000Y-89515000D01*
G75*
G02*
X199623000Y-89245000I270000J0D01*
G01*
X200433000Y-89245000D01*
G75*
G02*
X200703000Y-89515000I0J-270000D01*
G01*
G37*
G04 #@! TD*
G04 #@! TO.C,R14*
G36*
G01*
X197903000Y-93452000D02*
X197903000Y-94762000D01*
G75*
G02*
X197633000Y-95032000I-270000J0D01*
G01*
X196823000Y-95032000D01*
G75*
G02*
X196553000Y-94762000I0J270000D01*
G01*
X196553000Y-93452000D01*
G75*
G02*
X196823000Y-93182000I270000J0D01*
G01*
X197633000Y-93182000D01*
G75*
G02*
X197903000Y-93452000I0J-270000D01*
G01*
G37*
G36*
G01*
X200703000Y-93452000D02*
X200703000Y-94762000D01*
G75*
G02*
X200433000Y-95032000I-270000J0D01*
G01*
X199623000Y-95032000D01*
G75*
G02*
X199353000Y-94762000I0J270000D01*
G01*
X199353000Y-93452000D01*
G75*
G02*
X199623000Y-93182000I270000J0D01*
G01*
X200433000Y-93182000D01*
G75*
G02*
X200703000Y-93452000I0J-270000D01*
G01*
G37*
G04 #@! TD*
G04 #@! TO.C,R13*
G36*
G01*
X197903000Y-97262000D02*
X197903000Y-98572000D01*
G75*
G02*
X197633000Y-98842000I-270000J0D01*
G01*
X196823000Y-98842000D01*
G75*
G02*
X196553000Y-98572000I0J270000D01*
G01*
X196553000Y-97262000D01*
G75*
G02*
X196823000Y-96992000I270000J0D01*
G01*
X197633000Y-96992000D01*
G75*
G02*
X197903000Y-97262000I0J-270000D01*
G01*
G37*
G36*
G01*
X200703000Y-97262000D02*
X200703000Y-98572000D01*
G75*
G02*
X200433000Y-98842000I-270000J0D01*
G01*
X199623000Y-98842000D01*
G75*
G02*
X199353000Y-98572000I0J270000D01*
G01*
X199353000Y-97262000D01*
G75*
G02*
X199623000Y-96992000I270000J0D01*
G01*
X200433000Y-96992000D01*
G75*
G02*
X200703000Y-97262000I0J-270000D01*
G01*
G37*
G04 #@! TD*
G04 #@! TO.C,R12*
G36*
G01*
X183806000Y-89515000D02*
X183806000Y-90825000D01*
G75*
G02*
X183536000Y-91095000I-270000J0D01*
G01*
X182726000Y-91095000D01*
G75*
G02*
X182456000Y-90825000I0J270000D01*
G01*
X182456000Y-89515000D01*
G75*
G02*
X182726000Y-89245000I270000J0D01*
G01*
X183536000Y-89245000D01*
G75*
G02*
X183806000Y-89515000I0J-270000D01*
G01*
G37*
G36*
G01*
X186606000Y-89515000D02*
X186606000Y-90825000D01*
G75*
G02*
X186336000Y-91095000I-270000J0D01*
G01*
X185526000Y-91095000D01*
G75*
G02*
X185256000Y-90825000I0J270000D01*
G01*
X185256000Y-89515000D01*
G75*
G02*
X185526000Y-89245000I270000J0D01*
G01*
X186336000Y-89245000D01*
G75*
G02*
X186606000Y-89515000I0J-270000D01*
G01*
G37*
G04 #@! TD*
G04 #@! TO.C,R11*
G36*
G01*
X183806000Y-93452000D02*
X183806000Y-94762000D01*
G75*
G02*
X183536000Y-95032000I-270000J0D01*
G01*
X182726000Y-95032000D01*
G75*
G02*
X182456000Y-94762000I0J270000D01*
G01*
X182456000Y-93452000D01*
G75*
G02*
X182726000Y-93182000I270000J0D01*
G01*
X183536000Y-93182000D01*
G75*
G02*
X183806000Y-93452000I0J-270000D01*
G01*
G37*
G36*
G01*
X186606000Y-93452000D02*
X186606000Y-94762000D01*
G75*
G02*
X186336000Y-95032000I-270000J0D01*
G01*
X185526000Y-95032000D01*
G75*
G02*
X185256000Y-94762000I0J270000D01*
G01*
X185256000Y-93452000D01*
G75*
G02*
X185526000Y-93182000I270000J0D01*
G01*
X186336000Y-93182000D01*
G75*
G02*
X186606000Y-93452000I0J-270000D01*
G01*
G37*
G04 #@! TD*
G04 #@! TO.C,R10*
G36*
G01*
X183806000Y-97262000D02*
X183806000Y-98572000D01*
G75*
G02*
X183536000Y-98842000I-270000J0D01*
G01*
X182726000Y-98842000D01*
G75*
G02*
X182456000Y-98572000I0J270000D01*
G01*
X182456000Y-97262000D01*
G75*
G02*
X182726000Y-96992000I270000J0D01*
G01*
X183536000Y-96992000D01*
G75*
G02*
X183806000Y-97262000I0J-270000D01*
G01*
G37*
G36*
G01*
X186606000Y-97262000D02*
X186606000Y-98572000D01*
G75*
G02*
X186336000Y-98842000I-270000J0D01*
G01*
X185526000Y-98842000D01*
G75*
G02*
X185256000Y-98572000I0J270000D01*
G01*
X185256000Y-97262000D01*
G75*
G02*
X185526000Y-96992000I270000J0D01*
G01*
X186336000Y-96992000D01*
G75*
G02*
X186606000Y-97262000I0J-270000D01*
G01*
G37*
G04 #@! TD*
G04 #@! TO.C,R9*
G36*
G01*
X169709000Y-89515000D02*
X169709000Y-90825000D01*
G75*
G02*
X169439000Y-91095000I-270000J0D01*
G01*
X168629000Y-91095000D01*
G75*
G02*
X168359000Y-90825000I0J270000D01*
G01*
X168359000Y-89515000D01*
G75*
G02*
X168629000Y-89245000I270000J0D01*
G01*
X169439000Y-89245000D01*
G75*
G02*
X169709000Y-89515000I0J-270000D01*
G01*
G37*
G36*
G01*
X172509000Y-89515000D02*
X172509000Y-90825000D01*
G75*
G02*
X172239000Y-91095000I-270000J0D01*
G01*
X171429000Y-91095000D01*
G75*
G02*
X171159000Y-90825000I0J270000D01*
G01*
X171159000Y-89515000D01*
G75*
G02*
X171429000Y-89245000I270000J0D01*
G01*
X172239000Y-89245000D01*
G75*
G02*
X172509000Y-89515000I0J-270000D01*
G01*
G37*
G04 #@! TD*
G04 #@! TO.C,R8*
G36*
G01*
X169709000Y-93452000D02*
X169709000Y-94762000D01*
G75*
G02*
X169439000Y-95032000I-270000J0D01*
G01*
X168629000Y-95032000D01*
G75*
G02*
X168359000Y-94762000I0J270000D01*
G01*
X168359000Y-93452000D01*
G75*
G02*
X168629000Y-93182000I270000J0D01*
G01*
X169439000Y-93182000D01*
G75*
G02*
X169709000Y-93452000I0J-270000D01*
G01*
G37*
G36*
G01*
X172509000Y-93452000D02*
X172509000Y-94762000D01*
G75*
G02*
X172239000Y-95032000I-270000J0D01*
G01*
X171429000Y-95032000D01*
G75*
G02*
X171159000Y-94762000I0J270000D01*
G01*
X171159000Y-93452000D01*
G75*
G02*
X171429000Y-93182000I270000J0D01*
G01*
X172239000Y-93182000D01*
G75*
G02*
X172509000Y-93452000I0J-270000D01*
G01*
G37*
G04 #@! TD*
G04 #@! TO.C,R7*
G36*
G01*
X169709000Y-97262000D02*
X169709000Y-98572000D01*
G75*
G02*
X169439000Y-98842000I-270000J0D01*
G01*
X168629000Y-98842000D01*
G75*
G02*
X168359000Y-98572000I0J270000D01*
G01*
X168359000Y-97262000D01*
G75*
G02*
X168629000Y-96992000I270000J0D01*
G01*
X169439000Y-96992000D01*
G75*
G02*
X169709000Y-97262000I0J-270000D01*
G01*
G37*
G36*
G01*
X172509000Y-97262000D02*
X172509000Y-98572000D01*
G75*
G02*
X172239000Y-98842000I-270000J0D01*
G01*
X171429000Y-98842000D01*
G75*
G02*
X171159000Y-98572000I0J270000D01*
G01*
X171159000Y-97262000D01*
G75*
G02*
X171429000Y-96992000I270000J0D01*
G01*
X172239000Y-96992000D01*
G75*
G02*
X172509000Y-97262000I0J-270000D01*
G01*
G37*
G04 #@! TD*
G04 #@! TO.C,R6*
G36*
G01*
X192307500Y-132360750D02*
X192307500Y-133323250D01*
G75*
G02*
X192038750Y-133592000I-268750J0D01*
G01*
X191501250Y-133592000D01*
G75*
G02*
X191232500Y-133323250I0J268750D01*
G01*
X191232500Y-132360750D01*
G75*
G02*
X191501250Y-132092000I268750J0D01*
G01*
X192038750Y-132092000D01*
G75*
G02*
X192307500Y-132360750I0J-268750D01*
G01*
G37*
G36*
G01*
X194182500Y-132360750D02*
X194182500Y-133323250D01*
G75*
G02*
X193913750Y-133592000I-268750J0D01*
G01*
X193376250Y-133592000D01*
G75*
G02*
X193107500Y-133323250I0J268750D01*
G01*
X193107500Y-132360750D01*
G75*
G02*
X193376250Y-132092000I268750J0D01*
G01*
X193913750Y-132092000D01*
G75*
G02*
X194182500Y-132360750I0J-268750D01*
G01*
G37*
G04 #@! TD*
G04 #@! TO.C,R5*
G36*
G01*
X178210500Y-138668416D02*
X178210500Y-139630916D01*
G75*
G02*
X177941750Y-139899666I-268750J0D01*
G01*
X177404250Y-139899666D01*
G75*
G02*
X177135500Y-139630916I0J268750D01*
G01*
X177135500Y-138668416D01*
G75*
G02*
X177404250Y-138399666I268750J0D01*
G01*
X177941750Y-138399666D01*
G75*
G02*
X178210500Y-138668416I0J-268750D01*
G01*
G37*
G36*
G01*
X180085500Y-138668416D02*
X180085500Y-139630916D01*
G75*
G02*
X179816750Y-139899666I-268750J0D01*
G01*
X179279250Y-139899666D01*
G75*
G02*
X179010500Y-139630916I0J268750D01*
G01*
X179010500Y-138668416D01*
G75*
G02*
X179279250Y-138399666I268750J0D01*
G01*
X179816750Y-138399666D01*
G75*
G02*
X180085500Y-138668416I0J-268750D01*
G01*
G37*
G04 #@! TD*
G04 #@! TO.C,R4*
G36*
G01*
X178210500Y-135324083D02*
X178210500Y-136286583D01*
G75*
G02*
X177941750Y-136555333I-268750J0D01*
G01*
X177404250Y-136555333D01*
G75*
G02*
X177135500Y-136286583I0J268750D01*
G01*
X177135500Y-135324083D01*
G75*
G02*
X177404250Y-135055333I268750J0D01*
G01*
X177941750Y-135055333D01*
G75*
G02*
X178210500Y-135324083I0J-268750D01*
G01*
G37*
G36*
G01*
X180085500Y-135324083D02*
X180085500Y-136286583D01*
G75*
G02*
X179816750Y-136555333I-268750J0D01*
G01*
X179279250Y-136555333D01*
G75*
G02*
X179010500Y-136286583I0J268750D01*
G01*
X179010500Y-135324083D01*
G75*
G02*
X179279250Y-135055333I268750J0D01*
G01*
X179816750Y-135055333D01*
G75*
G02*
X180085500Y-135324083I0J-268750D01*
G01*
G37*
G04 #@! TD*
G04 #@! TO.C,R3*
G36*
G01*
X187941000Y-141377750D02*
X187941000Y-142340250D01*
G75*
G02*
X187672250Y-142609000I-268750J0D01*
G01*
X187134750Y-142609000D01*
G75*
G02*
X186866000Y-142340250I0J268750D01*
G01*
X186866000Y-141377750D01*
G75*
G02*
X187134750Y-141109000I268750J0D01*
G01*
X187672250Y-141109000D01*
G75*
G02*
X187941000Y-141377750I0J-268750D01*
G01*
G37*
G36*
G01*
X189816000Y-141377750D02*
X189816000Y-142340250D01*
G75*
G02*
X189547250Y-142609000I-268750J0D01*
G01*
X189009750Y-142609000D01*
G75*
G02*
X188741000Y-142340250I0J268750D01*
G01*
X188741000Y-141377750D01*
G75*
G02*
X189009750Y-141109000I268750J0D01*
G01*
X189547250Y-141109000D01*
G75*
G02*
X189816000Y-141377750I0J-268750D01*
G01*
G37*
G04 #@! TD*
G04 #@! TO.C,R2*
G36*
G01*
X188741000Y-139038250D02*
X188741000Y-138075750D01*
G75*
G02*
X189009750Y-137807000I268750J0D01*
G01*
X189547250Y-137807000D01*
G75*
G02*
X189816000Y-138075750I0J-268750D01*
G01*
X189816000Y-139038250D01*
G75*
G02*
X189547250Y-139307000I-268750J0D01*
G01*
X189009750Y-139307000D01*
G75*
G02*
X188741000Y-139038250I0J268750D01*
G01*
G37*
G36*
G01*
X186866000Y-139038250D02*
X186866000Y-138075750D01*
G75*
G02*
X187134750Y-137807000I268750J0D01*
G01*
X187672250Y-137807000D01*
G75*
G02*
X187941000Y-138075750I0J-268750D01*
G01*
X187941000Y-139038250D01*
G75*
G02*
X187672250Y-139307000I-268750J0D01*
G01*
X187134750Y-139307000D01*
G75*
G02*
X186866000Y-139038250I0J268750D01*
G01*
G37*
G04 #@! TD*
G04 #@! TO.C,R1*
G36*
G01*
X209150000Y-137948750D02*
X209150000Y-138911250D01*
G75*
G02*
X208881250Y-139180000I-268750J0D01*
G01*
X208343750Y-139180000D01*
G75*
G02*
X208075000Y-138911250I0J268750D01*
G01*
X208075000Y-137948750D01*
G75*
G02*
X208343750Y-137680000I268750J0D01*
G01*
X208881250Y-137680000D01*
G75*
G02*
X209150000Y-137948750I0J-268750D01*
G01*
G37*
G36*
G01*
X211025000Y-137948750D02*
X211025000Y-138911250D01*
G75*
G02*
X210756250Y-139180000I-268750J0D01*
G01*
X210218750Y-139180000D01*
G75*
G02*
X209950000Y-138911250I0J268750D01*
G01*
X209950000Y-137948750D01*
G75*
G02*
X210218750Y-137680000I268750J0D01*
G01*
X210756250Y-137680000D01*
G75*
G02*
X211025000Y-137948750I0J-268750D01*
G01*
G37*
G04 #@! TD*
D16*
G04 #@! TO.C,Q3*
G36*
X196318245Y-104039539D02*
G01*
X196308866Y-104036694D01*
X196300221Y-104032073D01*
X196292645Y-104025855D01*
X196286427Y-104018279D01*
X196281806Y-104009634D01*
X196278961Y-104000255D01*
X196278000Y-103990500D01*
X196278000Y-102257500D01*
X196278961Y-102247745D01*
X196281806Y-102238366D01*
X196286427Y-102229721D01*
X196292645Y-102222145D01*
X196300221Y-102215927D01*
X196308866Y-102211306D01*
X196318245Y-102208461D01*
X196328000Y-102207500D01*
X199453000Y-102207500D01*
X199462755Y-102208461D01*
X199472134Y-102211306D01*
X199480779Y-102215927D01*
X199488355Y-102222145D01*
X199494573Y-102229721D01*
X199499194Y-102238366D01*
X199502039Y-102247745D01*
X199503000Y-102257500D01*
X199503000Y-102624000D01*
X200928000Y-102624000D01*
X200937755Y-102624961D01*
X200947134Y-102627806D01*
X200955779Y-102632427D01*
X200963355Y-102638645D01*
X200969573Y-102646221D01*
X200974194Y-102654866D01*
X200977039Y-102664245D01*
X200978000Y-102674000D01*
X200978000Y-103574000D01*
X200977039Y-103583755D01*
X200974194Y-103593134D01*
X200969573Y-103601779D01*
X200963355Y-103609355D01*
X200955779Y-103615573D01*
X200947134Y-103620194D01*
X200937755Y-103623039D01*
X200928000Y-103624000D01*
X199503000Y-103624000D01*
X199503000Y-103990500D01*
X199502039Y-104000255D01*
X199499194Y-104009634D01*
X199494573Y-104018279D01*
X199488355Y-104025855D01*
X199480779Y-104032073D01*
X199472134Y-104036694D01*
X199462755Y-104039539D01*
X199453000Y-104040500D01*
X196328000Y-104040500D01*
X196318245Y-104039539D01*
G37*
D17*
X200278000Y-101624000D03*
X200278000Y-104624000D03*
G04 #@! TD*
D16*
G04 #@! TO.C,Q2*
G36*
X182221245Y-104039539D02*
G01*
X182211866Y-104036694D01*
X182203221Y-104032073D01*
X182195645Y-104025855D01*
X182189427Y-104018279D01*
X182184806Y-104009634D01*
X182181961Y-104000255D01*
X182181000Y-103990500D01*
X182181000Y-102257500D01*
X182181961Y-102247745D01*
X182184806Y-102238366D01*
X182189427Y-102229721D01*
X182195645Y-102222145D01*
X182203221Y-102215927D01*
X182211866Y-102211306D01*
X182221245Y-102208461D01*
X182231000Y-102207500D01*
X185356000Y-102207500D01*
X185365755Y-102208461D01*
X185375134Y-102211306D01*
X185383779Y-102215927D01*
X185391355Y-102222145D01*
X185397573Y-102229721D01*
X185402194Y-102238366D01*
X185405039Y-102247745D01*
X185406000Y-102257500D01*
X185406000Y-102624000D01*
X186831000Y-102624000D01*
X186840755Y-102624961D01*
X186850134Y-102627806D01*
X186858779Y-102632427D01*
X186866355Y-102638645D01*
X186872573Y-102646221D01*
X186877194Y-102654866D01*
X186880039Y-102664245D01*
X186881000Y-102674000D01*
X186881000Y-103574000D01*
X186880039Y-103583755D01*
X186877194Y-103593134D01*
X186872573Y-103601779D01*
X186866355Y-103609355D01*
X186858779Y-103615573D01*
X186850134Y-103620194D01*
X186840755Y-103623039D01*
X186831000Y-103624000D01*
X185406000Y-103624000D01*
X185406000Y-103990500D01*
X185405039Y-104000255D01*
X185402194Y-104009634D01*
X185397573Y-104018279D01*
X185391355Y-104025855D01*
X185383779Y-104032073D01*
X185375134Y-104036694D01*
X185365755Y-104039539D01*
X185356000Y-104040500D01*
X182231000Y-104040500D01*
X182221245Y-104039539D01*
G37*
D17*
X186181000Y-101624000D03*
X186181000Y-104624000D03*
G04 #@! TD*
G04 #@! TO.C,Q1*
X172084000Y-104624000D03*
X172084000Y-101624000D03*
D16*
G36*
X168124245Y-104039539D02*
G01*
X168114866Y-104036694D01*
X168106221Y-104032073D01*
X168098645Y-104025855D01*
X168092427Y-104018279D01*
X168087806Y-104009634D01*
X168084961Y-104000255D01*
X168084000Y-103990500D01*
X168084000Y-102257500D01*
X168084961Y-102247745D01*
X168087806Y-102238366D01*
X168092427Y-102229721D01*
X168098645Y-102222145D01*
X168106221Y-102215927D01*
X168114866Y-102211306D01*
X168124245Y-102208461D01*
X168134000Y-102207500D01*
X171259000Y-102207500D01*
X171268755Y-102208461D01*
X171278134Y-102211306D01*
X171286779Y-102215927D01*
X171294355Y-102222145D01*
X171300573Y-102229721D01*
X171305194Y-102238366D01*
X171308039Y-102247745D01*
X171309000Y-102257500D01*
X171309000Y-102624000D01*
X172734000Y-102624000D01*
X172743755Y-102624961D01*
X172753134Y-102627806D01*
X172761779Y-102632427D01*
X172769355Y-102638645D01*
X172775573Y-102646221D01*
X172780194Y-102654866D01*
X172783039Y-102664245D01*
X172784000Y-102674000D01*
X172784000Y-103574000D01*
X172783039Y-103583755D01*
X172780194Y-103593134D01*
X172775573Y-103601779D01*
X172769355Y-103609355D01*
X172761779Y-103615573D01*
X172753134Y-103620194D01*
X172743755Y-103623039D01*
X172734000Y-103624000D01*
X171309000Y-103624000D01*
X171309000Y-103990500D01*
X171308039Y-104000255D01*
X171305194Y-104009634D01*
X171300573Y-104018279D01*
X171294355Y-104025855D01*
X171286779Y-104032073D01*
X171278134Y-104036694D01*
X171268755Y-104039539D01*
X171259000Y-104040500D01*
X168134000Y-104040500D01*
X168124245Y-104039539D01*
G37*
G04 #@! TD*
G04 #@! TO.C,L2*
G36*
G01*
X213262500Y-137948750D02*
X213262500Y-138911250D01*
G75*
G02*
X212993750Y-139180000I-268750J0D01*
G01*
X212456250Y-139180000D01*
G75*
G02*
X212187500Y-138911250I0J268750D01*
G01*
X212187500Y-137948750D01*
G75*
G02*
X212456250Y-137680000I268750J0D01*
G01*
X212993750Y-137680000D01*
G75*
G02*
X213262500Y-137948750I0J-268750D01*
G01*
G37*
G36*
G01*
X215137500Y-137948750D02*
X215137500Y-138911250D01*
G75*
G02*
X214868750Y-139180000I-268750J0D01*
G01*
X214331250Y-139180000D01*
G75*
G02*
X214062500Y-138911250I0J268750D01*
G01*
X214062500Y-137948750D01*
G75*
G02*
X214331250Y-137680000I268750J0D01*
G01*
X214868750Y-137680000D01*
G75*
G02*
X215137500Y-137948750I0J-268750D01*
G01*
G37*
G04 #@! TD*
G04 #@! TO.C,L1*
G36*
G01*
X217483500Y-137948750D02*
X217483500Y-138911250D01*
G75*
G02*
X217214750Y-139180000I-268750J0D01*
G01*
X216677250Y-139180000D01*
G75*
G02*
X216408500Y-138911250I0J268750D01*
G01*
X216408500Y-137948750D01*
G75*
G02*
X216677250Y-137680000I268750J0D01*
G01*
X217214750Y-137680000D01*
G75*
G02*
X217483500Y-137948750I0J-268750D01*
G01*
G37*
G36*
G01*
X219358500Y-137948750D02*
X219358500Y-138911250D01*
G75*
G02*
X219089750Y-139180000I-268750J0D01*
G01*
X218552250Y-139180000D01*
G75*
G02*
X218283500Y-138911250I0J268750D01*
G01*
X218283500Y-137948750D01*
G75*
G02*
X218552250Y-137680000I268750J0D01*
G01*
X219089750Y-137680000D01*
G75*
G02*
X219358500Y-137948750I0J-268750D01*
G01*
G37*
G04 #@! TD*
D18*
G04 #@! TO.C,J5*
X157861000Y-129794000D03*
D19*
X157861000Y-132334000D03*
G04 #@! TD*
D20*
G04 #@! TO.C,J4*
X228600000Y-118110000D03*
X228600000Y-115570000D03*
G36*
G01*
X227719367Y-112110000D02*
X229480633Y-112110000D01*
G75*
G02*
X229745000Y-112374367I0J-264367D01*
G01*
X229745000Y-113685633D01*
G75*
G02*
X229480633Y-113950000I-264367J0D01*
G01*
X227719367Y-113950000D01*
G75*
G02*
X227455000Y-113685633I0J264367D01*
G01*
X227455000Y-112374367D01*
G75*
G02*
X227719367Y-112110000I264367J0D01*
G01*
G37*
G04 #@! TD*
D18*
G04 #@! TO.C,J3*
X157988000Y-106172000D03*
D19*
X157988000Y-108712000D03*
G04 #@! TD*
D18*
G04 #@! TO.C,J2*
X229870000Y-92710000D03*
D19*
X229870000Y-95250000D03*
G04 #@! TD*
D21*
G04 #@! TO.C,J1*
X231107500Y-107040000D03*
X231107500Y-101240000D03*
D22*
X231107500Y-100640000D03*
X231107500Y-107640000D03*
D23*
X231107500Y-105140000D03*
D24*
X228407500Y-101640000D03*
D25*
X228407500Y-104140000D03*
X228407500Y-103490000D03*
X228407500Y-102840000D03*
X228407500Y-105440000D03*
X228407500Y-104790000D03*
D24*
X228407500Y-106640000D03*
D23*
X231107500Y-103140000D03*
G04 #@! TD*
G04 #@! TO.C,C9*
G36*
G01*
X192386000Y-135916750D02*
X192386000Y-136879250D01*
G75*
G02*
X192117250Y-137148000I-268750J0D01*
G01*
X191579750Y-137148000D01*
G75*
G02*
X191311000Y-136879250I0J268750D01*
G01*
X191311000Y-135916750D01*
G75*
G02*
X191579750Y-135648000I268750J0D01*
G01*
X192117250Y-135648000D01*
G75*
G02*
X192386000Y-135916750I0J-268750D01*
G01*
G37*
G36*
G01*
X194261000Y-135916750D02*
X194261000Y-136879250D01*
G75*
G02*
X193992250Y-137148000I-268750J0D01*
G01*
X193454750Y-137148000D01*
G75*
G02*
X193186000Y-136879250I0J268750D01*
G01*
X193186000Y-135916750D01*
G75*
G02*
X193454750Y-135648000I268750J0D01*
G01*
X193992250Y-135648000D01*
G75*
G02*
X194261000Y-135916750I0J-268750D01*
G01*
G37*
G04 #@! TD*
G04 #@! TO.C,C8*
G36*
G01*
X170463500Y-132360750D02*
X170463500Y-133323250D01*
G75*
G02*
X170194750Y-133592000I-268750J0D01*
G01*
X169657250Y-133592000D01*
G75*
G02*
X169388500Y-133323250I0J268750D01*
G01*
X169388500Y-132360750D01*
G75*
G02*
X169657250Y-132092000I268750J0D01*
G01*
X170194750Y-132092000D01*
G75*
G02*
X170463500Y-132360750I0J-268750D01*
G01*
G37*
G36*
G01*
X172338500Y-132360750D02*
X172338500Y-133323250D01*
G75*
G02*
X172069750Y-133592000I-268750J0D01*
G01*
X171532250Y-133592000D01*
G75*
G02*
X171263500Y-133323250I0J268750D01*
G01*
X171263500Y-132360750D01*
G75*
G02*
X171532250Y-132092000I268750J0D01*
G01*
X172069750Y-132092000D01*
G75*
G02*
X172338500Y-132360750I0J-268750D01*
G01*
G37*
G04 #@! TD*
G04 #@! TO.C,C7*
G36*
G01*
X183414750Y-140021500D02*
X184377250Y-140021500D01*
G75*
G02*
X184646000Y-140290250I0J-268750D01*
G01*
X184646000Y-140827750D01*
G75*
G02*
X184377250Y-141096500I-268750J0D01*
G01*
X183414750Y-141096500D01*
G75*
G02*
X183146000Y-140827750I0J268750D01*
G01*
X183146000Y-140290250D01*
G75*
G02*
X183414750Y-140021500I268750J0D01*
G01*
G37*
G36*
G01*
X183414750Y-138146500D02*
X184377250Y-138146500D01*
G75*
G02*
X184646000Y-138415250I0J-268750D01*
G01*
X184646000Y-138952750D01*
G75*
G02*
X184377250Y-139221500I-268750J0D01*
G01*
X183414750Y-139221500D01*
G75*
G02*
X183146000Y-138952750I0J268750D01*
G01*
X183146000Y-138415250D01*
G75*
G02*
X183414750Y-138146500I268750J0D01*
G01*
G37*
G04 #@! TD*
G04 #@! TO.C,C6*
G36*
G01*
X179010500Y-132942250D02*
X179010500Y-131979750D01*
G75*
G02*
X179279250Y-131711000I268750J0D01*
G01*
X179816750Y-131711000D01*
G75*
G02*
X180085500Y-131979750I0J-268750D01*
G01*
X180085500Y-132942250D01*
G75*
G02*
X179816750Y-133211000I-268750J0D01*
G01*
X179279250Y-133211000D01*
G75*
G02*
X179010500Y-132942250I0J268750D01*
G01*
G37*
G36*
G01*
X177135500Y-132942250D02*
X177135500Y-131979750D01*
G75*
G02*
X177404250Y-131711000I268750J0D01*
G01*
X177941750Y-131711000D01*
G75*
G02*
X178210500Y-131979750I0J-268750D01*
G01*
X178210500Y-132942250D01*
G75*
G02*
X177941750Y-133211000I-268750J0D01*
G01*
X177404250Y-133211000D01*
G75*
G02*
X177135500Y-132942250I0J268750D01*
G01*
G37*
G04 #@! TD*
G04 #@! TO.C,C5*
G36*
G01*
X212705000Y-134580000D02*
X214015000Y-134580000D01*
G75*
G02*
X214285000Y-134850000I0J-270000D01*
G01*
X214285000Y-135660000D01*
G75*
G02*
X214015000Y-135930000I-270000J0D01*
G01*
X212705000Y-135930000D01*
G75*
G02*
X212435000Y-135660000I0J270000D01*
G01*
X212435000Y-134850000D01*
G75*
G02*
X212705000Y-134580000I270000J0D01*
G01*
G37*
G36*
G01*
X212705000Y-131780000D02*
X214015000Y-131780000D01*
G75*
G02*
X214285000Y-132050000I0J-270000D01*
G01*
X214285000Y-132860000D01*
G75*
G02*
X214015000Y-133130000I-270000J0D01*
G01*
X212705000Y-133130000D01*
G75*
G02*
X212435000Y-132860000I0J270000D01*
G01*
X212435000Y-132050000D01*
G75*
G02*
X212705000Y-131780000I270000J0D01*
G01*
G37*
G04 #@! TD*
G04 #@! TO.C,C4*
G36*
G01*
X208895000Y-134580000D02*
X210205000Y-134580000D01*
G75*
G02*
X210475000Y-134850000I0J-270000D01*
G01*
X210475000Y-135660000D01*
G75*
G02*
X210205000Y-135930000I-270000J0D01*
G01*
X208895000Y-135930000D01*
G75*
G02*
X208625000Y-135660000I0J270000D01*
G01*
X208625000Y-134850000D01*
G75*
G02*
X208895000Y-134580000I270000J0D01*
G01*
G37*
G36*
G01*
X208895000Y-131780000D02*
X210205000Y-131780000D01*
G75*
G02*
X210475000Y-132050000I0J-270000D01*
G01*
X210475000Y-132860000D01*
G75*
G02*
X210205000Y-133130000I-270000J0D01*
G01*
X208895000Y-133130000D01*
G75*
G02*
X208625000Y-132860000I0J270000D01*
G01*
X208625000Y-132050000D01*
G75*
G02*
X208895000Y-131780000I270000J0D01*
G01*
G37*
G04 #@! TD*
G04 #@! TO.C,C3*
G36*
G01*
X216688750Y-134385000D02*
X217651250Y-134385000D01*
G75*
G02*
X217920000Y-134653750I0J-268750D01*
G01*
X217920000Y-135191250D01*
G75*
G02*
X217651250Y-135460000I-268750J0D01*
G01*
X216688750Y-135460000D01*
G75*
G02*
X216420000Y-135191250I0J268750D01*
G01*
X216420000Y-134653750D01*
G75*
G02*
X216688750Y-134385000I268750J0D01*
G01*
G37*
G36*
G01*
X216688750Y-132510000D02*
X217651250Y-132510000D01*
G75*
G02*
X217920000Y-132778750I0J-268750D01*
G01*
X217920000Y-133316250D01*
G75*
G02*
X217651250Y-133585000I-268750J0D01*
G01*
X216688750Y-133585000D01*
G75*
G02*
X216420000Y-133316250I0J268750D01*
G01*
X216420000Y-132778750D01*
G75*
G02*
X216688750Y-132510000I268750J0D01*
G01*
G37*
G04 #@! TD*
D26*
G04 #@! TO.C,C2*
X214710000Y-111760000D03*
D27*
X219710000Y-111760000D03*
G04 #@! TD*
G04 #@! TO.C,C1*
G36*
G01*
X193186000Y-140181250D02*
X193186000Y-139218750D01*
G75*
G02*
X193454750Y-138950000I268750J0D01*
G01*
X193992250Y-138950000D01*
G75*
G02*
X194261000Y-139218750I0J-268750D01*
G01*
X194261000Y-140181250D01*
G75*
G02*
X193992250Y-140450000I-268750J0D01*
G01*
X193454750Y-140450000D01*
G75*
G02*
X193186000Y-140181250I0J268750D01*
G01*
G37*
G36*
G01*
X191311000Y-140181250D02*
X191311000Y-139218750D01*
G75*
G02*
X191579750Y-138950000I268750J0D01*
G01*
X192117250Y-138950000D01*
G75*
G02*
X192386000Y-139218750I0J-268750D01*
G01*
X192386000Y-140181250D01*
G75*
G02*
X192117250Y-140450000I-268750J0D01*
G01*
X191579750Y-140450000D01*
G75*
G02*
X191311000Y-140181250I0J268750D01*
G01*
G37*
G04 #@! TD*
M02*
