M48
; DRILL file {KiCad (5.1.6)-1} date 02/23/21 14:07:31
; FORMAT={-:-/ absolute / inch / decimal}
; #@! TF.CreationDate,2021-02-23T14:07:31-08:00
; #@! TF.GenerationSoftware,Kicad,Pcbnew,(5.1.6)-1
FMAT,2
INCH
T1C0.0157
T2C0.0197
T3C0.0236
T4C0.0315
T5C0.0335
T6C0.0394
T7C0.0469
T8C0.0472
T9C0.1260
%
G90
G05
T1
X6.35Y-3.6
X6.35Y-3.6472
X6.35Y-3.6945
X6.35Y-3.7417
X6.35Y-3.789
X6.35Y-3.8362
X6.35Y-3.8835
X6.35Y-3.9307
X6.35Y-3.978
X6.35Y-4.0252
X6.3972Y-3.6
X6.3972Y-3.6472
X6.3972Y-3.6945
X6.3972Y-3.7417
X6.3972Y-3.789
X6.3972Y-3.8362
X6.3972Y-3.8835
X6.3972Y-3.9307
X6.3972Y-3.978
X6.3972Y-4.0252
X6.4445Y-3.6
X6.4445Y-3.6472
X6.4445Y-3.6945
X6.4445Y-3.7417
X6.4445Y-3.789
X6.4445Y-3.8362
X6.4445Y-3.8835
X6.4445Y-3.9307
X6.4445Y-3.978
X6.4445Y-4.0252
X6.4917Y-3.6
X6.4917Y-3.6472
X6.4917Y-3.6945
X6.4917Y-3.7417
X6.4917Y-3.789
X6.4917Y-3.8362
X6.4917Y-3.8835
X6.4917Y-3.9307
X6.4917Y-3.978
X6.4917Y-4.0252
X6.539Y-3.6
X6.539Y-3.6472
X6.539Y-3.6945
X6.539Y-3.7417
X6.539Y-3.789
X6.539Y-3.8362
X6.539Y-3.8835
X6.539Y-3.9307
X6.539Y-3.978
X6.539Y-4.0252
X6.5623Y-5.3927
X6.63Y-4.59
X6.63Y-4.63
X6.63Y-4.67
X6.64Y-4.06
X6.67Y-4.54
X6.67Y-4.58
X6.67Y-4.62
X6.67Y-4.66
X6.67Y-4.7
X6.6872Y-4.06
X6.71Y-4.52
X6.71Y-4.56
X6.71Y-4.6
X6.71Y-4.64
X6.71Y-4.68
X6.71Y-4.72
X6.7345Y-4.06
X6.75Y-4.54
X6.75Y-4.58
X6.75Y-4.62
X6.75Y-4.66
X6.75Y-4.7
X6.755Y-5.455
X6.76Y-5.41
X6.765Y-5.52
X6.79Y-4.59
X6.79Y-4.63
X6.79Y-4.67
X6.897Y-4.128
X6.9Y-3.5
X6.9Y-3.5472
X6.9Y-3.5945
X6.9Y-3.6417
X6.9Y-3.689
X6.9Y-3.7362
X6.9Y-3.7835
X6.9Y-3.8307
X6.9Y-3.878
X6.9Y-3.9252
X6.9472Y-3.5
X6.9472Y-3.5472
X6.9472Y-3.5945
X6.9472Y-3.6417
X6.9472Y-3.689
X6.9472Y-3.7362
X6.9472Y-3.7835
X6.9472Y-3.8307
X6.9472Y-3.878
X6.9472Y-3.9252
X6.975Y-4.125
X6.9945Y-3.5
X6.9945Y-3.5472
X6.9945Y-3.5945
X6.9945Y-3.6417
X6.9945Y-3.689
X6.9945Y-3.7362
X6.9945Y-3.7835
X6.9945Y-3.8307
X6.9945Y-3.878
X6.9945Y-3.9252
X7.0417Y-3.5
X7.0417Y-3.5472
X7.0417Y-3.5945
X7.0417Y-3.6417
X7.0417Y-3.689
X7.0417Y-3.7362
X7.0417Y-3.7835
X7.0417Y-3.8307
X7.0417Y-3.878
X7.0417Y-3.9252
X7.05Y-4.8306
X7.08Y-5.4
X7.089Y-3.5
X7.089Y-3.5472
X7.089Y-3.5945
X7.089Y-3.6417
X7.089Y-3.689
X7.089Y-3.7362
X7.089Y-3.7835
X7.089Y-3.8307
X7.089Y-3.878
X7.089Y-3.9252
X7.09Y-5.275
X7.11Y-5.61
X7.175Y-4.125
X7.175Y-5.29
X7.185Y-4.595
X7.185Y-4.635
X7.185Y-4.675
X7.2Y-4.06
X7.225Y-4.545
X7.225Y-4.585
X7.225Y-4.625
X7.225Y-4.665
X7.225Y-4.705
X7.2472Y-4.06
X7.265Y-4.525
X7.265Y-4.565
X7.265Y-4.605
X7.265Y-4.645
X7.265Y-4.685
X7.265Y-4.725
X7.2844Y-4.1344
X7.2945Y-4.06
X7.305Y-4.545
X7.305Y-4.585
X7.305Y-4.625
X7.305Y-4.665
X7.305Y-4.705
X7.34Y-5.405
X7.345Y-4.595
X7.345Y-4.635
X7.345Y-4.675
X7.375Y-5.325
X7.45Y-3.5
X7.45Y-3.5472
X7.45Y-3.5945
X7.45Y-3.6417
X7.45Y-3.689
X7.45Y-3.7362
X7.45Y-3.7835
X7.45Y-3.8307
X7.45Y-3.878
X7.45Y-3.9252
X7.475Y-5.4
X7.485Y-5.235
X7.4972Y-3.5
X7.4972Y-3.5472
X7.4972Y-3.5945
X7.4972Y-3.6417
X7.4972Y-3.689
X7.4972Y-3.7362
X7.4972Y-3.7835
X7.4972Y-3.8307
X7.4972Y-3.878
X7.4972Y-3.9252
X7.5445Y-3.5
X7.5445Y-3.5472
X7.5445Y-3.5945
X7.5445Y-3.6417
X7.5445Y-3.689
X7.5445Y-3.7362
X7.5445Y-3.7835
X7.5445Y-3.8307
X7.5445Y-3.878
X7.5445Y-3.9252
X7.5917Y-3.5
X7.5917Y-3.5472
X7.5917Y-3.5945
X7.5917Y-3.6417
X7.5917Y-3.689
X7.5917Y-3.7362
X7.5917Y-3.7835
X7.5917Y-3.8307
X7.5917Y-3.878
X7.5917Y-3.9252
X7.639Y-3.5
X7.639Y-3.5472
X7.639Y-3.5945
X7.639Y-3.6417
X7.639Y-3.689
X7.639Y-3.7362
X7.639Y-3.7835
X7.639Y-3.8307
X7.639Y-3.878
X7.639Y-3.9252
X7.65Y-4.8306
X7.655Y-4.9094
X7.655Y-5.15
X7.66Y-5.2085
X7.74Y-4.59
X7.74Y-4.63
X7.74Y-4.67
X7.7438Y-4.1188
X7.75Y-4.06
X7.78Y-4.54
X7.78Y-4.58
X7.78Y-4.62
X7.78Y-4.66
X7.78Y-4.7
X7.7972Y-4.06
X7.82Y-4.52
X7.82Y-4.56
X7.82Y-4.6
X7.82Y-4.64
X7.82Y-4.68
X7.82Y-4.72
X7.8369Y-4.1369
X7.8445Y-4.06
X7.86Y-4.54
X7.86Y-4.58
X7.86Y-4.62
X7.86Y-4.66
X7.86Y-4.7
X7.9Y-4.59
X7.9Y-4.63
X7.9Y-4.67
X8.0Y-3.45
X8.0Y-3.4972
X8.0Y-3.5445
X8.0Y-3.5917
X8.0Y-3.639
X8.0Y-3.6862
X8.0Y-3.7335
X8.0Y-3.7807
X8.0Y-3.828
X8.0Y-3.8752
X8.0472Y-3.45
X8.0472Y-3.4972
X8.0472Y-3.5445
X8.0472Y-3.5917
X8.0472Y-3.639
X8.0472Y-3.6862
X8.0472Y-3.7335
X8.0472Y-3.7807
X8.0472Y-3.828
X8.0472Y-3.8752
X8.0945Y-3.45
X8.0945Y-3.4972
X8.0945Y-3.5445
X8.0945Y-3.5917
X8.0945Y-3.639
X8.0945Y-3.6862
X8.0945Y-3.7335
X8.0945Y-3.7807
X8.0945Y-3.828
X8.0945Y-3.8752
X8.1417Y-3.45
X8.1417Y-3.4972
X8.1417Y-3.5445
X8.1417Y-3.5917
X8.1417Y-3.639
X8.1417Y-3.6862
X8.1417Y-3.7335
X8.1417Y-3.7807
X8.1417Y-3.828
X8.1417Y-3.8752
X8.189Y-3.45
X8.189Y-3.4972
X8.189Y-3.5445
X8.189Y-3.5917
X8.189Y-3.639
X8.189Y-3.6862
X8.189Y-3.7335
X8.189Y-3.7807
X8.189Y-3.828
X8.189Y-3.8752
X8.2362Y-3.45
X8.2362Y-3.4972
X8.2362Y-3.5445
X8.2362Y-3.5917
X8.2362Y-3.639
X8.2362Y-3.6862
X8.2362Y-3.7335
X8.2362Y-3.7807
X8.2362Y-3.828
X8.2362Y-3.8752
X8.27Y-4.9972
X8.27Y-5.0445
X8.27Y-5.0917
X8.27Y-5.139
X8.2835Y-3.45
X8.2835Y-3.4972
X8.2835Y-3.5445
X8.2835Y-3.5917
X8.2835Y-3.639
X8.2835Y-3.6862
X8.2835Y-3.7335
X8.2835Y-3.7807
X8.2835Y-3.828
X8.2835Y-3.8752
X8.3172Y-4.95
X8.3172Y-4.9972
X8.3172Y-5.0445
X8.3172Y-5.0917
X8.3172Y-5.139
X8.3645Y-4.95
X8.3645Y-4.9972
X8.3645Y-5.0445
X8.3645Y-5.0917
X8.3645Y-5.139
X8.4117Y-4.95
X8.4117Y-4.9972
X8.4117Y-5.0445
X8.4117Y-5.0917
X8.4117Y-5.139
X8.459Y-4.95
X8.459Y-4.9972
X8.459Y-5.0445
X8.459Y-5.0917
X8.459Y-5.139
X8.5062Y-4.95
X8.5062Y-4.9972
X8.5062Y-5.0445
X8.5062Y-5.0917
X8.5062Y-5.139
X8.5535Y-4.95
X8.5535Y-4.9972
X8.5535Y-5.0445
X8.5535Y-5.0917
X8.5535Y-5.139
X8.8Y-4.8
X8.8Y-4.8472
X8.8Y-4.8945
X8.8Y-4.9417
X8.8Y-4.989
X8.8Y-5.0362
X8.8Y-5.0835
X8.8Y-5.1307
X8.8Y-5.178
X8.8Y-5.2252
X8.8472Y-4.8
X8.8472Y-4.8472
X8.8472Y-4.8945
X8.8472Y-4.9417
X8.8472Y-4.989
X8.8472Y-5.0362
X8.8472Y-5.0835
X8.8472Y-5.1307
X8.8472Y-5.178
X8.8472Y-5.2252
X8.8945Y-4.8
X8.8945Y-4.8472
X8.8945Y-4.8945
X8.8945Y-4.9417
X8.8945Y-4.989
X8.8945Y-5.0362
X8.8945Y-5.0835
X8.8945Y-5.1307
X8.8945Y-5.178
X8.8945Y-5.2252
X8.9417Y-4.8
X8.9417Y-4.8472
X8.9417Y-4.8945
X8.9417Y-4.9417
X8.9417Y-4.989
X8.9417Y-5.0362
X8.9417Y-5.0835
X8.9417Y-5.1307
X8.9417Y-5.178
X8.9417Y-5.2252
X8.989Y-4.8
X8.989Y-4.8472
X8.989Y-4.8945
X8.989Y-4.9417
X8.989Y-4.989
X8.989Y-5.0362
X8.989Y-5.0835
X8.989Y-5.1307
X8.989Y-5.178
X8.989Y-5.2252
X9.0362Y-4.8
X9.0362Y-4.8472
X9.0362Y-4.8945
X9.0362Y-4.9417
X9.0362Y-4.989
X9.0362Y-5.0362
X9.0362Y-5.0835
X9.0362Y-5.1307
X9.0362Y-5.178
X9.0362Y-5.2252
X9.0835Y-4.8
X9.0835Y-4.8472
X9.0835Y-4.8945
X9.0835Y-4.9417
X9.0835Y-4.989
X9.0835Y-5.0362
X9.0835Y-5.0835
X9.0835Y-5.1307
X9.0835Y-5.178
X9.0835Y-5.2252
T2
X6.2055Y-5.5
X6.2332Y-5.4332
X6.2332Y-5.5668
X6.3Y-5.4055
X6.3Y-5.5945
X6.3668Y-5.4332
X6.3668Y-5.5668
X6.3945Y-5.5
X6.2055Y-3.4
X6.2332Y-3.3332
X6.2332Y-3.4668
X6.3Y-3.3055
X6.3Y-3.4945
X6.3668Y-3.3332
X6.3668Y-3.4668
X6.3945Y-3.4
X8.8555Y-5.5
X8.8832Y-5.4332
X8.8832Y-5.5668
X8.95Y-5.4055
X8.95Y-5.5945
X9.0168Y-5.4332
X9.0168Y-5.5668
X9.0445Y-5.5
X8.8555Y-3.4
X8.8832Y-3.3332
X8.8832Y-3.4668
X8.95Y-3.3055
X8.95Y-3.4945
X9.0168Y-3.3332
X9.0168Y-3.4668
X9.0445Y-3.4
T4
X6.245Y-4.645
X6.245Y-4.745
X6.245Y-4.845
X7.91Y-5.32
X7.91Y-5.42
T5
X8.9924Y-4.0016
X8.9924Y-4.1984
T6
X6.22Y-4.18
X6.22Y-4.28
X6.215Y-5.11
X6.215Y-5.21
X9.05Y-3.65
X9.05Y-3.75
T7
X9.0Y-4.45
X9.0Y-4.55
X9.0Y-4.65
T8
X8.4531Y-4.4
X8.65Y-4.4
T9
X8.95Y-3.4
X6.3Y-5.5
X6.3Y-3.4
X8.95Y-5.5
T3
G00X9.0849Y-3.9622
M15
G01X9.1125Y-3.9622
M16
G05
G00X9.1125Y-4.2378
M15
G01X9.0849Y-4.2378
M16
G05
T0
M30
