G04 #@! TF.GenerationSoftware,KiCad,Pcbnew,(5.1.6)-1*
G04 #@! TF.CreationDate,2021-02-23T14:06:05-08:00*
G04 #@! TF.ProjectId,clap_detector,636c6170-5f64-4657-9465-63746f722e6b,rev?*
G04 #@! TF.SameCoordinates,Original*
G04 #@! TF.FileFunction,Legend,Bot*
G04 #@! TF.FilePolarity,Positive*
%FSLAX46Y46*%
G04 Gerber Fmt 4.6, Leading zero omitted, Abs format (unit mm)*
G04 Created by KiCad (PCBNEW (5.1.6)-1) date 2021-02-23 14:06:05*
%MOMM*%
%LPD*%
G01*
G04 APERTURE LIST*
%ADD10C,0.150000*%
%ADD11C,0.010000*%
G04 APERTURE END LIST*
D10*
X225290000Y-119760476D02*
X225337619Y-119855714D01*
X225337619Y-119998571D01*
X225290000Y-120141428D01*
X225194761Y-120236666D01*
X225099523Y-120284285D01*
X224909047Y-120331904D01*
X224766190Y-120331904D01*
X224575714Y-120284285D01*
X224480476Y-120236666D01*
X224385238Y-120141428D01*
X224337619Y-119998571D01*
X224337619Y-119903333D01*
X224385238Y-119760476D01*
X224432857Y-119712857D01*
X224766190Y-119712857D01*
X224766190Y-119903333D01*
X224337619Y-119284285D02*
X225337619Y-119284285D01*
X224337619Y-118712857D01*
X225337619Y-118712857D01*
X224337619Y-118236666D02*
X225337619Y-118236666D01*
X225337619Y-117998571D01*
X225290000Y-117855714D01*
X225194761Y-117760476D01*
X225099523Y-117712857D01*
X224909047Y-117665238D01*
X224766190Y-117665238D01*
X224575714Y-117712857D01*
X224480476Y-117760476D01*
X224385238Y-117855714D01*
X224337619Y-117998571D01*
X224337619Y-118236666D01*
X225337619Y-116474761D02*
X224528095Y-116474761D01*
X224432857Y-116427142D01*
X224385238Y-116379523D01*
X224337619Y-116284285D01*
X224337619Y-116093809D01*
X224385238Y-115998571D01*
X224432857Y-115950952D01*
X224528095Y-115903333D01*
X225337619Y-115903333D01*
X224337619Y-115427142D02*
X225337619Y-115427142D01*
X225337619Y-115046190D01*
X225290000Y-114950952D01*
X225242380Y-114903333D01*
X225147142Y-114855714D01*
X225004285Y-114855714D01*
X224909047Y-114903333D01*
X224861428Y-114950952D01*
X224813809Y-115046190D01*
X224813809Y-115427142D01*
X224337619Y-114427142D02*
X225337619Y-114427142D01*
X225337619Y-114189047D01*
X225290000Y-114046190D01*
X225194761Y-113950952D01*
X225099523Y-113903333D01*
X224909047Y-113855714D01*
X224766190Y-113855714D01*
X224575714Y-113903333D01*
X224480476Y-113950952D01*
X224385238Y-114046190D01*
X224337619Y-114189047D01*
X224337619Y-114427142D01*
X224337619Y-113427142D02*
X225337619Y-113427142D01*
X225337619Y-111712857D02*
X225337619Y-112189047D01*
X224861428Y-112236666D01*
X224909047Y-112189047D01*
X224956666Y-112093809D01*
X224956666Y-111855714D01*
X224909047Y-111760476D01*
X224861428Y-111712857D01*
X224766190Y-111665238D01*
X224528095Y-111665238D01*
X224432857Y-111712857D01*
X224385238Y-111760476D01*
X224337619Y-111855714D01*
X224337619Y-112093809D01*
X224385238Y-112189047D01*
X224432857Y-112236666D01*
X225337619Y-111379523D02*
X224337619Y-111046190D01*
X225337619Y-110712857D01*
X160202619Y-133762380D02*
X161202619Y-133762380D01*
X161202619Y-133381428D01*
X161155000Y-133286190D01*
X161107380Y-133238571D01*
X161012142Y-133190952D01*
X160869285Y-133190952D01*
X160774047Y-133238571D01*
X160726428Y-133286190D01*
X160678809Y-133381428D01*
X160678809Y-133762380D01*
X160488333Y-132810000D02*
X160488333Y-132333809D01*
X160202619Y-132905238D02*
X161202619Y-132571904D01*
X160202619Y-132238571D01*
X161107380Y-131952857D02*
X161155000Y-131905238D01*
X161202619Y-131810000D01*
X161202619Y-131571904D01*
X161155000Y-131476666D01*
X161107380Y-131429047D01*
X161012142Y-131381428D01*
X160916904Y-131381428D01*
X160774047Y-131429047D01*
X160202619Y-132000476D01*
X160202619Y-131381428D01*
X160202619Y-130190952D02*
X161202619Y-130190952D01*
X161202619Y-129810000D01*
X161155000Y-129714761D01*
X161107380Y-129667142D01*
X161012142Y-129619523D01*
X160869285Y-129619523D01*
X160774047Y-129667142D01*
X160726428Y-129714761D01*
X160678809Y-129810000D01*
X160678809Y-130190952D01*
X160488333Y-129238571D02*
X160488333Y-128762380D01*
X160202619Y-129333809D02*
X161202619Y-129000476D01*
X160202619Y-128667142D01*
X161202619Y-128429047D02*
X161202619Y-127810000D01*
X160821666Y-128143333D01*
X160821666Y-128000476D01*
X160774047Y-127905238D01*
X160726428Y-127857619D01*
X160631190Y-127810000D01*
X160393095Y-127810000D01*
X160297857Y-127857619D01*
X160250238Y-127905238D01*
X160202619Y-128000476D01*
X160202619Y-128286190D01*
X160250238Y-128381428D01*
X160297857Y-128429047D01*
X161837619Y-110045238D02*
X161837619Y-110521428D01*
X161361428Y-110569047D01*
X161409047Y-110521428D01*
X161456666Y-110426190D01*
X161456666Y-110188095D01*
X161409047Y-110092857D01*
X161361428Y-110045238D01*
X161266190Y-109997619D01*
X161028095Y-109997619D01*
X160932857Y-110045238D01*
X160885238Y-110092857D01*
X160837619Y-110188095D01*
X160837619Y-110426190D01*
X160885238Y-110521428D01*
X160932857Y-110569047D01*
X161837619Y-109711904D02*
X160837619Y-109378571D01*
X161837619Y-109045238D01*
X161790000Y-107426190D02*
X161837619Y-107521428D01*
X161837619Y-107664285D01*
X161790000Y-107807142D01*
X161694761Y-107902380D01*
X161599523Y-107950000D01*
X161409047Y-107997619D01*
X161266190Y-107997619D01*
X161075714Y-107950000D01*
X160980476Y-107902380D01*
X160885238Y-107807142D01*
X160837619Y-107664285D01*
X160837619Y-107569047D01*
X160885238Y-107426190D01*
X160932857Y-107378571D01*
X161266190Y-107378571D01*
X161266190Y-107569047D01*
X160837619Y-106950000D02*
X161837619Y-106950000D01*
X160837619Y-106378571D01*
X161837619Y-106378571D01*
X160837619Y-105902380D02*
X161837619Y-105902380D01*
X161837619Y-105664285D01*
X161790000Y-105521428D01*
X161694761Y-105426190D01*
X161599523Y-105378571D01*
X161409047Y-105330952D01*
X161266190Y-105330952D01*
X161075714Y-105378571D01*
X160980476Y-105426190D01*
X160885238Y-105521428D01*
X160837619Y-105664285D01*
X160837619Y-105902380D01*
X227877619Y-96075238D02*
X227877619Y-96551428D01*
X227401428Y-96599047D01*
X227449047Y-96551428D01*
X227496666Y-96456190D01*
X227496666Y-96218095D01*
X227449047Y-96122857D01*
X227401428Y-96075238D01*
X227306190Y-96027619D01*
X227068095Y-96027619D01*
X226972857Y-96075238D01*
X226925238Y-96122857D01*
X226877619Y-96218095D01*
X226877619Y-96456190D01*
X226925238Y-96551428D01*
X226972857Y-96599047D01*
X227877619Y-95741904D02*
X226877619Y-95408571D01*
X227877619Y-95075238D01*
X227830000Y-93456190D02*
X227877619Y-93551428D01*
X227877619Y-93694285D01*
X227830000Y-93837142D01*
X227734761Y-93932380D01*
X227639523Y-93980000D01*
X227449047Y-94027619D01*
X227306190Y-94027619D01*
X227115714Y-93980000D01*
X227020476Y-93932380D01*
X226925238Y-93837142D01*
X226877619Y-93694285D01*
X226877619Y-93599047D01*
X226925238Y-93456190D01*
X226972857Y-93408571D01*
X227306190Y-93408571D01*
X227306190Y-93599047D01*
X226877619Y-92980000D02*
X227877619Y-92980000D01*
X226877619Y-92408571D01*
X227877619Y-92408571D01*
X226877619Y-91932380D02*
X227877619Y-91932380D01*
X227877619Y-91694285D01*
X227830000Y-91551428D01*
X227734761Y-91456190D01*
X227639523Y-91408571D01*
X227449047Y-91360952D01*
X227306190Y-91360952D01*
X227115714Y-91408571D01*
X227020476Y-91456190D01*
X226925238Y-91551428D01*
X226877619Y-91694285D01*
X226877619Y-91932380D01*
D11*
G04 #@! TO.C,G\u002A\u002A\u002A*
G36*
X218812534Y-106112733D02*
G01*
X218819507Y-106142933D01*
X218846400Y-106146600D01*
X218888215Y-106128013D01*
X218880267Y-106112733D01*
X218819979Y-106106653D01*
X218812534Y-106112733D01*
G37*
X218812534Y-106112733D02*
X218819507Y-106142933D01*
X218846400Y-106146600D01*
X218888215Y-106128013D01*
X218880267Y-106112733D01*
X218819979Y-106106653D01*
X218812534Y-106112733D01*
G36*
X219826201Y-105903368D02*
G01*
X219812172Y-105969663D01*
X219780844Y-106011261D01*
X219711373Y-106035137D01*
X219582918Y-106048263D01*
X219374635Y-106057611D01*
X219363913Y-106058022D01*
X218922600Y-106074907D01*
X219392500Y-106085353D01*
X219862400Y-106095800D01*
X219854789Y-105930700D01*
X219848464Y-105827916D01*
X219840314Y-105822010D01*
X219826201Y-105903368D01*
G37*
X219826201Y-105903368D02*
X219812172Y-105969663D01*
X219780844Y-106011261D01*
X219711373Y-106035137D01*
X219582918Y-106048263D01*
X219374635Y-106057611D01*
X219363913Y-106058022D01*
X218922600Y-106074907D01*
X219392500Y-106085353D01*
X219862400Y-106095800D01*
X219854789Y-105930700D01*
X219848464Y-105827916D01*
X219840314Y-105822010D01*
X219826201Y-105903368D01*
G36*
X219775749Y-105422700D02*
G01*
X219767345Y-105570730D01*
X219775749Y-105651300D01*
X219788312Y-105675373D01*
X219796283Y-105611549D01*
X219797764Y-105537000D01*
X219793801Y-105427127D01*
X219783670Y-105396965D01*
X219775749Y-105422700D01*
G37*
X219775749Y-105422700D02*
X219767345Y-105570730D01*
X219775749Y-105651300D01*
X219788312Y-105675373D01*
X219796283Y-105611549D01*
X219797764Y-105537000D01*
X219793801Y-105427127D01*
X219783670Y-105396965D01*
X219775749Y-105422700D01*
G36*
X218973203Y-105424843D02*
G01*
X218963359Y-105470376D01*
X218898691Y-105571673D01*
X218830577Y-105603158D01*
X218768251Y-105619019D01*
X218800004Y-105627962D01*
X218859100Y-105631681D01*
X218959778Y-105622795D01*
X218991974Y-105561273D01*
X218991882Y-105498900D01*
X218984670Y-105413501D01*
X218973203Y-105424843D01*
G37*
X218973203Y-105424843D02*
X218963359Y-105470376D01*
X218898691Y-105571673D01*
X218830577Y-105603158D01*
X218768251Y-105619019D01*
X218800004Y-105627962D01*
X218859100Y-105631681D01*
X218959778Y-105622795D01*
X218991974Y-105561273D01*
X218991882Y-105498900D01*
X218984670Y-105413501D01*
X218973203Y-105424843D01*
G36*
X218258426Y-105502260D02*
G01*
X218297036Y-105523154D01*
X218338400Y-105537000D01*
X218491098Y-105569167D01*
X218592400Y-105576725D01*
X218668602Y-105573465D01*
X218654222Y-105560718D01*
X218567000Y-105537000D01*
X218422065Y-105508185D01*
X218313000Y-105497274D01*
X218258426Y-105502260D01*
G37*
X218258426Y-105502260D02*
X218297036Y-105523154D01*
X218338400Y-105537000D01*
X218491098Y-105569167D01*
X218592400Y-105576725D01*
X218668602Y-105573465D01*
X218654222Y-105560718D01*
X218567000Y-105537000D01*
X218422065Y-105508185D01*
X218313000Y-105497274D01*
X218258426Y-105502260D01*
G36*
X218101334Y-105452333D02*
G01*
X218108307Y-105482533D01*
X218135200Y-105486200D01*
X218177015Y-105467613D01*
X218169067Y-105452333D01*
X218108779Y-105446253D01*
X218101334Y-105452333D01*
G37*
X218101334Y-105452333D02*
X218108307Y-105482533D01*
X218135200Y-105486200D01*
X218177015Y-105467613D01*
X218169067Y-105452333D01*
X218108779Y-105446253D01*
X218101334Y-105452333D01*
G36*
X219724872Y-105016892D02*
G01*
X219716693Y-105149258D01*
X219725897Y-105220092D01*
X219739628Y-105231967D01*
X219747333Y-105159015D01*
X219747990Y-105105200D01*
X219742988Y-105006821D01*
X219731514Y-104991896D01*
X219724872Y-105016892D01*
G37*
X219724872Y-105016892D02*
X219716693Y-105149258D01*
X219725897Y-105220092D01*
X219739628Y-105231967D01*
X219747333Y-105159015D01*
X219747990Y-105105200D01*
X219742988Y-105006821D01*
X219731514Y-104991896D01*
X219724872Y-105016892D01*
G36*
X217044085Y-102463600D02*
G01*
X217126262Y-102847822D01*
X217302823Y-103223678D01*
X217566572Y-103580880D01*
X217910309Y-103909141D01*
X218204773Y-104122750D01*
X218389741Y-104232617D01*
X218572303Y-104325348D01*
X218700867Y-104376658D01*
X218893333Y-104434323D01*
X218910326Y-104845961D01*
X218927320Y-105257600D01*
X218948000Y-104470200D01*
X219138500Y-104464261D01*
X219232902Y-104459177D01*
X219244064Y-104449822D01*
X219165612Y-104432524D01*
X219049600Y-104413012D01*
X218661990Y-104303087D01*
X218268609Y-104101886D01*
X217884603Y-103817558D01*
X217796520Y-103738782D01*
X217501495Y-103428778D01*
X217290901Y-103115440D01*
X217149982Y-102773422D01*
X217088549Y-102522646D01*
X217018286Y-102158800D01*
X217044085Y-102463600D01*
G37*
X217044085Y-102463600D02*
X217126262Y-102847822D01*
X217302823Y-103223678D01*
X217566572Y-103580880D01*
X217910309Y-103909141D01*
X218204773Y-104122750D01*
X218389741Y-104232617D01*
X218572303Y-104325348D01*
X218700867Y-104376658D01*
X218893333Y-104434323D01*
X218910326Y-104845961D01*
X218927320Y-105257600D01*
X218948000Y-104470200D01*
X219138500Y-104464261D01*
X219232902Y-104459177D01*
X219244064Y-104449822D01*
X219165612Y-104432524D01*
X219049600Y-104413012D01*
X218661990Y-104303087D01*
X218268609Y-104101886D01*
X217884603Y-103817558D01*
X217796520Y-103738782D01*
X217501495Y-103428778D01*
X217290901Y-103115440D01*
X217149982Y-102773422D01*
X217088549Y-102522646D01*
X217018286Y-102158800D01*
X217044085Y-102463600D01*
G36*
X218343128Y-102738352D02*
G01*
X218342907Y-102743000D01*
X218369378Y-102872076D01*
X218447691Y-103051440D01*
X218563033Y-103254699D01*
X218700593Y-103455460D01*
X218830062Y-103611031D01*
X219139458Y-103883182D01*
X219469692Y-104057975D01*
X219827119Y-104138618D01*
X219884622Y-104142855D01*
X220024808Y-104147792D01*
X220094061Y-104144380D01*
X220078300Y-104133641D01*
X219989452Y-104104567D01*
X219964000Y-104083978D01*
X219985483Y-104029754D01*
X220041139Y-103913445D01*
X220100874Y-103795411D01*
X220184141Y-103653099D01*
X220238977Y-103605979D01*
X220266665Y-103655057D01*
X220268487Y-103801341D01*
X220259301Y-103919716D01*
X220251617Y-104046984D01*
X220272176Y-104097801D01*
X220336725Y-104096543D01*
X220368799Y-104089231D01*
X220497307Y-104046991D01*
X220656787Y-103980330D01*
X220697829Y-103960971D01*
X220845427Y-103896718D01*
X220909321Y-103885159D01*
X220889694Y-103921673D01*
X220786730Y-104001637D01*
X220693766Y-104063021D01*
X220500167Y-104167262D01*
X220265361Y-104266901D01*
X220023461Y-104349953D01*
X219808581Y-104404436D01*
X219679249Y-104419400D01*
X219586559Y-104423931D01*
X219558372Y-104432100D01*
X219573256Y-104483318D01*
X219610194Y-104599068D01*
X219634521Y-104673400D01*
X219709898Y-104902000D01*
X219681147Y-104692391D01*
X219667472Y-104559227D01*
X219689838Y-104493350D01*
X219770118Y-104461441D01*
X219842116Y-104447192D01*
X220161067Y-104362555D01*
X220473744Y-104235303D01*
X220756194Y-104078643D01*
X220984460Y-103905785D01*
X221098678Y-103773561D01*
X221022612Y-103773561D01*
X221010251Y-103801950D01*
X220959101Y-103856487D01*
X220929695Y-103845299D01*
X220929200Y-103838198D01*
X220965283Y-103795230D01*
X220987850Y-103779549D01*
X221022612Y-103773561D01*
X221098678Y-103773561D01*
X221130395Y-103736845D01*
X221209092Y-103600623D01*
X221226337Y-103543756D01*
X221181328Y-103564086D01*
X221094300Y-103639729D01*
X220965032Y-103739985D01*
X220797368Y-103844464D01*
X220623341Y-103935950D01*
X220474984Y-103997225D01*
X220399810Y-104013000D01*
X220356406Y-103987930D01*
X220328832Y-103901148D01*
X220312502Y-103735289D01*
X220309222Y-103670100D01*
X220294200Y-103327200D01*
X220091000Y-103720682D01*
X219970057Y-103937628D01*
X219875777Y-104066058D01*
X219802312Y-104113714D01*
X219793745Y-104114382D01*
X219745762Y-104105236D01*
X219720551Y-104063374D01*
X219714238Y-103967581D01*
X219722949Y-103796641D01*
X219726537Y-103746300D01*
X219753384Y-103378000D01*
X219700352Y-103720900D01*
X219667504Y-103892097D01*
X219631768Y-104015009D01*
X219600723Y-104063754D01*
X219599937Y-104063800D01*
X219525937Y-104042202D01*
X219409189Y-103989591D01*
X219397158Y-103983441D01*
X219241761Y-103903082D01*
X219366108Y-103767541D01*
X219483198Y-103628342D01*
X219598017Y-103475126D01*
X219604112Y-103466302D01*
X219686230Y-103368466D01*
X219751940Y-103327248D01*
X219764685Y-103329600D01*
X219801683Y-103311998D01*
X219811600Y-103253998D01*
X219804053Y-103169691D01*
X219793185Y-103149400D01*
X219756768Y-103187284D01*
X219675154Y-103288516D01*
X219563161Y-103434463D01*
X219510344Y-103505000D01*
X219386741Y-103664793D01*
X219282823Y-103787377D01*
X219214966Y-103853904D01*
X219201391Y-103860600D01*
X219136140Y-103830249D01*
X219035530Y-103756049D01*
X219022194Y-103744760D01*
X218887522Y-103628920D01*
X219040745Y-103376460D01*
X219132886Y-103205750D01*
X219203140Y-103041568D01*
X219226642Y-102962442D01*
X219259317Y-102800884D01*
X218927286Y-102908835D01*
X218765717Y-102965077D01*
X218654346Y-103011048D01*
X218615965Y-103037274D01*
X218616474Y-103038007D01*
X218672397Y-103035267D01*
X218791811Y-103004870D01*
X218878097Y-102977313D01*
X219048988Y-102921432D01*
X219141631Y-102904291D01*
X219173641Y-102930960D01*
X219162628Y-103006512D01*
X219149039Y-103055335D01*
X219100455Y-103177998D01*
X219026328Y-103318957D01*
X218945056Y-103448119D01*
X218875040Y-103535391D01*
X218843254Y-103555452D01*
X218784254Y-103512490D01*
X218698768Y-103396636D01*
X218598957Y-103228962D01*
X218496980Y-103030538D01*
X218404998Y-102822437D01*
X218374384Y-102743000D01*
X218350808Y-102692227D01*
X218343128Y-102738352D01*
G37*
X218343128Y-102738352D02*
X218342907Y-102743000D01*
X218369378Y-102872076D01*
X218447691Y-103051440D01*
X218563033Y-103254699D01*
X218700593Y-103455460D01*
X218830062Y-103611031D01*
X219139458Y-103883182D01*
X219469692Y-104057975D01*
X219827119Y-104138618D01*
X219884622Y-104142855D01*
X220024808Y-104147792D01*
X220094061Y-104144380D01*
X220078300Y-104133641D01*
X219989452Y-104104567D01*
X219964000Y-104083978D01*
X219985483Y-104029754D01*
X220041139Y-103913445D01*
X220100874Y-103795411D01*
X220184141Y-103653099D01*
X220238977Y-103605979D01*
X220266665Y-103655057D01*
X220268487Y-103801341D01*
X220259301Y-103919716D01*
X220251617Y-104046984D01*
X220272176Y-104097801D01*
X220336725Y-104096543D01*
X220368799Y-104089231D01*
X220497307Y-104046991D01*
X220656787Y-103980330D01*
X220697829Y-103960971D01*
X220845427Y-103896718D01*
X220909321Y-103885159D01*
X220889694Y-103921673D01*
X220786730Y-104001637D01*
X220693766Y-104063021D01*
X220500167Y-104167262D01*
X220265361Y-104266901D01*
X220023461Y-104349953D01*
X219808581Y-104404436D01*
X219679249Y-104419400D01*
X219586559Y-104423931D01*
X219558372Y-104432100D01*
X219573256Y-104483318D01*
X219610194Y-104599068D01*
X219634521Y-104673400D01*
X219709898Y-104902000D01*
X219681147Y-104692391D01*
X219667472Y-104559227D01*
X219689838Y-104493350D01*
X219770118Y-104461441D01*
X219842116Y-104447192D01*
X220161067Y-104362555D01*
X220473744Y-104235303D01*
X220756194Y-104078643D01*
X220984460Y-103905785D01*
X221098678Y-103773561D01*
X221022612Y-103773561D01*
X221010251Y-103801950D01*
X220959101Y-103856487D01*
X220929695Y-103845299D01*
X220929200Y-103838198D01*
X220965283Y-103795230D01*
X220987850Y-103779549D01*
X221022612Y-103773561D01*
X221098678Y-103773561D01*
X221130395Y-103736845D01*
X221209092Y-103600623D01*
X221226337Y-103543756D01*
X221181328Y-103564086D01*
X221094300Y-103639729D01*
X220965032Y-103739985D01*
X220797368Y-103844464D01*
X220623341Y-103935950D01*
X220474984Y-103997225D01*
X220399810Y-104013000D01*
X220356406Y-103987930D01*
X220328832Y-103901148D01*
X220312502Y-103735289D01*
X220309222Y-103670100D01*
X220294200Y-103327200D01*
X220091000Y-103720682D01*
X219970057Y-103937628D01*
X219875777Y-104066058D01*
X219802312Y-104113714D01*
X219793745Y-104114382D01*
X219745762Y-104105236D01*
X219720551Y-104063374D01*
X219714238Y-103967581D01*
X219722949Y-103796641D01*
X219726537Y-103746300D01*
X219753384Y-103378000D01*
X219700352Y-103720900D01*
X219667504Y-103892097D01*
X219631768Y-104015009D01*
X219600723Y-104063754D01*
X219599937Y-104063800D01*
X219525937Y-104042202D01*
X219409189Y-103989591D01*
X219397158Y-103983441D01*
X219241761Y-103903082D01*
X219366108Y-103767541D01*
X219483198Y-103628342D01*
X219598017Y-103475126D01*
X219604112Y-103466302D01*
X219686230Y-103368466D01*
X219751940Y-103327248D01*
X219764685Y-103329600D01*
X219801683Y-103311998D01*
X219811600Y-103253998D01*
X219804053Y-103169691D01*
X219793185Y-103149400D01*
X219756768Y-103187284D01*
X219675154Y-103288516D01*
X219563161Y-103434463D01*
X219510344Y-103505000D01*
X219386741Y-103664793D01*
X219282823Y-103787377D01*
X219214966Y-103853904D01*
X219201391Y-103860600D01*
X219136140Y-103830249D01*
X219035530Y-103756049D01*
X219022194Y-103744760D01*
X218887522Y-103628920D01*
X219040745Y-103376460D01*
X219132886Y-103205750D01*
X219203140Y-103041568D01*
X219226642Y-102962442D01*
X219259317Y-102800884D01*
X218927286Y-102908835D01*
X218765717Y-102965077D01*
X218654346Y-103011048D01*
X218615965Y-103037274D01*
X218616474Y-103038007D01*
X218672397Y-103035267D01*
X218791811Y-103004870D01*
X218878097Y-102977313D01*
X219048988Y-102921432D01*
X219141631Y-102904291D01*
X219173641Y-102930960D01*
X219162628Y-103006512D01*
X219149039Y-103055335D01*
X219100455Y-103177998D01*
X219026328Y-103318957D01*
X218945056Y-103448119D01*
X218875040Y-103535391D01*
X218843254Y-103555452D01*
X218784254Y-103512490D01*
X218698768Y-103396636D01*
X218598957Y-103228962D01*
X218496980Y-103030538D01*
X218404998Y-102822437D01*
X218374384Y-102743000D01*
X218350808Y-102692227D01*
X218343128Y-102738352D01*
G36*
X223116530Y-101976456D02*
G01*
X223216946Y-102056776D01*
X223371534Y-102171112D01*
X223565269Y-102308058D01*
X223596907Y-102329935D01*
X223796543Y-102465886D01*
X223962092Y-102575397D01*
X224077971Y-102648400D01*
X224128596Y-102674827D01*
X224129600Y-102674097D01*
X224091054Y-102635127D01*
X223988269Y-102554248D01*
X223840528Y-102444987D01*
X223667113Y-102320871D01*
X223487305Y-102195423D01*
X223320387Y-102082172D01*
X223185641Y-101994641D01*
X223102349Y-101946357D01*
X223085310Y-101941556D01*
X223116530Y-101976456D01*
G37*
X223116530Y-101976456D02*
X223216946Y-102056776D01*
X223371534Y-102171112D01*
X223565269Y-102308058D01*
X223596907Y-102329935D01*
X223796543Y-102465886D01*
X223962092Y-102575397D01*
X224077971Y-102648400D01*
X224128596Y-102674827D01*
X224129600Y-102674097D01*
X224091054Y-102635127D01*
X223988269Y-102554248D01*
X223840528Y-102444987D01*
X223667113Y-102320871D01*
X223487305Y-102195423D01*
X223320387Y-102082172D01*
X223185641Y-101994641D01*
X223102349Y-101946357D01*
X223085310Y-101941556D01*
X223116530Y-101976456D01*
G36*
X218305429Y-102033491D02*
G01*
X218301139Y-102071242D01*
X218293223Y-102263104D01*
X218299133Y-102452134D01*
X218301474Y-102477642D01*
X218310257Y-102519102D01*
X218316968Y-102470056D01*
X218320612Y-102341592D01*
X218320986Y-102260400D01*
X218318820Y-102103432D01*
X218313304Y-102024643D01*
X218305429Y-102033491D01*
G37*
X218305429Y-102033491D02*
X218301139Y-102071242D01*
X218293223Y-102263104D01*
X218299133Y-102452134D01*
X218301474Y-102477642D01*
X218310257Y-102519102D01*
X218316968Y-102470056D01*
X218320612Y-102341592D01*
X218320986Y-102260400D01*
X218318820Y-102103432D01*
X218313304Y-102024643D01*
X218305429Y-102033491D01*
G36*
X221286403Y-101978041D02*
G01*
X221192593Y-102040678D01*
X221155215Y-102131573D01*
X221185190Y-102211996D01*
X221341354Y-102341273D01*
X221531743Y-102415446D01*
X221725463Y-102429452D01*
X221891622Y-102378225D01*
X221945200Y-102336600D01*
X222019446Y-102221372D01*
X222040908Y-102120700D01*
X222034125Y-102044590D01*
X222020891Y-102066380D01*
X222010263Y-102108000D01*
X221926791Y-102273557D01*
X221785368Y-102365868D01*
X221602801Y-102380484D01*
X221395901Y-102312962D01*
X221344574Y-102284090D01*
X221228276Y-102190578D01*
X221203313Y-102116735D01*
X221267650Y-102075126D01*
X221378736Y-102073149D01*
X221497899Y-102067445D01*
X221536160Y-102032763D01*
X221486712Y-101989788D01*
X221413078Y-101968810D01*
X221286403Y-101978041D01*
G37*
X221286403Y-101978041D02*
X221192593Y-102040678D01*
X221155215Y-102131573D01*
X221185190Y-102211996D01*
X221341354Y-102341273D01*
X221531743Y-102415446D01*
X221725463Y-102429452D01*
X221891622Y-102378225D01*
X221945200Y-102336600D01*
X222019446Y-102221372D01*
X222040908Y-102120700D01*
X222034125Y-102044590D01*
X222020891Y-102066380D01*
X222010263Y-102108000D01*
X221926791Y-102273557D01*
X221785368Y-102365868D01*
X221602801Y-102380484D01*
X221395901Y-102312962D01*
X221344574Y-102284090D01*
X221228276Y-102190578D01*
X221203313Y-102116735D01*
X221267650Y-102075126D01*
X221378736Y-102073149D01*
X221497899Y-102067445D01*
X221536160Y-102032763D01*
X221486712Y-101989788D01*
X221413078Y-101968810D01*
X221286403Y-101978041D01*
G36*
X216200068Y-99944920D02*
G01*
X216101593Y-100042362D01*
X215957865Y-100208222D01*
X215775214Y-100434971D01*
X215559969Y-100715079D01*
X215392757Y-100939600D01*
X215222528Y-101165154D01*
X215044455Y-101391396D01*
X214870034Y-101604831D01*
X214710761Y-101791964D01*
X214578131Y-101939300D01*
X214483641Y-102033346D01*
X214438785Y-102060608D01*
X214438195Y-102060128D01*
X214451029Y-102009846D01*
X214500960Y-101892003D01*
X214578203Y-101729177D01*
X214604600Y-101676200D01*
X214687645Y-101504032D01*
X214745600Y-101369644D01*
X214768861Y-101295832D01*
X214767727Y-101288992D01*
X214718886Y-101305660D01*
X214601223Y-101366596D01*
X214432114Y-101462290D01*
X214228935Y-101583231D01*
X214218366Y-101589665D01*
X213925990Y-101761876D01*
X213674282Y-101898360D01*
X213473325Y-101994451D01*
X213333206Y-102045482D01*
X213264009Y-102046785D01*
X213258400Y-102033885D01*
X213295796Y-101985669D01*
X213398042Y-101887993D01*
X213550226Y-101754329D01*
X213737437Y-101598150D01*
X213769699Y-101571928D01*
X213958999Y-101416565D01*
X214114093Y-101285320D01*
X214220774Y-101190518D01*
X214264836Y-101144482D01*
X214264999Y-101142305D01*
X214212320Y-101147875D01*
X214085029Y-101175969D01*
X213906230Y-101221275D01*
X213817200Y-101245291D01*
X213636019Y-101297476D01*
X213509786Y-101338683D01*
X213455753Y-101363009D01*
X213461600Y-101367015D01*
X213550822Y-101356441D01*
X213699554Y-101325853D01*
X213817200Y-101296933D01*
X214096600Y-101223673D01*
X213940047Y-101361036D01*
X213820127Y-101465078D01*
X213658302Y-101603981D01*
X213495547Y-101742627D01*
X213334589Y-101892007D01*
X213236386Y-102010362D01*
X213205218Y-102088782D01*
X213245365Y-102118357D01*
X213321900Y-102104067D01*
X213600130Y-101994877D01*
X213927567Y-101826260D01*
X214249000Y-101634571D01*
X214425963Y-101526485D01*
X214567553Y-101444782D01*
X214654185Y-101400513D01*
X214671427Y-101396225D01*
X214658341Y-101445682D01*
X214608779Y-101560840D01*
X214533273Y-101717329D01*
X214528828Y-101726152D01*
X214428129Y-101942444D01*
X214385848Y-102075899D01*
X214401602Y-102126191D01*
X214475009Y-102092993D01*
X214605684Y-101975979D01*
X214702918Y-101874599D01*
X214850373Y-101706257D01*
X215033923Y-101483046D01*
X215231009Y-101233057D01*
X215419075Y-100984380D01*
X215433338Y-100965000D01*
X215607935Y-100731957D01*
X215781436Y-100508697D01*
X215935648Y-100318106D01*
X216052380Y-100183068D01*
X216068452Y-100165965D01*
X216174061Y-100047178D01*
X216237735Y-99958114D01*
X216246961Y-99923426D01*
X216200068Y-99944920D01*
G37*
X216200068Y-99944920D02*
X216101593Y-100042362D01*
X215957865Y-100208222D01*
X215775214Y-100434971D01*
X215559969Y-100715079D01*
X215392757Y-100939600D01*
X215222528Y-101165154D01*
X215044455Y-101391396D01*
X214870034Y-101604831D01*
X214710761Y-101791964D01*
X214578131Y-101939300D01*
X214483641Y-102033346D01*
X214438785Y-102060608D01*
X214438195Y-102060128D01*
X214451029Y-102009846D01*
X214500960Y-101892003D01*
X214578203Y-101729177D01*
X214604600Y-101676200D01*
X214687645Y-101504032D01*
X214745600Y-101369644D01*
X214768861Y-101295832D01*
X214767727Y-101288992D01*
X214718886Y-101305660D01*
X214601223Y-101366596D01*
X214432114Y-101462290D01*
X214228935Y-101583231D01*
X214218366Y-101589665D01*
X213925990Y-101761876D01*
X213674282Y-101898360D01*
X213473325Y-101994451D01*
X213333206Y-102045482D01*
X213264009Y-102046785D01*
X213258400Y-102033885D01*
X213295796Y-101985669D01*
X213398042Y-101887993D01*
X213550226Y-101754329D01*
X213737437Y-101598150D01*
X213769699Y-101571928D01*
X213958999Y-101416565D01*
X214114093Y-101285320D01*
X214220774Y-101190518D01*
X214264836Y-101144482D01*
X214264999Y-101142305D01*
X214212320Y-101147875D01*
X214085029Y-101175969D01*
X213906230Y-101221275D01*
X213817200Y-101245291D01*
X213636019Y-101297476D01*
X213509786Y-101338683D01*
X213455753Y-101363009D01*
X213461600Y-101367015D01*
X213550822Y-101356441D01*
X213699554Y-101325853D01*
X213817200Y-101296933D01*
X214096600Y-101223673D01*
X213940047Y-101361036D01*
X213820127Y-101465078D01*
X213658302Y-101603981D01*
X213495547Y-101742627D01*
X213334589Y-101892007D01*
X213236386Y-102010362D01*
X213205218Y-102088782D01*
X213245365Y-102118357D01*
X213321900Y-102104067D01*
X213600130Y-101994877D01*
X213927567Y-101826260D01*
X214249000Y-101634571D01*
X214425963Y-101526485D01*
X214567553Y-101444782D01*
X214654185Y-101400513D01*
X214671427Y-101396225D01*
X214658341Y-101445682D01*
X214608779Y-101560840D01*
X214533273Y-101717329D01*
X214528828Y-101726152D01*
X214428129Y-101942444D01*
X214385848Y-102075899D01*
X214401602Y-102126191D01*
X214475009Y-102092993D01*
X214605684Y-101975979D01*
X214702918Y-101874599D01*
X214850373Y-101706257D01*
X215033923Y-101483046D01*
X215231009Y-101233057D01*
X215419075Y-100984380D01*
X215433338Y-100965000D01*
X215607935Y-100731957D01*
X215781436Y-100508697D01*
X215935648Y-100318106D01*
X216052380Y-100183068D01*
X216068452Y-100165965D01*
X216174061Y-100047178D01*
X216237735Y-99958114D01*
X216246961Y-99923426D01*
X216200068Y-99944920D01*
G36*
X219659559Y-99497016D02*
G01*
X219639194Y-99550538D01*
X219573590Y-99703870D01*
X219484906Y-99847681D01*
X219362385Y-99991851D01*
X219195271Y-100146258D01*
X218972810Y-100320782D01*
X218684246Y-100525302D01*
X218318823Y-100769697D01*
X218294493Y-100785665D01*
X218044602Y-100954099D01*
X217809645Y-101120756D01*
X217610077Y-101270535D01*
X217466353Y-101388334D01*
X217423831Y-101428441D01*
X217267831Y-101614578D01*
X217150689Y-101803909D01*
X217085821Y-101971297D01*
X217080444Y-102071910D01*
X217100065Y-102085297D01*
X217126723Y-102014414D01*
X217136188Y-101972007D01*
X217183714Y-101823511D01*
X217272314Y-101673206D01*
X217410282Y-101513562D01*
X217605911Y-101337051D01*
X217867494Y-101136145D01*
X218203323Y-100903316D01*
X218593536Y-100648988D01*
X218804918Y-100509181D01*
X219007609Y-100366766D01*
X219170166Y-100244163D01*
X219224742Y-100198902D01*
X219381519Y-100039926D01*
X219524632Y-99857075D01*
X219636577Y-99676791D01*
X219699852Y-99525519D01*
X219707771Y-99469154D01*
X219694459Y-99435022D01*
X219659559Y-99497016D01*
G37*
X219659559Y-99497016D02*
X219639194Y-99550538D01*
X219573590Y-99703870D01*
X219484906Y-99847681D01*
X219362385Y-99991851D01*
X219195271Y-100146258D01*
X218972810Y-100320782D01*
X218684246Y-100525302D01*
X218318823Y-100769697D01*
X218294493Y-100785665D01*
X218044602Y-100954099D01*
X217809645Y-101120756D01*
X217610077Y-101270535D01*
X217466353Y-101388334D01*
X217423831Y-101428441D01*
X217267831Y-101614578D01*
X217150689Y-101803909D01*
X217085821Y-101971297D01*
X217080444Y-102071910D01*
X217100065Y-102085297D01*
X217126723Y-102014414D01*
X217136188Y-101972007D01*
X217183714Y-101823511D01*
X217272314Y-101673206D01*
X217410282Y-101513562D01*
X217605911Y-101337051D01*
X217867494Y-101136145D01*
X218203323Y-100903316D01*
X218593536Y-100648988D01*
X218804918Y-100509181D01*
X219007609Y-100366766D01*
X219170166Y-100244163D01*
X219224742Y-100198902D01*
X219381519Y-100039926D01*
X219524632Y-99857075D01*
X219636577Y-99676791D01*
X219699852Y-99525519D01*
X219707771Y-99469154D01*
X219694459Y-99435022D01*
X219659559Y-99497016D01*
G36*
X222446520Y-99062917D02*
G01*
X222453200Y-99065868D01*
X222720575Y-99195865D01*
X222900829Y-99333866D01*
X223007942Y-99497950D01*
X223055892Y-99706198D01*
X223062107Y-99853396D01*
X223051254Y-100105029D01*
X223018483Y-100265974D01*
X222961187Y-100345290D01*
X222917176Y-100357433D01*
X222890339Y-100375970D01*
X222956261Y-100425442D01*
X222973900Y-100435256D01*
X223087980Y-100542280D01*
X223108174Y-100686169D01*
X223061013Y-100815939D01*
X222990215Y-100895046D01*
X222938769Y-100914200D01*
X222890654Y-100952135D01*
X222896118Y-101017470D01*
X222892786Y-101114623D01*
X222826602Y-101222454D01*
X222688128Y-101351718D01*
X222467927Y-101513174D01*
X222451154Y-101524634D01*
X222243947Y-101673748D01*
X222116868Y-101786858D01*
X222059836Y-101874703D01*
X222060119Y-101941191D01*
X222085259Y-101959603D01*
X222103021Y-101909038D01*
X222151980Y-101838157D01*
X222265995Y-101731065D01*
X222424481Y-101606209D01*
X222504000Y-101549709D01*
X222741217Y-101371412D01*
X222886490Y-101225368D01*
X222935800Y-101139036D01*
X223005348Y-100982489D01*
X223075500Y-100864761D01*
X223151512Y-100702182D01*
X223151586Y-100553813D01*
X223090954Y-100459285D01*
X223043942Y-100380079D01*
X223065554Y-100271957D01*
X223102221Y-100101008D01*
X223111924Y-99883660D01*
X223096107Y-99663659D01*
X223056213Y-99484748D01*
X223038167Y-99442482D01*
X222894396Y-99259764D01*
X222691741Y-99120416D01*
X222526302Y-99063073D01*
X222445765Y-99051852D01*
X222446520Y-99062917D01*
G37*
X222446520Y-99062917D02*
X222453200Y-99065868D01*
X222720575Y-99195865D01*
X222900829Y-99333866D01*
X223007942Y-99497950D01*
X223055892Y-99706198D01*
X223062107Y-99853396D01*
X223051254Y-100105029D01*
X223018483Y-100265974D01*
X222961187Y-100345290D01*
X222917176Y-100357433D01*
X222890339Y-100375970D01*
X222956261Y-100425442D01*
X222973900Y-100435256D01*
X223087980Y-100542280D01*
X223108174Y-100686169D01*
X223061013Y-100815939D01*
X222990215Y-100895046D01*
X222938769Y-100914200D01*
X222890654Y-100952135D01*
X222896118Y-101017470D01*
X222892786Y-101114623D01*
X222826602Y-101222454D01*
X222688128Y-101351718D01*
X222467927Y-101513174D01*
X222451154Y-101524634D01*
X222243947Y-101673748D01*
X222116868Y-101786858D01*
X222059836Y-101874703D01*
X222060119Y-101941191D01*
X222085259Y-101959603D01*
X222103021Y-101909038D01*
X222151980Y-101838157D01*
X222265995Y-101731065D01*
X222424481Y-101606209D01*
X222504000Y-101549709D01*
X222741217Y-101371412D01*
X222886490Y-101225368D01*
X222935800Y-101139036D01*
X223005348Y-100982489D01*
X223075500Y-100864761D01*
X223151512Y-100702182D01*
X223151586Y-100553813D01*
X223090954Y-100459285D01*
X223043942Y-100380079D01*
X223065554Y-100271957D01*
X223102221Y-100101008D01*
X223111924Y-99883660D01*
X223096107Y-99663659D01*
X223056213Y-99484748D01*
X223038167Y-99442482D01*
X222894396Y-99259764D01*
X222691741Y-99120416D01*
X222526302Y-99063073D01*
X222445765Y-99051852D01*
X222446520Y-99062917D01*
G36*
X221332648Y-101842358D02*
G01*
X221309199Y-101877657D01*
X221310200Y-101879400D01*
X221380225Y-101918723D01*
X221465599Y-101930200D01*
X221559624Y-101912428D01*
X221589600Y-101879400D01*
X221545389Y-101843998D01*
X221438578Y-101828620D01*
X221434202Y-101828600D01*
X221332648Y-101842358D01*
G37*
X221332648Y-101842358D02*
X221309199Y-101877657D01*
X221310200Y-101879400D01*
X221380225Y-101918723D01*
X221465599Y-101930200D01*
X221559624Y-101912428D01*
X221589600Y-101879400D01*
X221545389Y-101843998D01*
X221438578Y-101828620D01*
X221434202Y-101828600D01*
X221332648Y-101842358D01*
G36*
X221417221Y-99355755D02*
G01*
X221367775Y-99441372D01*
X221231686Y-99647046D01*
X221039808Y-99877407D01*
X220821346Y-100101476D01*
X220605507Y-100288276D01*
X220497400Y-100364596D01*
X220355144Y-100444713D01*
X220155367Y-100545212D01*
X219934570Y-100647964D01*
X219867825Y-100677326D01*
X219614900Y-100795663D01*
X219341124Y-100937482D01*
X219100644Y-101074566D01*
X219073792Y-101091104D01*
X218871433Y-101229528D01*
X218679073Y-101382625D01*
X218514542Y-101533742D01*
X218395672Y-101666224D01*
X218340295Y-101763417D01*
X218338400Y-101777946D01*
X218344897Y-101820058D01*
X218372822Y-101801355D01*
X218434828Y-101710241D01*
X218465400Y-101661543D01*
X218576537Y-101534672D01*
X218761973Y-101379745D01*
X219002826Y-101209196D01*
X219280214Y-101035463D01*
X219575255Y-100870980D01*
X219869066Y-100728185D01*
X219909586Y-100710390D01*
X220301332Y-100521438D01*
X220631144Y-100322581D01*
X220882608Y-100124147D01*
X220949762Y-100055946D01*
X221007495Y-99998316D01*
X221051706Y-99992612D01*
X221105454Y-100050332D01*
X221185919Y-100173704D01*
X221315930Y-100337371D01*
X221487991Y-100466578D01*
X221630771Y-100542107D01*
X221934410Y-100687840D01*
X221839471Y-100805085D01*
X221748068Y-100964378D01*
X221677096Y-101168980D01*
X221645050Y-101362619D01*
X221645004Y-101396800D01*
X221657226Y-101410362D01*
X221684660Y-101340282D01*
X221711882Y-101239536D01*
X221828653Y-100926315D01*
X222007337Y-100693642D01*
X222219575Y-100553796D01*
X222328425Y-100498501D01*
X222371830Y-100463878D01*
X222361778Y-100458115D01*
X222274217Y-100479383D01*
X222149606Y-100532674D01*
X222137630Y-100538769D01*
X222005692Y-100589603D01*
X221876887Y-100586074D01*
X221786842Y-100562816D01*
X221544013Y-100446687D01*
X221320495Y-100262686D01*
X221178557Y-100081552D01*
X221086620Y-99930374D01*
X221255481Y-99698387D01*
X221356763Y-99544935D01*
X221433018Y-99403512D01*
X221457655Y-99339400D01*
X221455991Y-99307327D01*
X221417221Y-99355755D01*
G37*
X221417221Y-99355755D02*
X221367775Y-99441372D01*
X221231686Y-99647046D01*
X221039808Y-99877407D01*
X220821346Y-100101476D01*
X220605507Y-100288276D01*
X220497400Y-100364596D01*
X220355144Y-100444713D01*
X220155367Y-100545212D01*
X219934570Y-100647964D01*
X219867825Y-100677326D01*
X219614900Y-100795663D01*
X219341124Y-100937482D01*
X219100644Y-101074566D01*
X219073792Y-101091104D01*
X218871433Y-101229528D01*
X218679073Y-101382625D01*
X218514542Y-101533742D01*
X218395672Y-101666224D01*
X218340295Y-101763417D01*
X218338400Y-101777946D01*
X218344897Y-101820058D01*
X218372822Y-101801355D01*
X218434828Y-101710241D01*
X218465400Y-101661543D01*
X218576537Y-101534672D01*
X218761973Y-101379745D01*
X219002826Y-101209196D01*
X219280214Y-101035463D01*
X219575255Y-100870980D01*
X219869066Y-100728185D01*
X219909586Y-100710390D01*
X220301332Y-100521438D01*
X220631144Y-100322581D01*
X220882608Y-100124147D01*
X220949762Y-100055946D01*
X221007495Y-99998316D01*
X221051706Y-99992612D01*
X221105454Y-100050332D01*
X221185919Y-100173704D01*
X221315930Y-100337371D01*
X221487991Y-100466578D01*
X221630771Y-100542107D01*
X221934410Y-100687840D01*
X221839471Y-100805085D01*
X221748068Y-100964378D01*
X221677096Y-101168980D01*
X221645050Y-101362619D01*
X221645004Y-101396800D01*
X221657226Y-101410362D01*
X221684660Y-101340282D01*
X221711882Y-101239536D01*
X221828653Y-100926315D01*
X222007337Y-100693642D01*
X222219575Y-100553796D01*
X222328425Y-100498501D01*
X222371830Y-100463878D01*
X222361778Y-100458115D01*
X222274217Y-100479383D01*
X222149606Y-100532674D01*
X222137630Y-100538769D01*
X222005692Y-100589603D01*
X221876887Y-100586074D01*
X221786842Y-100562816D01*
X221544013Y-100446687D01*
X221320495Y-100262686D01*
X221178557Y-100081552D01*
X221086620Y-99930374D01*
X221255481Y-99698387D01*
X221356763Y-99544935D01*
X221433018Y-99403512D01*
X221457655Y-99339400D01*
X221455991Y-99307327D01*
X221417221Y-99355755D01*
G36*
X221696335Y-101560202D02*
G01*
X221694771Y-101587900D01*
X221676294Y-101644056D01*
X221609255Y-101659266D01*
X221495469Y-101646101D01*
X221360007Y-101634390D01*
X221290314Y-101661546D01*
X221265706Y-101703486D01*
X221250857Y-101762608D01*
X221292893Y-101741122D01*
X221308378Y-101728512D01*
X221422431Y-101690569D01*
X221599398Y-101719113D01*
X221711881Y-101757618D01*
X221778443Y-101763604D01*
X221789230Y-101745135D01*
X221777378Y-101701600D01*
X221742000Y-101701600D01*
X221716600Y-101727000D01*
X221691200Y-101701600D01*
X221716600Y-101676200D01*
X221742000Y-101701600D01*
X221777378Y-101701600D01*
X221767908Y-101666820D01*
X221742000Y-101600000D01*
X221708487Y-101534045D01*
X221696335Y-101560202D01*
G37*
X221696335Y-101560202D02*
X221694771Y-101587900D01*
X221676294Y-101644056D01*
X221609255Y-101659266D01*
X221495469Y-101646101D01*
X221360007Y-101634390D01*
X221290314Y-101661546D01*
X221265706Y-101703486D01*
X221250857Y-101762608D01*
X221292893Y-101741122D01*
X221308378Y-101728512D01*
X221422431Y-101690569D01*
X221599398Y-101719113D01*
X221711881Y-101757618D01*
X221778443Y-101763604D01*
X221789230Y-101745135D01*
X221777378Y-101701600D01*
X221742000Y-101701600D01*
X221716600Y-101727000D01*
X221691200Y-101701600D01*
X221716600Y-101676200D01*
X221742000Y-101701600D01*
X221777378Y-101701600D01*
X221767908Y-101666820D01*
X221742000Y-101600000D01*
X221708487Y-101534045D01*
X221696335Y-101560202D01*
G36*
X212496400Y-101498400D02*
G01*
X212521800Y-101523800D01*
X212547200Y-101498400D01*
X212521800Y-101473000D01*
X212496400Y-101498400D01*
G37*
X212496400Y-101498400D02*
X212521800Y-101523800D01*
X212547200Y-101498400D01*
X212521800Y-101473000D01*
X212496400Y-101498400D01*
G36*
X213075636Y-101405882D02*
G01*
X213055200Y-101407585D01*
X212883143Y-101424611D01*
X212756226Y-101441662D01*
X212703834Y-101454332D01*
X212726806Y-101467560D01*
X212819969Y-101469236D01*
X212952818Y-101461323D01*
X213094845Y-101445789D01*
X213215546Y-101424598D01*
X213233000Y-101420242D01*
X213276082Y-101402015D01*
X213222322Y-101397136D01*
X213075636Y-101405882D01*
G37*
X213075636Y-101405882D02*
X213055200Y-101407585D01*
X212883143Y-101424611D01*
X212756226Y-101441662D01*
X212703834Y-101454332D01*
X212726806Y-101467560D01*
X212819969Y-101469236D01*
X212952818Y-101461323D01*
X213094845Y-101445789D01*
X213215546Y-101424598D01*
X213233000Y-101420242D01*
X213276082Y-101402015D01*
X213222322Y-101397136D01*
X213075636Y-101405882D01*
G36*
X213588600Y-100670327D02*
G01*
X213711465Y-100704677D01*
X213760473Y-100726288D01*
X213750588Y-100754825D01*
X213670334Y-100798439D01*
X213508235Y-100865280D01*
X213457465Y-100885069D01*
X213201378Y-100989729D01*
X212956568Y-101099475D01*
X212736381Y-101207050D01*
X212554160Y-101305199D01*
X212423250Y-101386668D01*
X212356995Y-101444199D01*
X212368740Y-101470539D01*
X212379102Y-101471384D01*
X212460269Y-101435558D01*
X212471703Y-101421063D01*
X212543109Y-101362062D01*
X212692468Y-101276749D01*
X212902272Y-101173581D01*
X213155008Y-101061014D01*
X213433165Y-100947507D01*
X213526073Y-100911842D01*
X213746013Y-100820529D01*
X213873507Y-100748525D01*
X213907099Y-100697720D01*
X213845334Y-100670001D01*
X213715600Y-100666041D01*
X213588600Y-100670327D01*
G37*
X213588600Y-100670327D02*
X213711465Y-100704677D01*
X213760473Y-100726288D01*
X213750588Y-100754825D01*
X213670334Y-100798439D01*
X213508235Y-100865280D01*
X213457465Y-100885069D01*
X213201378Y-100989729D01*
X212956568Y-101099475D01*
X212736381Y-101207050D01*
X212554160Y-101305199D01*
X212423250Y-101386668D01*
X212356995Y-101444199D01*
X212368740Y-101470539D01*
X212379102Y-101471384D01*
X212460269Y-101435558D01*
X212471703Y-101421063D01*
X212543109Y-101362062D01*
X212692468Y-101276749D01*
X212902272Y-101173581D01*
X213155008Y-101061014D01*
X213433165Y-100947507D01*
X213526073Y-100911842D01*
X213746013Y-100820529D01*
X213873507Y-100748525D01*
X213907099Y-100697720D01*
X213845334Y-100670001D01*
X213715600Y-100666041D01*
X213588600Y-100670327D01*
G36*
X222528798Y-100914548D02*
G01*
X222505969Y-100949979D01*
X222393777Y-101081417D01*
X222244016Y-101197380D01*
X222214058Y-101214434D01*
X222109051Y-101275588D01*
X222065829Y-101312905D01*
X222072200Y-101318041D01*
X222148999Y-101297805D01*
X222266563Y-101246048D01*
X222275400Y-101241546D01*
X222431861Y-101133793D01*
X222549839Y-101002350D01*
X222603407Y-100877031D01*
X222604281Y-100863400D01*
X222583044Y-100851655D01*
X222528798Y-100914548D01*
G37*
X222528798Y-100914548D02*
X222505969Y-100949979D01*
X222393777Y-101081417D01*
X222244016Y-101197380D01*
X222214058Y-101214434D01*
X222109051Y-101275588D01*
X222065829Y-101312905D01*
X222072200Y-101318041D01*
X222148999Y-101297805D01*
X222266563Y-101246048D01*
X222275400Y-101241546D01*
X222431861Y-101133793D01*
X222549839Y-101002350D01*
X222603407Y-100877031D01*
X222604281Y-100863400D01*
X222583044Y-100851655D01*
X222528798Y-100914548D01*
G36*
X219458912Y-100530965D02*
G01*
X219456000Y-100555568D01*
X219419769Y-100597220D01*
X219379800Y-100591029D01*
X219314388Y-100589973D01*
X219303600Y-100610994D01*
X219340401Y-100654135D01*
X219416942Y-100652563D01*
X219482434Y-100607683D01*
X219483489Y-100606020D01*
X219494992Y-100535362D01*
X219486487Y-100521353D01*
X219458912Y-100530965D01*
G37*
X219458912Y-100530965D02*
X219456000Y-100555568D01*
X219419769Y-100597220D01*
X219379800Y-100591029D01*
X219314388Y-100589973D01*
X219303600Y-100610994D01*
X219340401Y-100654135D01*
X219416942Y-100652563D01*
X219482434Y-100607683D01*
X219483489Y-100606020D01*
X219494992Y-100535362D01*
X219486487Y-100521353D01*
X219458912Y-100530965D01*
G36*
X219175810Y-100523282D02*
G01*
X219140726Y-100550273D01*
X219046344Y-100589516D01*
X218993177Y-100580524D01*
X218956112Y-100572293D01*
X218968550Y-100601550D01*
X219036825Y-100656580D01*
X219119390Y-100614815D01*
X219157680Y-100571300D01*
X219201561Y-100511172D01*
X219175810Y-100523282D01*
G37*
X219175810Y-100523282D02*
X219140726Y-100550273D01*
X219046344Y-100589516D01*
X218993177Y-100580524D01*
X218956112Y-100572293D01*
X218968550Y-100601550D01*
X219036825Y-100656580D01*
X219119390Y-100614815D01*
X219157680Y-100571300D01*
X219201561Y-100511172D01*
X219175810Y-100523282D01*
G36*
X213321900Y-100625182D02*
G01*
X213306090Y-100639906D01*
X213376334Y-100647922D01*
X213410800Y-100648414D01*
X213503222Y-100643117D01*
X213514114Y-100629931D01*
X213499700Y-100625182D01*
X213370860Y-100617281D01*
X213321900Y-100625182D01*
G37*
X213321900Y-100625182D02*
X213306090Y-100639906D01*
X213376334Y-100647922D01*
X213410800Y-100648414D01*
X213503222Y-100643117D01*
X213514114Y-100629931D01*
X213499700Y-100625182D01*
X213370860Y-100617281D01*
X213321900Y-100625182D01*
G36*
X212890100Y-100573548D02*
G01*
X212866027Y-100586111D01*
X212929851Y-100594082D01*
X213004400Y-100595563D01*
X213114273Y-100591600D01*
X213144435Y-100581469D01*
X213118700Y-100573548D01*
X212970670Y-100565144D01*
X212890100Y-100573548D01*
G37*
X212890100Y-100573548D02*
X212866027Y-100586111D01*
X212929851Y-100594082D01*
X213004400Y-100595563D01*
X213114273Y-100591600D01*
X213144435Y-100581469D01*
X213118700Y-100573548D01*
X212970670Y-100565144D01*
X212890100Y-100573548D01*
G36*
X212236519Y-99507863D02*
G01*
X212135970Y-99520400D01*
X212117940Y-99535019D01*
X212180395Y-99567752D01*
X212319842Y-99628796D01*
X212518215Y-99710601D01*
X212757445Y-99805617D01*
X212870969Y-99849655D01*
X213160489Y-99964573D01*
X213356711Y-100051916D01*
X213463038Y-100115271D01*
X213482876Y-100158222D01*
X213419628Y-100184358D01*
X213276701Y-100197264D01*
X213203027Y-100199429D01*
X213064881Y-100213928D01*
X212868287Y-100248916D01*
X212652567Y-100297255D01*
X212622943Y-100304717D01*
X212378563Y-100370749D01*
X212231856Y-100420935D01*
X212180781Y-100458906D01*
X212223296Y-100488292D01*
X212357360Y-100512725D01*
X212497322Y-100528126D01*
X212638064Y-100540340D01*
X212682550Y-100539628D01*
X212635393Y-100525243D01*
X212584739Y-100513944D01*
X212454371Y-100480550D01*
X212372864Y-100449817D01*
X212365259Y-100444391D01*
X212393478Y-100419390D01*
X212501300Y-100384526D01*
X212667746Y-100344280D01*
X212871835Y-100303133D01*
X213092588Y-100265568D01*
X213309027Y-100236066D01*
X213372700Y-100229184D01*
X213544249Y-100207342D01*
X213667227Y-100182721D01*
X213715573Y-100160572D01*
X213715600Y-100160129D01*
X213670790Y-100130706D01*
X213547268Y-100072594D01*
X213361398Y-99992925D01*
X213129544Y-99898832D01*
X212996499Y-99846673D01*
X212277398Y-99568000D01*
X212729799Y-99539499D01*
X213182200Y-99510999D01*
X212625940Y-99501399D01*
X212405722Y-99501140D01*
X212236519Y-99507863D01*
G37*
X212236519Y-99507863D02*
X212135970Y-99520400D01*
X212117940Y-99535019D01*
X212180395Y-99567752D01*
X212319842Y-99628796D01*
X212518215Y-99710601D01*
X212757445Y-99805617D01*
X212870969Y-99849655D01*
X213160489Y-99964573D01*
X213356711Y-100051916D01*
X213463038Y-100115271D01*
X213482876Y-100158222D01*
X213419628Y-100184358D01*
X213276701Y-100197264D01*
X213203027Y-100199429D01*
X213064881Y-100213928D01*
X212868287Y-100248916D01*
X212652567Y-100297255D01*
X212622943Y-100304717D01*
X212378563Y-100370749D01*
X212231856Y-100420935D01*
X212180781Y-100458906D01*
X212223296Y-100488292D01*
X212357360Y-100512725D01*
X212497322Y-100528126D01*
X212638064Y-100540340D01*
X212682550Y-100539628D01*
X212635393Y-100525243D01*
X212584739Y-100513944D01*
X212454371Y-100480550D01*
X212372864Y-100449817D01*
X212365259Y-100444391D01*
X212393478Y-100419390D01*
X212501300Y-100384526D01*
X212667746Y-100344280D01*
X212871835Y-100303133D01*
X213092588Y-100265568D01*
X213309027Y-100236066D01*
X213372700Y-100229184D01*
X213544249Y-100207342D01*
X213667227Y-100182721D01*
X213715573Y-100160572D01*
X213715600Y-100160129D01*
X213670790Y-100130706D01*
X213547268Y-100072594D01*
X213361398Y-99992925D01*
X213129544Y-99898832D01*
X212996499Y-99846673D01*
X212277398Y-99568000D01*
X212729799Y-99539499D01*
X213182200Y-99510999D01*
X212625940Y-99501399D01*
X212405722Y-99501140D01*
X212236519Y-99507863D01*
G36*
X219887917Y-100370034D02*
G01*
X219856139Y-100394376D01*
X219744193Y-100434109D01*
X219678339Y-100427684D01*
X219616796Y-100412277D01*
X219644512Y-100440708D01*
X219659200Y-100451430D01*
X219751799Y-100501452D01*
X219820599Y-100474258D01*
X219868880Y-100418900D01*
X219912656Y-100358852D01*
X219887917Y-100370034D01*
G37*
X219887917Y-100370034D02*
X219856139Y-100394376D01*
X219744193Y-100434109D01*
X219678339Y-100427684D01*
X219616796Y-100412277D01*
X219644512Y-100440708D01*
X219659200Y-100451430D01*
X219751799Y-100501452D01*
X219820599Y-100474258D01*
X219868880Y-100418900D01*
X219912656Y-100358852D01*
X219887917Y-100370034D01*
G36*
X219408162Y-100327873D02*
G01*
X219405200Y-100352858D01*
X219365991Y-100396609D01*
X219303600Y-100391480D01*
X219222596Y-100388631D01*
X219202000Y-100410955D01*
X219241393Y-100449277D01*
X219326846Y-100453705D01*
X219409268Y-100425970D01*
X219432689Y-100402820D01*
X219444192Y-100332162D01*
X219435687Y-100318153D01*
X219408162Y-100327873D01*
G37*
X219408162Y-100327873D02*
X219405200Y-100352858D01*
X219365991Y-100396609D01*
X219303600Y-100391480D01*
X219222596Y-100388631D01*
X219202000Y-100410955D01*
X219241393Y-100449277D01*
X219326846Y-100453705D01*
X219409268Y-100425970D01*
X219432689Y-100402820D01*
X219444192Y-100332162D01*
X219435687Y-100318153D01*
X219408162Y-100327873D01*
G36*
X215234582Y-99563803D02*
G01*
X215130629Y-99633195D01*
X214979065Y-99760718D01*
X214837528Y-99889915D01*
X214734419Y-99988910D01*
X214701763Y-100034219D01*
X214734100Y-100039678D01*
X214782400Y-100029588D01*
X214917893Y-100001330D01*
X215085852Y-99970658D01*
X215112600Y-99966167D01*
X215315800Y-99932589D01*
X215125300Y-100144141D01*
X215021122Y-100263970D01*
X214951928Y-100351490D01*
X214934800Y-100380946D01*
X214972460Y-100407237D01*
X215068598Y-100382919D01*
X215197952Y-100314918D01*
X215214200Y-100304355D01*
X215339963Y-100233896D01*
X215521224Y-100147667D01*
X215712091Y-100067048D01*
X215883809Y-99995671D01*
X216014848Y-99934245D01*
X216079372Y-99894980D01*
X216081268Y-99892589D01*
X216055016Y-99886665D01*
X215958703Y-99915067D01*
X215814255Y-99968972D01*
X215643595Y-100039560D01*
X215468647Y-100118010D01*
X215311335Y-100195501D01*
X215261598Y-100222382D01*
X215134573Y-100288519D01*
X215052909Y-100321708D01*
X215036400Y-100320555D01*
X215070856Y-100274027D01*
X215159899Y-100182577D01*
X215250078Y-100097542D01*
X215361593Y-99988602D01*
X215429644Y-99908267D01*
X215440578Y-99879303D01*
X215381901Y-99874962D01*
X215255525Y-99888137D01*
X215145483Y-99905941D01*
X214991681Y-99930043D01*
X214884380Y-99939487D01*
X214853812Y-99935745D01*
X214881524Y-99899168D01*
X214973273Y-99822886D01*
X215100330Y-99729742D01*
X215226165Y-99635593D01*
X215299158Y-99568473D01*
X215303681Y-99543046D01*
X215234582Y-99563803D01*
G37*
X215234582Y-99563803D02*
X215130629Y-99633195D01*
X214979065Y-99760718D01*
X214837528Y-99889915D01*
X214734419Y-99988910D01*
X214701763Y-100034219D01*
X214734100Y-100039678D01*
X214782400Y-100029588D01*
X214917893Y-100001330D01*
X215085852Y-99970658D01*
X215112600Y-99966167D01*
X215315800Y-99932589D01*
X215125300Y-100144141D01*
X215021122Y-100263970D01*
X214951928Y-100351490D01*
X214934800Y-100380946D01*
X214972460Y-100407237D01*
X215068598Y-100382919D01*
X215197952Y-100314918D01*
X215214200Y-100304355D01*
X215339963Y-100233896D01*
X215521224Y-100147667D01*
X215712091Y-100067048D01*
X215883809Y-99995671D01*
X216014848Y-99934245D01*
X216079372Y-99894980D01*
X216081268Y-99892589D01*
X216055016Y-99886665D01*
X215958703Y-99915067D01*
X215814255Y-99968972D01*
X215643595Y-100039560D01*
X215468647Y-100118010D01*
X215311335Y-100195501D01*
X215261598Y-100222382D01*
X215134573Y-100288519D01*
X215052909Y-100321708D01*
X215036400Y-100320555D01*
X215070856Y-100274027D01*
X215159899Y-100182577D01*
X215250078Y-100097542D01*
X215361593Y-99988602D01*
X215429644Y-99908267D01*
X215440578Y-99879303D01*
X215381901Y-99874962D01*
X215255525Y-99888137D01*
X215145483Y-99905941D01*
X214991681Y-99930043D01*
X214884380Y-99939487D01*
X214853812Y-99935745D01*
X214881524Y-99899168D01*
X214973273Y-99822886D01*
X215100330Y-99729742D01*
X215226165Y-99635593D01*
X215299158Y-99568473D01*
X215303681Y-99543046D01*
X215234582Y-99563803D01*
G36*
X219712962Y-100175473D02*
G01*
X219710000Y-100200458D01*
X219670790Y-100244206D01*
X219608330Y-100239062D01*
X219539578Y-100235716D01*
X219535128Y-100258537D01*
X219610566Y-100301848D01*
X219703067Y-100283583D01*
X219737489Y-100250420D01*
X219748992Y-100179762D01*
X219740487Y-100165753D01*
X219712962Y-100175473D01*
G37*
X219712962Y-100175473D02*
X219710000Y-100200458D01*
X219670790Y-100244206D01*
X219608330Y-100239062D01*
X219539578Y-100235716D01*
X219535128Y-100258537D01*
X219610566Y-100301848D01*
X219703067Y-100283583D01*
X219737489Y-100250420D01*
X219748992Y-100179762D01*
X219740487Y-100165753D01*
X219712962Y-100175473D01*
G36*
X219827074Y-100076466D02*
G01*
X219858254Y-100139500D01*
X219919973Y-100231902D01*
X219990877Y-100241847D01*
X220078300Y-100198930D01*
X220151748Y-100131539D01*
X220167200Y-100091002D01*
X220136929Y-100076672D01*
X220075448Y-100117888D01*
X219999274Y-100172672D01*
X219937048Y-100153509D01*
X219891714Y-100113061D01*
X219827996Y-100055878D01*
X219827074Y-100076466D01*
G37*
X219827074Y-100076466D02*
X219858254Y-100139500D01*
X219919973Y-100231902D01*
X219990877Y-100241847D01*
X220078300Y-100198930D01*
X220151748Y-100131539D01*
X220167200Y-100091002D01*
X220136929Y-100076672D01*
X220075448Y-100117888D01*
X219999274Y-100172672D01*
X219937048Y-100153509D01*
X219891714Y-100113061D01*
X219827996Y-100055878D01*
X219827074Y-100076466D01*
G36*
X221666552Y-99745800D02*
G01*
X221739644Y-99944179D01*
X221883267Y-100098095D01*
X222071693Y-100185276D01*
X222187302Y-100196641D01*
X222377000Y-100190283D01*
X222162928Y-100155369D01*
X221938087Y-100085053D01*
X221786639Y-99952223D01*
X221696129Y-99754293D01*
X221642155Y-99568000D01*
X221666552Y-99745800D01*
G37*
X221666552Y-99745800D02*
X221739644Y-99944179D01*
X221883267Y-100098095D01*
X222071693Y-100185276D01*
X222187302Y-100196641D01*
X222377000Y-100190283D01*
X222162928Y-100155369D01*
X221938087Y-100085053D01*
X221786639Y-99952223D01*
X221696129Y-99754293D01*
X221642155Y-99568000D01*
X221666552Y-99745800D01*
G36*
X223916341Y-100108902D02*
G01*
X223759188Y-100114642D01*
X223690466Y-100121014D01*
X223714872Y-100126370D01*
X223823935Y-100130273D01*
X224009183Y-100132285D01*
X224104200Y-100132462D01*
X224315240Y-100131248D01*
X224450854Y-100128019D01*
X224503402Y-100123210D01*
X224465245Y-100117256D01*
X224419588Y-100114481D01*
X224176988Y-100107659D01*
X223916341Y-100108902D01*
G37*
X223916341Y-100108902D02*
X223759188Y-100114642D01*
X223690466Y-100121014D01*
X223714872Y-100126370D01*
X223823935Y-100130273D01*
X224009183Y-100132285D01*
X224104200Y-100132462D01*
X224315240Y-100131248D01*
X224450854Y-100128019D01*
X224503402Y-100123210D01*
X224465245Y-100117256D01*
X224419588Y-100114481D01*
X224176988Y-100107659D01*
X223916341Y-100108902D01*
G36*
X219205632Y-99118543D02*
G01*
X218908132Y-99217505D01*
X218543379Y-99388737D01*
X218265310Y-99541241D01*
X217921034Y-99730339D01*
X217638991Y-99863938D01*
X217400755Y-99948326D01*
X217187905Y-99989789D01*
X216982017Y-99994615D01*
X216944163Y-99992068D01*
X216807197Y-99988690D01*
X216724205Y-100001138D01*
X216712800Y-100012133D01*
X216758345Y-100039749D01*
X216877459Y-100050260D01*
X217043864Y-100045348D01*
X217231282Y-100026694D01*
X217413434Y-99995978D01*
X217554384Y-99958301D01*
X217703279Y-99895885D01*
X217909490Y-99794936D01*
X218143873Y-99670282D01*
X218341784Y-99557758D01*
X218699078Y-99359306D01*
X218989899Y-99225433D01*
X219224221Y-99153795D01*
X219412018Y-99142051D01*
X219563264Y-99187858D01*
X219650121Y-99250500D01*
X219774589Y-99364800D01*
X219715429Y-99251099D01*
X219607199Y-99135756D01*
X219437960Y-99091432D01*
X219205632Y-99118543D01*
G37*
X219205632Y-99118543D02*
X218908132Y-99217505D01*
X218543379Y-99388737D01*
X218265310Y-99541241D01*
X217921034Y-99730339D01*
X217638991Y-99863938D01*
X217400755Y-99948326D01*
X217187905Y-99989789D01*
X216982017Y-99994615D01*
X216944163Y-99992068D01*
X216807197Y-99988690D01*
X216724205Y-100001138D01*
X216712800Y-100012133D01*
X216758345Y-100039749D01*
X216877459Y-100050260D01*
X217043864Y-100045348D01*
X217231282Y-100026694D01*
X217413434Y-99995978D01*
X217554384Y-99958301D01*
X217703279Y-99895885D01*
X217909490Y-99794936D01*
X218143873Y-99670282D01*
X218341784Y-99557758D01*
X218699078Y-99359306D01*
X218989899Y-99225433D01*
X219224221Y-99153795D01*
X219412018Y-99142051D01*
X219563264Y-99187858D01*
X219650121Y-99250500D01*
X219774589Y-99364800D01*
X219715429Y-99251099D01*
X219607199Y-99135756D01*
X219437960Y-99091432D01*
X219205632Y-99118543D01*
G36*
X217908317Y-99037686D02*
G01*
X217906600Y-99038082D01*
X217812652Y-99062540D01*
X217813256Y-99074382D01*
X217876374Y-99079389D01*
X217959999Y-99089091D01*
X217960267Y-99123849D01*
X217906600Y-99187000D01*
X217823781Y-99262656D01*
X217771727Y-99288600D01*
X217736829Y-99245985D01*
X217728800Y-99187000D01*
X217722113Y-99141674D01*
X217690073Y-99112278D01*
X217614720Y-99095390D01*
X217478091Y-99087588D01*
X217262222Y-99085450D01*
X217195400Y-99085400D01*
X216932072Y-99090396D01*
X216754379Y-99104943D01*
X216668921Y-99128374D01*
X216662000Y-99139198D01*
X216692594Y-99170647D01*
X216709143Y-99163860D01*
X216758610Y-99181056D01*
X216789944Y-99240772D01*
X216822585Y-99313307D01*
X216870514Y-99302095D01*
X216914325Y-99264716D01*
X216985142Y-99210379D01*
X217021014Y-99229179D01*
X217037107Y-99266161D01*
X217068251Y-99313902D01*
X217115930Y-99289822D01*
X217169496Y-99230254D01*
X217222352Y-99167321D01*
X217152538Y-99167321D01*
X217144600Y-99187000D01*
X217098951Y-99235462D01*
X217090802Y-99237800D01*
X217068983Y-99198496D01*
X217068400Y-99187000D01*
X216916000Y-99187000D01*
X216877343Y-99236323D01*
X216865200Y-99237800D01*
X216815877Y-99199142D01*
X216814400Y-99187000D01*
X216853058Y-99137676D01*
X216865200Y-99136200D01*
X216914524Y-99174857D01*
X216916000Y-99187000D01*
X217068400Y-99187000D01*
X217107453Y-99138152D01*
X217122199Y-99136200D01*
X217152538Y-99167321D01*
X217222352Y-99167321D01*
X217269824Y-99110800D01*
X217302037Y-99225100D01*
X217353367Y-99321902D01*
X217413178Y-99325532D01*
X217460081Y-99237800D01*
X217498552Y-99187000D01*
X217424000Y-99187000D01*
X217406668Y-99236479D01*
X217401599Y-99237800D01*
X217358227Y-99202202D01*
X217347800Y-99187000D01*
X217351828Y-99140188D01*
X217370202Y-99136200D01*
X217421933Y-99173076D01*
X217424000Y-99187000D01*
X217498552Y-99187000D01*
X217523517Y-99154035D01*
X217584113Y-99136200D01*
X217649617Y-99148409D01*
X217644880Y-99203967D01*
X217622460Y-99250500D01*
X217511700Y-99424805D01*
X217405987Y-99519425D01*
X217315379Y-99529576D01*
X217249932Y-99450478D01*
X217243005Y-99430931D01*
X217207563Y-99319262D01*
X217112887Y-99436181D01*
X217018211Y-99553101D01*
X216972578Y-99433550D01*
X216939363Y-99356210D01*
X216917381Y-99363367D01*
X216888814Y-99461915D01*
X216887658Y-99466400D01*
X216833926Y-99596359D01*
X216767886Y-99680684D01*
X216713692Y-99727586D01*
X216712800Y-99736054D01*
X216776115Y-99725786D01*
X216894001Y-99709976D01*
X216898512Y-99709408D01*
X217026622Y-99668913D01*
X217075691Y-99593400D01*
X216966800Y-99593400D01*
X216948214Y-99635214D01*
X216932934Y-99627266D01*
X216926854Y-99566978D01*
X216932934Y-99559533D01*
X216963134Y-99566506D01*
X216966800Y-99593400D01*
X217075691Y-99593400D01*
X217087104Y-99575838D01*
X217089979Y-99565138D01*
X217130795Y-99471348D01*
X217170968Y-99441000D01*
X217215612Y-99476200D01*
X217212014Y-99548370D01*
X217164218Y-99607367D01*
X217157300Y-99610556D01*
X217130257Y-99633222D01*
X217170000Y-99639693D01*
X217294002Y-99613884D01*
X217464788Y-99539491D01*
X217651592Y-99433563D01*
X217815560Y-99318805D01*
X217706481Y-99318805D01*
X217678000Y-99364800D01*
X217617889Y-99427888D01*
X217597175Y-99441000D01*
X217596670Y-99402543D01*
X217608830Y-99364800D01*
X217662126Y-99297497D01*
X217689656Y-99288600D01*
X217706481Y-99318805D01*
X217815560Y-99318805D01*
X217823642Y-99313149D01*
X217928528Y-99219381D01*
X218024115Y-99111737D01*
X218077120Y-99037714D01*
X218080928Y-99019453D01*
X218021320Y-99017981D01*
X217908317Y-99037686D01*
G37*
X217908317Y-99037686D02*
X217906600Y-99038082D01*
X217812652Y-99062540D01*
X217813256Y-99074382D01*
X217876374Y-99079389D01*
X217959999Y-99089091D01*
X217960267Y-99123849D01*
X217906600Y-99187000D01*
X217823781Y-99262656D01*
X217771727Y-99288600D01*
X217736829Y-99245985D01*
X217728800Y-99187000D01*
X217722113Y-99141674D01*
X217690073Y-99112278D01*
X217614720Y-99095390D01*
X217478091Y-99087588D01*
X217262222Y-99085450D01*
X217195400Y-99085400D01*
X216932072Y-99090396D01*
X216754379Y-99104943D01*
X216668921Y-99128374D01*
X216662000Y-99139198D01*
X216692594Y-99170647D01*
X216709143Y-99163860D01*
X216758610Y-99181056D01*
X216789944Y-99240772D01*
X216822585Y-99313307D01*
X216870514Y-99302095D01*
X216914325Y-99264716D01*
X216985142Y-99210379D01*
X217021014Y-99229179D01*
X217037107Y-99266161D01*
X217068251Y-99313902D01*
X217115930Y-99289822D01*
X217169496Y-99230254D01*
X217222352Y-99167321D01*
X217152538Y-99167321D01*
X217144600Y-99187000D01*
X217098951Y-99235462D01*
X217090802Y-99237800D01*
X217068983Y-99198496D01*
X217068400Y-99187000D01*
X216916000Y-99187000D01*
X216877343Y-99236323D01*
X216865200Y-99237800D01*
X216815877Y-99199142D01*
X216814400Y-99187000D01*
X216853058Y-99137676D01*
X216865200Y-99136200D01*
X216914524Y-99174857D01*
X216916000Y-99187000D01*
X217068400Y-99187000D01*
X217107453Y-99138152D01*
X217122199Y-99136200D01*
X217152538Y-99167321D01*
X217222352Y-99167321D01*
X217269824Y-99110800D01*
X217302037Y-99225100D01*
X217353367Y-99321902D01*
X217413178Y-99325532D01*
X217460081Y-99237800D01*
X217498552Y-99187000D01*
X217424000Y-99187000D01*
X217406668Y-99236479D01*
X217401599Y-99237800D01*
X217358227Y-99202202D01*
X217347800Y-99187000D01*
X217351828Y-99140188D01*
X217370202Y-99136200D01*
X217421933Y-99173076D01*
X217424000Y-99187000D01*
X217498552Y-99187000D01*
X217523517Y-99154035D01*
X217584113Y-99136200D01*
X217649617Y-99148409D01*
X217644880Y-99203967D01*
X217622460Y-99250500D01*
X217511700Y-99424805D01*
X217405987Y-99519425D01*
X217315379Y-99529576D01*
X217249932Y-99450478D01*
X217243005Y-99430931D01*
X217207563Y-99319262D01*
X217112887Y-99436181D01*
X217018211Y-99553101D01*
X216972578Y-99433550D01*
X216939363Y-99356210D01*
X216917381Y-99363367D01*
X216888814Y-99461915D01*
X216887658Y-99466400D01*
X216833926Y-99596359D01*
X216767886Y-99680684D01*
X216713692Y-99727586D01*
X216712800Y-99736054D01*
X216776115Y-99725786D01*
X216894001Y-99709976D01*
X216898512Y-99709408D01*
X217026622Y-99668913D01*
X217075691Y-99593400D01*
X216966800Y-99593400D01*
X216948214Y-99635214D01*
X216932934Y-99627266D01*
X216926854Y-99566978D01*
X216932934Y-99559533D01*
X216963134Y-99566506D01*
X216966800Y-99593400D01*
X217075691Y-99593400D01*
X217087104Y-99575838D01*
X217089979Y-99565138D01*
X217130795Y-99471348D01*
X217170968Y-99441000D01*
X217215612Y-99476200D01*
X217212014Y-99548370D01*
X217164218Y-99607367D01*
X217157300Y-99610556D01*
X217130257Y-99633222D01*
X217170000Y-99639693D01*
X217294002Y-99613884D01*
X217464788Y-99539491D01*
X217651592Y-99433563D01*
X217815560Y-99318805D01*
X217706481Y-99318805D01*
X217678000Y-99364800D01*
X217617889Y-99427888D01*
X217597175Y-99441000D01*
X217596670Y-99402543D01*
X217608830Y-99364800D01*
X217662126Y-99297497D01*
X217689656Y-99288600D01*
X217706481Y-99318805D01*
X217815560Y-99318805D01*
X217823642Y-99313149D01*
X217928528Y-99219381D01*
X218024115Y-99111737D01*
X218077120Y-99037714D01*
X218080928Y-99019453D01*
X218021320Y-99017981D01*
X217908317Y-99037686D01*
G36*
X214697819Y-99363090D02*
G01*
X214687488Y-99364958D01*
X214571959Y-99390577D01*
X214543524Y-99417110D01*
X214588886Y-99461094D01*
X214602251Y-99470964D01*
X214719375Y-99515743D01*
X214888100Y-99534047D01*
X214931810Y-99533443D01*
X215163400Y-99524286D01*
X214922100Y-99505259D01*
X214760529Y-99480411D01*
X214690041Y-99445423D01*
X214712829Y-99410815D01*
X214831081Y-99387102D01*
X214896700Y-99383281D01*
X215005836Y-99375205D01*
X215023662Y-99362137D01*
X214991646Y-99353476D01*
X214857978Y-99347211D01*
X214697819Y-99363090D01*
G37*
X214697819Y-99363090D02*
X214687488Y-99364958D01*
X214571959Y-99390577D01*
X214543524Y-99417110D01*
X214588886Y-99461094D01*
X214602251Y-99470964D01*
X214719375Y-99515743D01*
X214888100Y-99534047D01*
X214931810Y-99533443D01*
X215163400Y-99524286D01*
X214922100Y-99505259D01*
X214760529Y-99480411D01*
X214690041Y-99445423D01*
X214712829Y-99410815D01*
X214831081Y-99387102D01*
X214896700Y-99383281D01*
X215005836Y-99375205D01*
X215023662Y-99362137D01*
X214991646Y-99353476D01*
X214857978Y-99347211D01*
X214697819Y-99363090D01*
G36*
X212736098Y-98787447D02*
G01*
X212724045Y-98812836D01*
X212772964Y-98864034D01*
X212890778Y-98948309D01*
X213085411Y-99072928D01*
X213191917Y-99139015D01*
X213639400Y-99415188D01*
X213233000Y-99477382D01*
X213474300Y-99484591D01*
X213614912Y-99481572D01*
X213701886Y-99465802D01*
X213715600Y-99453520D01*
X213675471Y-99411758D01*
X213567302Y-99329838D01*
X213409420Y-99221109D01*
X213285880Y-99140503D01*
X213108245Y-99021433D01*
X212971856Y-98919398D01*
X212893691Y-98847754D01*
X212882478Y-98823183D01*
X212862227Y-98789842D01*
X212801200Y-98780600D01*
X212736098Y-98787447D01*
G37*
X212736098Y-98787447D02*
X212724045Y-98812836D01*
X212772964Y-98864034D01*
X212890778Y-98948309D01*
X213085411Y-99072928D01*
X213191917Y-99139015D01*
X213639400Y-99415188D01*
X213233000Y-99477382D01*
X213474300Y-99484591D01*
X213614912Y-99481572D01*
X213701886Y-99465802D01*
X213715600Y-99453520D01*
X213675471Y-99411758D01*
X213567302Y-99329838D01*
X213409420Y-99221109D01*
X213285880Y-99140503D01*
X213108245Y-99021433D01*
X212971856Y-98919398D01*
X212893691Y-98847754D01*
X212882478Y-98823183D01*
X212862227Y-98789842D01*
X212801200Y-98780600D01*
X212736098Y-98787447D01*
G36*
X215143443Y-99009564D02*
G01*
X215165626Y-99080680D01*
X215244451Y-99165989D01*
X215350901Y-99262325D01*
X215231751Y-99295799D01*
X215167711Y-99318165D01*
X215191496Y-99329486D01*
X215286556Y-99334336D01*
X215460511Y-99339400D01*
X215341389Y-99212600D01*
X215268688Y-99121181D01*
X215246494Y-99063156D01*
X215248729Y-99059338D01*
X215302699Y-99068797D01*
X215424917Y-99116386D01*
X215593581Y-99193187D01*
X215682895Y-99236937D01*
X215868867Y-99327305D01*
X216021198Y-99396288D01*
X216116737Y-99433623D01*
X216134999Y-99437366D01*
X216111898Y-99415215D01*
X216014305Y-99358322D01*
X215859203Y-99276169D01*
X215725619Y-99208766D01*
X215526138Y-99113044D01*
X215356690Y-99037577D01*
X215240318Y-98992320D01*
X215204919Y-98983800D01*
X215143443Y-99009564D01*
G37*
X215143443Y-99009564D02*
X215165626Y-99080680D01*
X215244451Y-99165989D01*
X215350901Y-99262325D01*
X215231751Y-99295799D01*
X215167711Y-99318165D01*
X215191496Y-99329486D01*
X215286556Y-99334336D01*
X215460511Y-99339400D01*
X215341389Y-99212600D01*
X215268688Y-99121181D01*
X215246494Y-99063156D01*
X215248729Y-99059338D01*
X215302699Y-99068797D01*
X215424917Y-99116386D01*
X215593581Y-99193187D01*
X215682895Y-99236937D01*
X215868867Y-99327305D01*
X216021198Y-99396288D01*
X216116737Y-99433623D01*
X216134999Y-99437366D01*
X216111898Y-99415215D01*
X216014305Y-99358322D01*
X215859203Y-99276169D01*
X215725619Y-99208766D01*
X215526138Y-99113044D01*
X215356690Y-99037577D01*
X215240318Y-98992320D01*
X215204919Y-98983800D01*
X215143443Y-99009564D01*
G36*
X216609534Y-98145895D02*
G01*
X216540516Y-98273628D01*
X216497771Y-98427694D01*
X216470337Y-98618966D01*
X216459575Y-98815537D01*
X216466848Y-98985498D01*
X216493517Y-99096942D01*
X216504670Y-99113340D01*
X216552072Y-99201155D01*
X216569361Y-99263200D01*
X216596800Y-99323816D01*
X216622642Y-99310115D01*
X216638582Y-99225378D01*
X216620162Y-99121246D01*
X216579362Y-99046138D01*
X216554476Y-99034600D01*
X216524820Y-98989343D01*
X216511243Y-98872811D01*
X216512621Y-98713865D01*
X216527831Y-98541361D01*
X216555750Y-98384160D01*
X216583208Y-98296368D01*
X216671718Y-98160600D01*
X216778735Y-98123859D01*
X216898595Y-98186488D01*
X216974833Y-98272600D01*
X217087507Y-98425000D01*
X217700254Y-98422378D01*
X217981994Y-98418237D01*
X218190285Y-98406099D01*
X218353186Y-98382192D01*
X218498760Y-98342740D01*
X218617800Y-98298959D01*
X218764470Y-98237579D01*
X218855714Y-98192894D01*
X218871800Y-98174605D01*
X218799278Y-98189572D01*
X218666105Y-98231885D01*
X218553756Y-98272625D01*
X218397375Y-98322108D01*
X218224046Y-98353274D01*
X218005717Y-98369509D01*
X217714332Y-98374199D01*
X217712360Y-98374200D01*
X217463532Y-98373367D01*
X217294382Y-98367775D01*
X217182989Y-98352786D01*
X217107430Y-98323760D01*
X217045785Y-98276059D01*
X216992200Y-98221800D01*
X216840602Y-98098373D01*
X216714028Y-98072959D01*
X216609534Y-98145895D01*
G37*
X216609534Y-98145895D02*
X216540516Y-98273628D01*
X216497771Y-98427694D01*
X216470337Y-98618966D01*
X216459575Y-98815537D01*
X216466848Y-98985498D01*
X216493517Y-99096942D01*
X216504670Y-99113340D01*
X216552072Y-99201155D01*
X216569361Y-99263200D01*
X216596800Y-99323816D01*
X216622642Y-99310115D01*
X216638582Y-99225378D01*
X216620162Y-99121246D01*
X216579362Y-99046138D01*
X216554476Y-99034600D01*
X216524820Y-98989343D01*
X216511243Y-98872811D01*
X216512621Y-98713865D01*
X216527831Y-98541361D01*
X216555750Y-98384160D01*
X216583208Y-98296368D01*
X216671718Y-98160600D01*
X216778735Y-98123859D01*
X216898595Y-98186488D01*
X216974833Y-98272600D01*
X217087507Y-98425000D01*
X217700254Y-98422378D01*
X217981994Y-98418237D01*
X218190285Y-98406099D01*
X218353186Y-98382192D01*
X218498760Y-98342740D01*
X218617800Y-98298959D01*
X218764470Y-98237579D01*
X218855714Y-98192894D01*
X218871800Y-98174605D01*
X218799278Y-98189572D01*
X218666105Y-98231885D01*
X218553756Y-98272625D01*
X218397375Y-98322108D01*
X218224046Y-98353274D01*
X218005717Y-98369509D01*
X217714332Y-98374199D01*
X217712360Y-98374200D01*
X217463532Y-98373367D01*
X217294382Y-98367775D01*
X217182989Y-98352786D01*
X217107430Y-98323760D01*
X217045785Y-98276059D01*
X216992200Y-98221800D01*
X216840602Y-98098373D01*
X216714028Y-98072959D01*
X216609534Y-98145895D01*
G36*
X220021744Y-96505003D02*
G01*
X220020776Y-96527348D01*
X220037582Y-96694555D01*
X220091562Y-96923727D01*
X220173846Y-97186262D01*
X220275563Y-97453560D01*
X220376963Y-97675700D01*
X220454036Y-97832977D01*
X220486929Y-97920618D01*
X220478940Y-97958809D01*
X220433369Y-97967736D01*
X220424704Y-97967800D01*
X220327751Y-97923243D01*
X220258872Y-97829996D01*
X220169892Y-97708941D01*
X220035168Y-97589535D01*
X219889836Y-97498090D01*
X219769031Y-97460915D01*
X219765988Y-97460915D01*
X219758076Y-97479198D01*
X219827834Y-97524634D01*
X219897132Y-97558523D01*
X220070839Y-97668916D01*
X220187148Y-97804936D01*
X220189282Y-97808982D01*
X220268901Y-97962949D01*
X219951351Y-97980986D01*
X219807225Y-97989782D01*
X219748165Y-97995931D01*
X219778606Y-98000628D01*
X219902980Y-98005070D01*
X220054532Y-98008811D01*
X220370309Y-98030903D01*
X220621166Y-98087760D01*
X220840954Y-98190348D01*
X221034319Y-98326186D01*
X221271244Y-98550869D01*
X221421641Y-98787735D01*
X221488337Y-98995003D01*
X221516737Y-99125305D01*
X221528191Y-99159581D01*
X221526848Y-99101191D01*
X221521544Y-99021900D01*
X221520988Y-98895782D01*
X221552020Y-98841674D01*
X221613898Y-98831400D01*
X221734105Y-98858395D01*
X221846597Y-98923585D01*
X221918972Y-99003273D01*
X221926754Y-99060198D01*
X221930417Y-99098515D01*
X221998509Y-99098081D01*
X222088441Y-99077333D01*
X222250467Y-99032066D01*
X222323424Y-99004652D01*
X222303931Y-98997063D01*
X222206345Y-99008542D01*
X222057170Y-99007027D01*
X221923976Y-98938637D01*
X221884947Y-98907441D01*
X221756897Y-98823656D01*
X221637015Y-98781715D01*
X221620656Y-98780600D01*
X221529561Y-98743692D01*
X221420146Y-98655373D01*
X221327059Y-98549249D01*
X221284950Y-98458928D01*
X221284800Y-98454844D01*
X221330041Y-98422061D01*
X221444739Y-98385419D01*
X221597356Y-98352136D01*
X221756354Y-98329430D01*
X221857853Y-98323683D01*
X222002008Y-98305611D01*
X222117677Y-98236567D01*
X222203292Y-98148701D01*
X222340231Y-98024966D01*
X222492445Y-97931873D01*
X222531940Y-97916161D01*
X222647284Y-97859681D01*
X222705499Y-97795132D01*
X222707200Y-97784273D01*
X222748131Y-97654347D01*
X222856386Y-97504270D01*
X223010162Y-97362664D01*
X223050313Y-97333870D01*
X223191959Y-97237619D01*
X223014401Y-97237619D01*
X222955501Y-97329858D01*
X222866070Y-97433264D01*
X222754260Y-97566190D01*
X222678196Y-97678862D01*
X222656400Y-97735687D01*
X222613631Y-97798500D01*
X222504940Y-97873561D01*
X222432085Y-97909871D01*
X222277177Y-97997955D01*
X222152364Y-98102375D01*
X222121443Y-98140848D01*
X222038398Y-98231418D01*
X221922479Y-98269699D01*
X221825058Y-98275467D01*
X221637515Y-98294950D01*
X221456154Y-98338822D01*
X221437200Y-98345606D01*
X221297067Y-98397056D01*
X221220306Y-98413744D01*
X221175043Y-98396261D01*
X221134422Y-98351235D01*
X221110245Y-98296483D01*
X221155367Y-98248784D01*
X221256506Y-98200883D01*
X221441563Y-98088194D01*
X221651453Y-97901830D01*
X221868427Y-97660365D01*
X222074736Y-97382369D01*
X222149262Y-97266779D01*
X222366718Y-96914379D01*
X222643718Y-97060089D01*
X222803321Y-97137732D01*
X222934936Y-97190589D01*
X222998229Y-97205800D01*
X223014401Y-97237619D01*
X223191959Y-97237619D01*
X223224288Y-97215651D01*
X222953044Y-97136253D01*
X222735226Y-97057703D01*
X222571496Y-96969882D01*
X222471595Y-96882353D01*
X222445268Y-96804682D01*
X222502257Y-96746434D01*
X222542100Y-96732817D01*
X222602102Y-96713528D01*
X222564202Y-96705089D01*
X222545099Y-96703692D01*
X222453670Y-96724831D01*
X222427800Y-96748600D01*
X222365086Y-96800902D01*
X222318144Y-96769388D01*
X222312940Y-96673937D01*
X222315507Y-96589899D01*
X222288678Y-96578291D01*
X222259946Y-96645281D01*
X222263572Y-96729154D01*
X222262310Y-96822984D01*
X222199027Y-96850184D01*
X222196389Y-96850200D01*
X222105919Y-96824549D01*
X222080244Y-96798129D01*
X222064169Y-96786122D01*
X222067077Y-96809428D01*
X222121004Y-96869651D01*
X222194164Y-96899811D01*
X222245699Y-96916771D01*
X222264120Y-96948056D01*
X222243673Y-97011134D01*
X222178605Y-97123471D01*
X222063163Y-97302536D01*
X222059848Y-97307612D01*
X221874133Y-97563920D01*
X221670929Y-97797581D01*
X221467475Y-97992038D01*
X221281011Y-98130732D01*
X221135065Y-98195814D01*
X220952625Y-98186485D01*
X220763982Y-98090156D01*
X220585506Y-97918887D01*
X220433565Y-97684741D01*
X220428872Y-97675442D01*
X220235574Y-97225769D01*
X220101140Y-96777116D01*
X220067267Y-96608219D01*
X220043310Y-96480195D01*
X220029165Y-96447579D01*
X220021744Y-96505003D01*
G37*
X220021744Y-96505003D02*
X220020776Y-96527348D01*
X220037582Y-96694555D01*
X220091562Y-96923727D01*
X220173846Y-97186262D01*
X220275563Y-97453560D01*
X220376963Y-97675700D01*
X220454036Y-97832977D01*
X220486929Y-97920618D01*
X220478940Y-97958809D01*
X220433369Y-97967736D01*
X220424704Y-97967800D01*
X220327751Y-97923243D01*
X220258872Y-97829996D01*
X220169892Y-97708941D01*
X220035168Y-97589535D01*
X219889836Y-97498090D01*
X219769031Y-97460915D01*
X219765988Y-97460915D01*
X219758076Y-97479198D01*
X219827834Y-97524634D01*
X219897132Y-97558523D01*
X220070839Y-97668916D01*
X220187148Y-97804936D01*
X220189282Y-97808982D01*
X220268901Y-97962949D01*
X219951351Y-97980986D01*
X219807225Y-97989782D01*
X219748165Y-97995931D01*
X219778606Y-98000628D01*
X219902980Y-98005070D01*
X220054532Y-98008811D01*
X220370309Y-98030903D01*
X220621166Y-98087760D01*
X220840954Y-98190348D01*
X221034319Y-98326186D01*
X221271244Y-98550869D01*
X221421641Y-98787735D01*
X221488337Y-98995003D01*
X221516737Y-99125305D01*
X221528191Y-99159581D01*
X221526848Y-99101191D01*
X221521544Y-99021900D01*
X221520988Y-98895782D01*
X221552020Y-98841674D01*
X221613898Y-98831400D01*
X221734105Y-98858395D01*
X221846597Y-98923585D01*
X221918972Y-99003273D01*
X221926754Y-99060198D01*
X221930417Y-99098515D01*
X221998509Y-99098081D01*
X222088441Y-99077333D01*
X222250467Y-99032066D01*
X222323424Y-99004652D01*
X222303931Y-98997063D01*
X222206345Y-99008542D01*
X222057170Y-99007027D01*
X221923976Y-98938637D01*
X221884947Y-98907441D01*
X221756897Y-98823656D01*
X221637015Y-98781715D01*
X221620656Y-98780600D01*
X221529561Y-98743692D01*
X221420146Y-98655373D01*
X221327059Y-98549249D01*
X221284950Y-98458928D01*
X221284800Y-98454844D01*
X221330041Y-98422061D01*
X221444739Y-98385419D01*
X221597356Y-98352136D01*
X221756354Y-98329430D01*
X221857853Y-98323683D01*
X222002008Y-98305611D01*
X222117677Y-98236567D01*
X222203292Y-98148701D01*
X222340231Y-98024966D01*
X222492445Y-97931873D01*
X222531940Y-97916161D01*
X222647284Y-97859681D01*
X222705499Y-97795132D01*
X222707200Y-97784273D01*
X222748131Y-97654347D01*
X222856386Y-97504270D01*
X223010162Y-97362664D01*
X223050313Y-97333870D01*
X223191959Y-97237619D01*
X223014401Y-97237619D01*
X222955501Y-97329858D01*
X222866070Y-97433264D01*
X222754260Y-97566190D01*
X222678196Y-97678862D01*
X222656400Y-97735687D01*
X222613631Y-97798500D01*
X222504940Y-97873561D01*
X222432085Y-97909871D01*
X222277177Y-97997955D01*
X222152364Y-98102375D01*
X222121443Y-98140848D01*
X222038398Y-98231418D01*
X221922479Y-98269699D01*
X221825058Y-98275467D01*
X221637515Y-98294950D01*
X221456154Y-98338822D01*
X221437200Y-98345606D01*
X221297067Y-98397056D01*
X221220306Y-98413744D01*
X221175043Y-98396261D01*
X221134422Y-98351235D01*
X221110245Y-98296483D01*
X221155367Y-98248784D01*
X221256506Y-98200883D01*
X221441563Y-98088194D01*
X221651453Y-97901830D01*
X221868427Y-97660365D01*
X222074736Y-97382369D01*
X222149262Y-97266779D01*
X222366718Y-96914379D01*
X222643718Y-97060089D01*
X222803321Y-97137732D01*
X222934936Y-97190589D01*
X222998229Y-97205800D01*
X223014401Y-97237619D01*
X223191959Y-97237619D01*
X223224288Y-97215651D01*
X222953044Y-97136253D01*
X222735226Y-97057703D01*
X222571496Y-96969882D01*
X222471595Y-96882353D01*
X222445268Y-96804682D01*
X222502257Y-96746434D01*
X222542100Y-96732817D01*
X222602102Y-96713528D01*
X222564202Y-96705089D01*
X222545099Y-96703692D01*
X222453670Y-96724831D01*
X222427800Y-96748600D01*
X222365086Y-96800902D01*
X222318144Y-96769388D01*
X222312940Y-96673937D01*
X222315507Y-96589899D01*
X222288678Y-96578291D01*
X222259946Y-96645281D01*
X222263572Y-96729154D01*
X222262310Y-96822984D01*
X222199027Y-96850184D01*
X222196389Y-96850200D01*
X222105919Y-96824549D01*
X222080244Y-96798129D01*
X222064169Y-96786122D01*
X222067077Y-96809428D01*
X222121004Y-96869651D01*
X222194164Y-96899811D01*
X222245699Y-96916771D01*
X222264120Y-96948056D01*
X222243673Y-97011134D01*
X222178605Y-97123471D01*
X222063163Y-97302536D01*
X222059848Y-97307612D01*
X221874133Y-97563920D01*
X221670929Y-97797581D01*
X221467475Y-97992038D01*
X221281011Y-98130732D01*
X221135065Y-98195814D01*
X220952625Y-98186485D01*
X220763982Y-98090156D01*
X220585506Y-97918887D01*
X220433565Y-97684741D01*
X220428872Y-97675442D01*
X220235574Y-97225769D01*
X220101140Y-96777116D01*
X220067267Y-96608219D01*
X220043310Y-96480195D01*
X220029165Y-96447579D01*
X220021744Y-96505003D01*
G36*
X214179274Y-98551996D02*
G01*
X214172800Y-98572566D01*
X214217060Y-98595864D01*
X214327147Y-98596913D01*
X214365392Y-98592700D01*
X214493597Y-98592520D01*
X214673626Y-98622788D01*
X214919892Y-98686618D01*
X215210064Y-98775334D01*
X215457338Y-98852217D01*
X215674453Y-98915690D01*
X215840761Y-98960006D01*
X215935613Y-98979417D01*
X215944572Y-98979789D01*
X215990472Y-98968889D01*
X215976200Y-98959119D01*
X215465296Y-98796843D01*
X215036000Y-98671703D01*
X214690531Y-98584172D01*
X214431109Y-98534727D01*
X214259950Y-98523843D01*
X214179274Y-98551996D01*
G37*
X214179274Y-98551996D02*
X214172800Y-98572566D01*
X214217060Y-98595864D01*
X214327147Y-98596913D01*
X214365392Y-98592700D01*
X214493597Y-98592520D01*
X214673626Y-98622788D01*
X214919892Y-98686618D01*
X215210064Y-98775334D01*
X215457338Y-98852217D01*
X215674453Y-98915690D01*
X215840761Y-98960006D01*
X215935613Y-98979417D01*
X215944572Y-98979789D01*
X215990472Y-98968889D01*
X215976200Y-98959119D01*
X215465296Y-98796843D01*
X215036000Y-98671703D01*
X214690531Y-98584172D01*
X214431109Y-98534727D01*
X214259950Y-98523843D01*
X214179274Y-98551996D01*
G36*
X214293792Y-98642675D02*
G01*
X214317308Y-98681168D01*
X214405346Y-98749874D01*
X214460376Y-98785652D01*
X214575478Y-98859415D01*
X214612004Y-98899067D01*
X214578090Y-98923442D01*
X214526548Y-98938783D01*
X214463760Y-98961010D01*
X214486915Y-98972956D01*
X214602060Y-98978736D01*
X214715340Y-98973118D01*
X214760134Y-98952980D01*
X214754460Y-98942897D01*
X214621660Y-98837974D01*
X214484912Y-98741651D01*
X214369629Y-98670489D01*
X214301224Y-98641051D01*
X214293792Y-98642675D01*
G37*
X214293792Y-98642675D02*
X214317308Y-98681168D01*
X214405346Y-98749874D01*
X214460376Y-98785652D01*
X214575478Y-98859415D01*
X214612004Y-98899067D01*
X214578090Y-98923442D01*
X214526548Y-98938783D01*
X214463760Y-98961010D01*
X214486915Y-98972956D01*
X214602060Y-98978736D01*
X214715340Y-98973118D01*
X214760134Y-98952980D01*
X214754460Y-98942897D01*
X214621660Y-98837974D01*
X214484912Y-98741651D01*
X214369629Y-98670489D01*
X214301224Y-98641051D01*
X214293792Y-98642675D01*
G36*
X214159134Y-98899678D02*
G01*
X214157445Y-98916355D01*
X214236970Y-98923166D01*
X214249000Y-98923096D01*
X214327789Y-98915771D01*
X214320268Y-98900309D01*
X214311534Y-98897796D01*
X214200876Y-98890359D01*
X214159134Y-98899678D01*
G37*
X214159134Y-98899678D02*
X214157445Y-98916355D01*
X214236970Y-98923166D01*
X214249000Y-98923096D01*
X214327789Y-98915771D01*
X214320268Y-98900309D01*
X214311534Y-98897796D01*
X214200876Y-98890359D01*
X214159134Y-98899678D01*
G36*
X213854334Y-98848878D02*
G01*
X213852645Y-98865555D01*
X213932170Y-98872366D01*
X213944200Y-98872296D01*
X214022989Y-98864971D01*
X214015468Y-98849509D01*
X214006734Y-98846996D01*
X213896076Y-98839559D01*
X213854334Y-98848878D01*
G37*
X213854334Y-98848878D02*
X213852645Y-98865555D01*
X213932170Y-98872366D01*
X213944200Y-98872296D01*
X214022989Y-98864971D01*
X214015468Y-98849509D01*
X214006734Y-98846996D01*
X213896076Y-98839559D01*
X213854334Y-98848878D01*
G36*
X213397402Y-98795640D02*
G01*
X213376960Y-98807538D01*
X213443518Y-98815207D01*
X213537800Y-98816870D01*
X213653062Y-98813068D01*
X213686775Y-98803966D01*
X213651402Y-98794946D01*
X213501167Y-98786589D01*
X213397402Y-98795640D01*
G37*
X213397402Y-98795640D02*
X213376960Y-98807538D01*
X213443518Y-98815207D01*
X213537800Y-98816870D01*
X213653062Y-98813068D01*
X213686775Y-98803966D01*
X213651402Y-98794946D01*
X213501167Y-98786589D01*
X213397402Y-98795640D01*
G36*
X213072134Y-98746733D02*
G01*
X213079107Y-98776933D01*
X213106000Y-98780600D01*
X213147815Y-98762013D01*
X213139867Y-98746733D01*
X213079579Y-98740653D01*
X213072134Y-98746733D01*
G37*
X213072134Y-98746733D02*
X213079107Y-98776933D01*
X213106000Y-98780600D01*
X213147815Y-98762013D01*
X213139867Y-98746733D01*
X213079579Y-98740653D01*
X213072134Y-98746733D01*
G36*
X223108009Y-98542830D02*
G01*
X222969604Y-98578290D01*
X222823492Y-98625092D01*
X222712683Y-98670134D01*
X222684340Y-98687563D01*
X222655905Y-98715290D01*
X222665943Y-98722455D01*
X222731126Y-98705609D01*
X222868124Y-98661307D01*
X222961200Y-98630307D01*
X223102001Y-98580226D01*
X223185528Y-98544358D01*
X223195694Y-98531811D01*
X223108009Y-98542830D01*
G37*
X223108009Y-98542830D02*
X222969604Y-98578290D01*
X222823492Y-98625092D01*
X222712683Y-98670134D01*
X222684340Y-98687563D01*
X222655905Y-98715290D01*
X222665943Y-98722455D01*
X222731126Y-98705609D01*
X222868124Y-98661307D01*
X222961200Y-98630307D01*
X223102001Y-98580226D01*
X223185528Y-98544358D01*
X223195694Y-98531811D01*
X223108009Y-98542830D01*
G36*
X223576205Y-98399431D02*
G01*
X223439787Y-98442366D01*
X223418400Y-98450400D01*
X223324387Y-98493026D01*
X223303933Y-98516972D01*
X223316800Y-98518870D01*
X223412996Y-98501368D01*
X223549414Y-98458433D01*
X223570800Y-98450400D01*
X223664814Y-98407773D01*
X223685268Y-98383827D01*
X223672400Y-98381929D01*
X223576205Y-98399431D01*
G37*
X223576205Y-98399431D02*
X223439787Y-98442366D01*
X223418400Y-98450400D01*
X223324387Y-98493026D01*
X223303933Y-98516972D01*
X223316800Y-98518870D01*
X223412996Y-98501368D01*
X223549414Y-98458433D01*
X223570800Y-98450400D01*
X223664814Y-98407773D01*
X223685268Y-98383827D01*
X223672400Y-98381929D01*
X223576205Y-98399431D01*
G36*
X216671140Y-98246163D02*
G01*
X216662000Y-98267844D01*
X216702456Y-98293975D01*
X216763600Y-98287319D01*
X216845837Y-98290181D01*
X216865200Y-98348800D01*
X216837104Y-98412706D01*
X216763530Y-98410262D01*
X216694778Y-98406916D01*
X216690328Y-98429737D01*
X216765404Y-98473930D01*
X216855039Y-98452607D01*
X216896696Y-98402032D01*
X216903343Y-98304497D01*
X216892104Y-98275032D01*
X216827802Y-98233596D01*
X216737706Y-98223460D01*
X216671140Y-98246163D01*
G37*
X216671140Y-98246163D02*
X216662000Y-98267844D01*
X216702456Y-98293975D01*
X216763600Y-98287319D01*
X216845837Y-98290181D01*
X216865200Y-98348800D01*
X216837104Y-98412706D01*
X216763530Y-98410262D01*
X216694778Y-98406916D01*
X216690328Y-98429737D01*
X216765404Y-98473930D01*
X216855039Y-98452607D01*
X216896696Y-98402032D01*
X216903343Y-98304497D01*
X216892104Y-98275032D01*
X216827802Y-98233596D01*
X216737706Y-98223460D01*
X216671140Y-98246163D01*
G36*
X223787759Y-98343508D02*
G01*
X223802909Y-98366597D01*
X223854434Y-98370189D01*
X223908639Y-98357783D01*
X223885125Y-98339497D01*
X223805731Y-98333441D01*
X223787759Y-98343508D01*
G37*
X223787759Y-98343508D02*
X223802909Y-98366597D01*
X223854434Y-98370189D01*
X223908639Y-98357783D01*
X223885125Y-98339497D01*
X223805731Y-98333441D01*
X223787759Y-98343508D01*
G36*
X219331581Y-98043225D02*
G01*
X219157428Y-98083513D01*
X219125800Y-98093377D01*
X219012890Y-98135296D01*
X218992225Y-98154739D01*
X219056973Y-98151728D01*
X219200301Y-98126282D01*
X219354400Y-98092684D01*
X219495415Y-98056435D01*
X219537738Y-98034969D01*
X219483063Y-98027415D01*
X219481400Y-98027402D01*
X219331581Y-98043225D01*
G37*
X219331581Y-98043225D02*
X219157428Y-98083513D01*
X219125800Y-98093377D01*
X219012890Y-98135296D01*
X218992225Y-98154739D01*
X219056973Y-98151728D01*
X219200301Y-98126282D01*
X219354400Y-98092684D01*
X219495415Y-98056435D01*
X219537738Y-98034969D01*
X219483063Y-98027415D01*
X219481400Y-98027402D01*
X219331581Y-98043225D01*
G36*
X217478351Y-97074487D02*
G01*
X217497770Y-97143753D01*
X217544612Y-97246422D01*
X217589914Y-97362207D01*
X217645158Y-97541429D01*
X217699384Y-97748098D01*
X217706300Y-97777300D01*
X217763375Y-97997875D01*
X217811860Y-98123804D01*
X217856622Y-98161147D01*
X217902524Y-98115961D01*
X217930610Y-98056700D01*
X218036041Y-97795196D01*
X218121872Y-97569853D01*
X218182465Y-97396467D01*
X218212185Y-97290836D01*
X218212606Y-97266272D01*
X218181656Y-97294197D01*
X218129108Y-97399349D01*
X218063569Y-97561950D01*
X217993648Y-97762220D01*
X217984682Y-97790000D01*
X217922875Y-97958857D01*
X217873280Y-98030084D01*
X217830130Y-98006046D01*
X217787661Y-97889110D01*
X217783299Y-97872661D01*
X217714830Y-97613499D01*
X217663429Y-97431895D01*
X217622259Y-97306662D01*
X217584481Y-97216610D01*
X217551726Y-97155000D01*
X217496681Y-97073813D01*
X217478351Y-97074487D01*
G37*
X217478351Y-97074487D02*
X217497770Y-97143753D01*
X217544612Y-97246422D01*
X217589914Y-97362207D01*
X217645158Y-97541429D01*
X217699384Y-97748098D01*
X217706300Y-97777300D01*
X217763375Y-97997875D01*
X217811860Y-98123804D01*
X217856622Y-98161147D01*
X217902524Y-98115961D01*
X217930610Y-98056700D01*
X218036041Y-97795196D01*
X218121872Y-97569853D01*
X218182465Y-97396467D01*
X218212185Y-97290836D01*
X218212606Y-97266272D01*
X218181656Y-97294197D01*
X218129108Y-97399349D01*
X218063569Y-97561950D01*
X217993648Y-97762220D01*
X217984682Y-97790000D01*
X217922875Y-97958857D01*
X217873280Y-98030084D01*
X217830130Y-98006046D01*
X217787661Y-97889110D01*
X217783299Y-97872661D01*
X217714830Y-97613499D01*
X217663429Y-97431895D01*
X217622259Y-97306662D01*
X217584481Y-97216610D01*
X217551726Y-97155000D01*
X217496681Y-97073813D01*
X217478351Y-97074487D01*
G36*
X217483374Y-97993639D02*
G01*
X217474800Y-98015601D01*
X217508413Y-98081937D01*
X217573566Y-98097823D01*
X217594715Y-98084952D01*
X217625618Y-98011210D01*
X217571245Y-97969274D01*
X217551000Y-97967800D01*
X217483374Y-97993639D01*
G37*
X217483374Y-97993639D02*
X217474800Y-98015601D01*
X217508413Y-98081937D01*
X217573566Y-98097823D01*
X217594715Y-98084952D01*
X217625618Y-98011210D01*
X217571245Y-97969274D01*
X217551000Y-97967800D01*
X217483374Y-97993639D01*
G36*
X218091711Y-97953916D02*
G01*
X218084400Y-97990201D01*
X218110923Y-98059707D01*
X218135200Y-98069400D01*
X218184546Y-98032939D01*
X218186000Y-98021598D01*
X218149074Y-97952797D01*
X218135200Y-97942400D01*
X218091711Y-97953916D01*
G37*
X218091711Y-97953916D02*
X218084400Y-97990201D01*
X218110923Y-98059707D01*
X218135200Y-98069400D01*
X218184546Y-98032939D01*
X218186000Y-98021598D01*
X218149074Y-97952797D01*
X218135200Y-97942400D01*
X218091711Y-97953916D01*
G36*
X216258294Y-97341033D02*
G01*
X216276590Y-97384743D01*
X216349997Y-97469043D01*
X216380926Y-97499439D01*
X216526264Y-97637600D01*
X216403632Y-97479194D01*
X216321335Y-97384018D01*
X216266077Y-97340400D01*
X216258294Y-97341033D01*
G37*
X216258294Y-97341033D02*
X216276590Y-97384743D01*
X216349997Y-97469043D01*
X216380926Y-97499439D01*
X216526264Y-97637600D01*
X216403632Y-97479194D01*
X216321335Y-97384018D01*
X216266077Y-97340400D01*
X216258294Y-97341033D01*
G36*
X214559345Y-96816602D02*
G01*
X214626171Y-96919194D01*
X214724408Y-97055979D01*
X214837307Y-97204971D01*
X214948118Y-97344187D01*
X215040091Y-97451643D01*
X215096476Y-97505354D01*
X215102676Y-97507796D01*
X215091814Y-97472118D01*
X215029255Y-97373905D01*
X214926403Y-97230254D01*
X214851422Y-97131088D01*
X214723715Y-96969383D01*
X214620152Y-96846132D01*
X214555069Y-96777986D01*
X214540682Y-96770185D01*
X214559345Y-96816602D01*
G37*
X214559345Y-96816602D02*
X214626171Y-96919194D01*
X214724408Y-97055979D01*
X214837307Y-97204971D01*
X214948118Y-97344187D01*
X215040091Y-97451643D01*
X215096476Y-97505354D01*
X215102676Y-97507796D01*
X215091814Y-97472118D01*
X215029255Y-97373905D01*
X214926403Y-97230254D01*
X214851422Y-97131088D01*
X214723715Y-96969383D01*
X214620152Y-96846132D01*
X214555069Y-96777986D01*
X214540682Y-96770185D01*
X214559345Y-96816602D01*
G36*
X219116460Y-97020407D02*
G01*
X219140307Y-97054548D01*
X219232912Y-97106524D01*
X219270902Y-97123276D01*
X219427742Y-97225999D01*
X219485100Y-97329452D01*
X219525925Y-97426158D01*
X219567784Y-97459800D01*
X219577508Y-97422027D01*
X219539989Y-97328024D01*
X219521614Y-97294700D01*
X219434011Y-97183752D01*
X219320166Y-97086890D01*
X219208668Y-97023472D01*
X219128109Y-97012853D01*
X219116460Y-97020407D01*
G37*
X219116460Y-97020407D02*
X219140307Y-97054548D01*
X219232912Y-97106524D01*
X219270902Y-97123276D01*
X219427742Y-97225999D01*
X219485100Y-97329452D01*
X219525925Y-97426158D01*
X219567784Y-97459800D01*
X219577508Y-97422027D01*
X219539989Y-97328024D01*
X219521614Y-97294700D01*
X219434011Y-97183752D01*
X219320166Y-97086890D01*
X219208668Y-97023472D01*
X219128109Y-97012853D01*
X219116460Y-97020407D01*
G36*
X219913200Y-97186613D02*
G01*
X219797322Y-97226826D01*
X219737940Y-97262309D01*
X219707443Y-97299821D01*
X219748613Y-97292352D01*
X219869726Y-97238083D01*
X219887800Y-97229412D01*
X219977513Y-97183636D01*
X219977748Y-97173045D01*
X219913200Y-97186613D01*
G37*
X219913200Y-97186613D02*
X219797322Y-97226826D01*
X219737940Y-97262309D01*
X219707443Y-97299821D01*
X219748613Y-97292352D01*
X219869726Y-97238083D01*
X219887800Y-97229412D01*
X219977513Y-97183636D01*
X219977748Y-97173045D01*
X219913200Y-97186613D01*
G36*
X216204800Y-97231200D02*
G01*
X216230200Y-97256600D01*
X216255600Y-97231200D01*
X216230200Y-97205800D01*
X216204800Y-97231200D01*
G37*
X216204800Y-97231200D02*
X216230200Y-97256600D01*
X216255600Y-97231200D01*
X216230200Y-97205800D01*
X216204800Y-97231200D01*
G36*
X216406651Y-95926555D02*
G01*
X216306428Y-96026415D01*
X216229583Y-96149353D01*
X216204800Y-96244452D01*
X216179815Y-96338831D01*
X216154000Y-96367600D01*
X216109281Y-96448056D01*
X216109540Y-96579025D01*
X216150598Y-96722105D01*
X216202151Y-96809893D01*
X216272021Y-96951337D01*
X216272426Y-97045344D01*
X216259611Y-97130920D01*
X216269151Y-97155000D01*
X216300365Y-97112845D01*
X216322456Y-97048288D01*
X216361919Y-96975814D01*
X216397097Y-96970461D01*
X216464224Y-96969183D01*
X216544258Y-96924424D01*
X216593476Y-96870810D01*
X216545331Y-96870810D01*
X216509600Y-96901000D01*
X216428543Y-96946689D01*
X216417743Y-96929481D01*
X216433400Y-96901000D01*
X216507590Y-96852700D01*
X216525299Y-96850977D01*
X216545331Y-96870810D01*
X216593476Y-96870810D01*
X216599648Y-96864087D01*
X216598635Y-96820701D01*
X216529620Y-96811277D01*
X216437565Y-96839059D01*
X216341342Y-96867245D01*
X216273738Y-96827102D01*
X216231011Y-96768107D01*
X216165574Y-96622036D01*
X216167975Y-96505882D01*
X216233471Y-96440589D01*
X216306400Y-96435177D01*
X216393957Y-96443067D01*
X216388333Y-96419894D01*
X216332957Y-96376617D01*
X216265728Y-96303851D01*
X216266331Y-96210895D01*
X216283000Y-96157720D01*
X216362576Y-96029698D01*
X216459644Y-95950328D01*
X216533043Y-95903944D01*
X216511258Y-95886109D01*
X216500588Y-95885748D01*
X216406651Y-95926555D01*
G37*
X216406651Y-95926555D02*
X216306428Y-96026415D01*
X216229583Y-96149353D01*
X216204800Y-96244452D01*
X216179815Y-96338831D01*
X216154000Y-96367600D01*
X216109281Y-96448056D01*
X216109540Y-96579025D01*
X216150598Y-96722105D01*
X216202151Y-96809893D01*
X216272021Y-96951337D01*
X216272426Y-97045344D01*
X216259611Y-97130920D01*
X216269151Y-97155000D01*
X216300365Y-97112845D01*
X216322456Y-97048288D01*
X216361919Y-96975814D01*
X216397097Y-96970461D01*
X216464224Y-96969183D01*
X216544258Y-96924424D01*
X216593476Y-96870810D01*
X216545331Y-96870810D01*
X216509600Y-96901000D01*
X216428543Y-96946689D01*
X216417743Y-96929481D01*
X216433400Y-96901000D01*
X216507590Y-96852700D01*
X216525299Y-96850977D01*
X216545331Y-96870810D01*
X216593476Y-96870810D01*
X216599648Y-96864087D01*
X216598635Y-96820701D01*
X216529620Y-96811277D01*
X216437565Y-96839059D01*
X216341342Y-96867245D01*
X216273738Y-96827102D01*
X216231011Y-96768107D01*
X216165574Y-96622036D01*
X216167975Y-96505882D01*
X216233471Y-96440589D01*
X216306400Y-96435177D01*
X216393957Y-96443067D01*
X216388333Y-96419894D01*
X216332957Y-96376617D01*
X216265728Y-96303851D01*
X216266331Y-96210895D01*
X216283000Y-96157720D01*
X216362576Y-96029698D01*
X216459644Y-95950328D01*
X216533043Y-95903944D01*
X216511258Y-95886109D01*
X216500588Y-95885748D01*
X216406651Y-95926555D01*
G36*
X221749912Y-96467496D02*
G01*
X221622808Y-96569117D01*
X221431320Y-96732317D01*
X221342966Y-96809193D01*
X221226625Y-96916100D01*
X221183830Y-96966879D01*
X221206052Y-96965288D01*
X221284763Y-96915083D01*
X221411436Y-96820024D01*
X221522586Y-96730045D01*
X221669601Y-96603288D01*
X221780731Y-96498693D01*
X221836851Y-96434535D01*
X221840086Y-96426584D01*
X221819912Y-96421852D01*
X221749912Y-96467496D01*
G37*
X221749912Y-96467496D02*
X221622808Y-96569117D01*
X221431320Y-96732317D01*
X221342966Y-96809193D01*
X221226625Y-96916100D01*
X221183830Y-96966879D01*
X221206052Y-96965288D01*
X221284763Y-96915083D01*
X221411436Y-96820024D01*
X221522586Y-96730045D01*
X221669601Y-96603288D01*
X221780731Y-96498693D01*
X221836851Y-96434535D01*
X221840086Y-96426584D01*
X221819912Y-96421852D01*
X221749912Y-96467496D01*
G36*
X219168134Y-96867133D02*
G01*
X219162054Y-96927421D01*
X219168134Y-96934866D01*
X219198334Y-96927893D01*
X219202000Y-96901000D01*
X219183414Y-96859185D01*
X219168134Y-96867133D01*
G37*
X219168134Y-96867133D02*
X219162054Y-96927421D01*
X219168134Y-96934866D01*
X219198334Y-96927893D01*
X219202000Y-96901000D01*
X219183414Y-96859185D01*
X219168134Y-96867133D01*
G36*
X219711691Y-96685597D02*
G01*
X219561855Y-96728501D01*
X219417270Y-96778571D01*
X219311138Y-96825634D01*
X219277788Y-96850867D01*
X219280734Y-96897270D01*
X219297604Y-96901000D01*
X219370157Y-96864221D01*
X219376646Y-96855304D01*
X219438649Y-96818287D01*
X219566400Y-96773542D01*
X219661786Y-96747979D01*
X219800838Y-96709454D01*
X219883387Y-96676372D01*
X219894309Y-96661975D01*
X219833576Y-96660031D01*
X219711691Y-96685597D01*
G37*
X219711691Y-96685597D02*
X219561855Y-96728501D01*
X219417270Y-96778571D01*
X219311138Y-96825634D01*
X219277788Y-96850867D01*
X219280734Y-96897270D01*
X219297604Y-96901000D01*
X219370157Y-96864221D01*
X219376646Y-96855304D01*
X219438649Y-96818287D01*
X219566400Y-96773542D01*
X219661786Y-96747979D01*
X219800838Y-96709454D01*
X219883387Y-96676372D01*
X219894309Y-96661975D01*
X219833576Y-96660031D01*
X219711691Y-96685597D01*
G36*
X220141799Y-95872206D02*
G01*
X220130801Y-95927280D01*
X220109480Y-96007593D01*
X220070739Y-96009514D01*
X219998895Y-95952680D01*
X219924626Y-95891026D01*
X219919342Y-95896315D01*
X219964478Y-95955827D01*
X220010054Y-96022981D01*
X219981267Y-96032722D01*
X219912802Y-96014073D01*
X219827092Y-95991224D01*
X219830977Y-96008712D01*
X219884586Y-96051100D01*
X219932296Y-96095184D01*
X219931218Y-96135291D01*
X219868519Y-96188332D01*
X219731366Y-96271221D01*
X219706786Y-96285423D01*
X219522931Y-96382900D01*
X219340893Y-96465806D01*
X219240100Y-96503110D01*
X219111791Y-96547054D01*
X219063390Y-96591142D01*
X219077235Y-96663838D01*
X219103540Y-96723200D01*
X219138737Y-96794955D01*
X219143570Y-96774588D01*
X219137547Y-96724098D01*
X219171675Y-96654048D01*
X219272821Y-96565765D01*
X219417452Y-96471438D01*
X219582036Y-96383256D01*
X219743041Y-96313409D01*
X219876935Y-96274084D01*
X219960185Y-96277473D01*
X219973130Y-96291281D01*
X220000199Y-96327181D01*
X220010945Y-96267213D01*
X220011230Y-96259520D01*
X220048310Y-96141242D01*
X220091000Y-96088200D01*
X220150960Y-95988456D01*
X220160282Y-95916879D01*
X220153268Y-95846673D01*
X220141799Y-95872206D01*
G37*
X220141799Y-95872206D02*
X220130801Y-95927280D01*
X220109480Y-96007593D01*
X220070739Y-96009514D01*
X219998895Y-95952680D01*
X219924626Y-95891026D01*
X219919342Y-95896315D01*
X219964478Y-95955827D01*
X220010054Y-96022981D01*
X219981267Y-96032722D01*
X219912802Y-96014073D01*
X219827092Y-95991224D01*
X219830977Y-96008712D01*
X219884586Y-96051100D01*
X219932296Y-96095184D01*
X219931218Y-96135291D01*
X219868519Y-96188332D01*
X219731366Y-96271221D01*
X219706786Y-96285423D01*
X219522931Y-96382900D01*
X219340893Y-96465806D01*
X219240100Y-96503110D01*
X219111791Y-96547054D01*
X219063390Y-96591142D01*
X219077235Y-96663838D01*
X219103540Y-96723200D01*
X219138737Y-96794955D01*
X219143570Y-96774588D01*
X219137547Y-96724098D01*
X219171675Y-96654048D01*
X219272821Y-96565765D01*
X219417452Y-96471438D01*
X219582036Y-96383256D01*
X219743041Y-96313409D01*
X219876935Y-96274084D01*
X219960185Y-96277473D01*
X219973130Y-96291281D01*
X220000199Y-96327181D01*
X220010945Y-96267213D01*
X220011230Y-96259520D01*
X220048310Y-96141242D01*
X220091000Y-96088200D01*
X220150960Y-95988456D01*
X220160282Y-95916879D01*
X220153268Y-95846673D01*
X220141799Y-95872206D01*
G36*
X216341777Y-96305215D02*
G01*
X216334595Y-96313040D01*
X216420158Y-96327656D01*
X216421562Y-96327868D01*
X216512860Y-96357166D01*
X216532864Y-96396457D01*
X216522104Y-96441686D01*
X216567941Y-96418874D01*
X216577334Y-96409933D01*
X216610767Y-96341882D01*
X216551575Y-96304234D01*
X216446100Y-96299011D01*
X216341777Y-96305215D01*
G37*
X216341777Y-96305215D02*
X216334595Y-96313040D01*
X216420158Y-96327656D01*
X216421562Y-96327868D01*
X216512860Y-96357166D01*
X216532864Y-96396457D01*
X216522104Y-96441686D01*
X216567941Y-96418874D01*
X216577334Y-96409933D01*
X216610767Y-96341882D01*
X216551575Y-96304234D01*
X216446100Y-96299011D01*
X216341777Y-96305215D01*
G36*
X216625943Y-95904124D02*
G01*
X216638815Y-95930493D01*
X216681932Y-95935800D01*
X216740816Y-95958464D01*
X216738200Y-95986600D01*
X216725256Y-96034092D01*
X216732204Y-96037400D01*
X216778543Y-96001614D01*
X216789222Y-95986241D01*
X216778534Y-95933483D01*
X216713775Y-95894654D01*
X216642008Y-95893421D01*
X216625943Y-95904124D01*
G37*
X216625943Y-95904124D02*
X216638815Y-95930493D01*
X216681932Y-95935800D01*
X216740816Y-95958464D01*
X216738200Y-95986600D01*
X216725256Y-96034092D01*
X216732204Y-96037400D01*
X216778543Y-96001614D01*
X216789222Y-95986241D01*
X216778534Y-95933483D01*
X216713775Y-95894654D01*
X216642008Y-95893421D01*
X216625943Y-95904124D01*
G36*
X221847201Y-97891600D02*
G01*
X221870526Y-97969627D01*
X221919800Y-98069400D01*
X221970346Y-98143400D01*
X221992368Y-98147072D01*
X221992400Y-98145600D01*
X221969075Y-98067572D01*
X221919800Y-97967800D01*
X221869255Y-97893799D01*
X221847233Y-97890127D01*
X221847201Y-97891600D01*
G37*
X221847201Y-97891600D02*
X221870526Y-97969627D01*
X221919800Y-98069400D01*
X221970346Y-98143400D01*
X221992368Y-98147072D01*
X221992400Y-98145600D01*
X221969075Y-98067572D01*
X221919800Y-97967800D01*
X221869255Y-97893799D01*
X221847233Y-97890127D01*
X221847201Y-97891600D01*
G36*
X222301429Y-97571324D02*
G01*
X222347715Y-97605845D01*
X222453200Y-97658921D01*
X222537547Y-97697160D01*
X222537232Y-97686317D01*
X222481591Y-97640402D01*
X222387133Y-97579320D01*
X222333424Y-97561400D01*
X222301429Y-97571324D01*
G37*
X222301429Y-97571324D02*
X222347715Y-97605845D01*
X222453200Y-97658921D01*
X222537547Y-97697160D01*
X222537232Y-97686317D01*
X222481591Y-97640402D01*
X222387133Y-97579320D01*
X222333424Y-97561400D01*
X222301429Y-97571324D01*
G36*
X222165334Y-97527533D02*
G01*
X222172307Y-97557733D01*
X222199200Y-97561400D01*
X222241015Y-97542813D01*
X222233067Y-97527533D01*
X222172779Y-97521453D01*
X222165334Y-97527533D01*
G37*
X222165334Y-97527533D02*
X222172307Y-97557733D01*
X222199200Y-97561400D01*
X222241015Y-97542813D01*
X222233067Y-97527533D01*
X222172779Y-97521453D01*
X222165334Y-97527533D01*
G36*
X211326260Y-131548910D02*
G01*
X211166912Y-131550235D01*
X211017543Y-131552643D01*
X210883964Y-131556133D01*
X210771984Y-131560707D01*
X210687416Y-131566363D01*
X210636070Y-131573101D01*
X210624066Y-131577292D01*
X210611870Y-131597346D01*
X210596593Y-131642761D01*
X210577629Y-131716259D01*
X210554372Y-131820558D01*
X210526219Y-131958378D01*
X210492563Y-132132439D01*
X210452799Y-132345462D01*
X210451012Y-132355167D01*
X210411042Y-132572120D01*
X210377782Y-132751274D01*
X210350216Y-132896453D01*
X210327330Y-133011480D01*
X210308109Y-133100180D01*
X210291535Y-133166377D01*
X210276596Y-133213893D01*
X210262274Y-133246553D01*
X210247555Y-133268181D01*
X210231424Y-133282599D01*
X210212864Y-133293633D01*
X210200062Y-133300259D01*
X210147198Y-133325355D01*
X210065974Y-133361098D01*
X209962652Y-133404977D01*
X209843496Y-133454480D01*
X209714766Y-133507098D01*
X209582725Y-133560319D01*
X209453635Y-133611632D01*
X209333758Y-133658526D01*
X209229356Y-133698491D01*
X209146691Y-133729016D01*
X209092025Y-133747589D01*
X209073029Y-133752167D01*
X209042851Y-133740583D01*
X208984016Y-133708254D01*
X208902474Y-133658815D01*
X208804176Y-133595898D01*
X208695074Y-133523139D01*
X208670467Y-133506346D01*
X208532459Y-133411804D01*
X208378694Y-133306520D01*
X208222819Y-133199835D01*
X208078480Y-133101090D01*
X207990130Y-133040679D01*
X207885576Y-132970585D01*
X207790958Y-132909728D01*
X207712548Y-132861937D01*
X207656618Y-132831044D01*
X207630150Y-132820834D01*
X207605780Y-132835485D01*
X207556248Y-132876742D01*
X207485593Y-132940563D01*
X207397855Y-133022902D01*
X207297070Y-133119716D01*
X207187279Y-133226960D01*
X207072519Y-133340591D01*
X206956830Y-133456565D01*
X206844249Y-133570839D01*
X206738817Y-133679367D01*
X206644571Y-133778106D01*
X206565551Y-133863012D01*
X206505794Y-133930042D01*
X206469340Y-133975151D01*
X206459667Y-133992838D01*
X206471306Y-134018635D01*
X206504468Y-134075126D01*
X206556518Y-134158242D01*
X206624821Y-134263916D01*
X206706743Y-134388076D01*
X206799650Y-134526654D01*
X206900907Y-134675581D01*
X206914750Y-134695786D01*
X207040711Y-134880860D01*
X207148057Y-135041477D01*
X207235629Y-135175810D01*
X207302265Y-135282036D01*
X207346805Y-135358330D01*
X207368086Y-135402866D01*
X207369833Y-135411023D01*
X207361587Y-135443826D01*
X207338573Y-135509139D01*
X207303383Y-135600860D01*
X207258606Y-135712890D01*
X207206832Y-135839126D01*
X207150651Y-135973468D01*
X207092653Y-136109813D01*
X207035429Y-136242061D01*
X206981567Y-136364111D01*
X206933659Y-136469861D01*
X206894295Y-136553211D01*
X206866063Y-136608057D01*
X206853702Y-136626870D01*
X206821243Y-136642821D01*
X206755681Y-136663090D01*
X206665714Y-136685322D01*
X206560044Y-136707160D01*
X206550866Y-136708876D01*
X206449697Y-136727602D01*
X206317126Y-136752084D01*
X206163386Y-136780434D01*
X205998715Y-136810766D01*
X205833346Y-136841192D01*
X205761167Y-136854461D01*
X205583435Y-136887919D01*
X205444475Y-136915962D01*
X205341177Y-136939334D01*
X205270430Y-136958778D01*
X205229124Y-136975040D01*
X205216125Y-136984841D01*
X205209870Y-137013812D01*
X205204361Y-137079293D01*
X205199626Y-137175467D01*
X205195691Y-137296516D01*
X205192583Y-137436624D01*
X205190330Y-137589973D01*
X205188959Y-137750746D01*
X205188498Y-137913126D01*
X205188972Y-138071295D01*
X205190410Y-138219437D01*
X205192838Y-138351735D01*
X205196285Y-138462370D01*
X205200776Y-138545527D01*
X205206339Y-138595387D01*
X205208565Y-138603951D01*
X205219336Y-138623807D01*
X205238981Y-138640003D01*
X205274032Y-138654640D01*
X205331021Y-138669818D01*
X205416480Y-138687635D01*
X205536941Y-138710191D01*
X205541940Y-138711105D01*
X205798717Y-138758080D01*
X206017095Y-138798251D01*
X206200339Y-138832325D01*
X206351713Y-138861007D01*
X206474480Y-138885003D01*
X206571904Y-138905018D01*
X206647249Y-138921759D01*
X206703779Y-138935932D01*
X206744757Y-138948242D01*
X206773448Y-138959395D01*
X206793115Y-138970097D01*
X206807023Y-138981054D01*
X206811752Y-138985716D01*
X206831178Y-139017296D01*
X206863061Y-139082362D01*
X206904922Y-139174803D01*
X206954283Y-139288507D01*
X207008667Y-139417363D01*
X207065597Y-139555259D01*
X207122594Y-139696085D01*
X207177182Y-139833729D01*
X207226883Y-139962079D01*
X207269219Y-140075025D01*
X207301713Y-140166455D01*
X207321887Y-140230257D01*
X207327500Y-140257909D01*
X207315403Y-140289191D01*
X207280185Y-140352295D01*
X207223458Y-140444687D01*
X207146833Y-140563832D01*
X207051922Y-140707194D01*
X206940336Y-140872238D01*
X206893583Y-140940567D01*
X206793825Y-141087061D01*
X206702149Y-141223878D01*
X206621261Y-141346813D01*
X206553866Y-141451660D01*
X206502669Y-141534213D01*
X206470374Y-141590266D01*
X206459667Y-141615221D01*
X206474302Y-141640277D01*
X206515514Y-141690504D01*
X206579265Y-141761850D01*
X206661515Y-141850259D01*
X206758227Y-141951678D01*
X206865360Y-142062055D01*
X206978877Y-142177334D01*
X207094739Y-142293464D01*
X207208906Y-142406389D01*
X207317340Y-142512056D01*
X207416002Y-142606412D01*
X207500853Y-142685404D01*
X207567855Y-142744976D01*
X207612968Y-142781076D01*
X207630477Y-142790334D01*
X207665815Y-142778604D01*
X207723249Y-142747658D01*
X207791146Y-142703855D01*
X207799957Y-142697674D01*
X207907896Y-142621783D01*
X208029352Y-142537364D01*
X208159526Y-142447659D01*
X208293619Y-142355907D01*
X208426831Y-142265349D01*
X208554364Y-142179224D01*
X208671418Y-142100773D01*
X208773194Y-142033236D01*
X208854894Y-141979853D01*
X208911717Y-141943865D01*
X208938864Y-141928511D01*
X208939520Y-141928295D01*
X208969540Y-141934476D01*
X209029340Y-141957901D01*
X209111647Y-141995341D01*
X209209187Y-142043565D01*
X209267603Y-142073997D01*
X209369944Y-142127398D01*
X209460303Y-142172880D01*
X209531595Y-142207005D01*
X209576732Y-142226336D01*
X209587962Y-142229417D01*
X209599540Y-142210470D01*
X209625568Y-142156179D01*
X209664442Y-142070372D01*
X209714556Y-141956876D01*
X209774304Y-141819517D01*
X209842082Y-141662122D01*
X209916282Y-141488518D01*
X209995300Y-141302533D01*
X210077531Y-141107991D01*
X210161368Y-140908722D01*
X210245206Y-140708551D01*
X210327440Y-140511305D01*
X210406463Y-140320811D01*
X210480671Y-140140897D01*
X210548458Y-139975388D01*
X210608218Y-139828112D01*
X210658345Y-139702895D01*
X210697235Y-139603565D01*
X210723281Y-139533948D01*
X210734878Y-139497871D01*
X210735333Y-139494663D01*
X210718745Y-139468682D01*
X210676440Y-139432350D01*
X210645375Y-139411158D01*
X210394693Y-139235273D01*
X210183388Y-139046748D01*
X210009833Y-138843464D01*
X209872399Y-138623302D01*
X209769460Y-138384142D01*
X209716409Y-138201596D01*
X209690433Y-138046128D01*
X209679174Y-137869378D01*
X209682238Y-137685747D01*
X209699232Y-137509632D01*
X209729763Y-137355432D01*
X209740491Y-137318750D01*
X209844938Y-137057438D01*
X209982968Y-136819923D01*
X210152105Y-136608660D01*
X210349879Y-136426107D01*
X210573814Y-136274718D01*
X210821438Y-136156950D01*
X210957583Y-136110162D01*
X211045030Y-136085476D01*
X211122017Y-136068848D01*
X211201396Y-136058691D01*
X211296021Y-136053419D01*
X211418743Y-136051444D01*
X211433833Y-136051363D01*
X211564232Y-136052085D01*
X211664957Y-136056528D01*
X211748599Y-136066005D01*
X211827751Y-136081823D01*
X211893843Y-136099230D01*
X212150178Y-136192359D01*
X212384640Y-136318997D01*
X212594779Y-136475763D01*
X212778144Y-136659273D01*
X212932285Y-136866144D01*
X213054752Y-137092994D01*
X213143094Y-137336440D01*
X213194861Y-137593098D01*
X213207603Y-137859587D01*
X213205471Y-137909975D01*
X213171277Y-138176240D01*
X213098966Y-138426684D01*
X212987245Y-138664757D01*
X212838612Y-138888955D01*
X212767163Y-138979244D01*
X212700035Y-139054689D01*
X212628418Y-139123335D01*
X212543507Y-139193228D01*
X212436494Y-139272416D01*
X212359332Y-139326817D01*
X212278846Y-139385403D01*
X212213108Y-139437958D01*
X212169028Y-139478627D01*
X212153500Y-139501179D01*
X212161333Y-139527492D01*
X212183573Y-139588095D01*
X212218336Y-139678208D01*
X212263737Y-139793049D01*
X212317890Y-139927835D01*
X212378910Y-140077787D01*
X212426183Y-140192809D01*
X212561569Y-140520838D01*
X212681742Y-140811906D01*
X212787614Y-141068194D01*
X212880096Y-141291883D01*
X212960099Y-141485154D01*
X213028533Y-141650189D01*
X213086310Y-141789168D01*
X213134341Y-141904274D01*
X213173537Y-141997688D01*
X213204808Y-142071590D01*
X213229066Y-142128162D01*
X213247221Y-142169585D01*
X213260185Y-142198041D01*
X213268869Y-142215711D01*
X213274183Y-142224776D01*
X213275464Y-142226372D01*
X213298950Y-142223093D01*
X213352997Y-142202438D01*
X213431012Y-142167324D01*
X213526403Y-142120665D01*
X213598465Y-142083497D01*
X213702887Y-142029304D01*
X213795070Y-141982888D01*
X213868168Y-141947585D01*
X213915335Y-141926730D01*
X213928960Y-141922500D01*
X213951502Y-141934089D01*
X214004798Y-141967068D01*
X214084780Y-142018752D01*
X214187381Y-142086457D01*
X214308532Y-142167499D01*
X214444165Y-142259195D01*
X214586646Y-142356417D01*
X214732649Y-142455965D01*
X214868305Y-142547472D01*
X214989521Y-142628250D01*
X215092199Y-142695611D01*
X215172246Y-142746869D01*
X215225565Y-142779336D01*
X215247897Y-142790334D01*
X215268694Y-142775832D01*
X215315834Y-142734507D01*
X215385884Y-142669628D01*
X215475413Y-142584466D01*
X215580988Y-142482290D01*
X215699177Y-142366370D01*
X215826549Y-142239976D01*
X215847301Y-142219249D01*
X215975394Y-142090565D01*
X216093820Y-141970369D01*
X216199261Y-141862123D01*
X216288395Y-141769289D01*
X216357905Y-141695328D01*
X216404469Y-141643703D01*
X216424768Y-141617876D01*
X216425343Y-141616435D01*
X216415282Y-141592257D01*
X216383668Y-141537448D01*
X216333143Y-141456115D01*
X216266350Y-141352364D01*
X216185934Y-141230302D01*
X216094536Y-141094034D01*
X215996250Y-140949780D01*
X215896013Y-140803414D01*
X215803285Y-140667346D01*
X215720831Y-140545684D01*
X215651414Y-140442536D01*
X215597800Y-140362008D01*
X215562753Y-140308209D01*
X215549092Y-140285394D01*
X215554373Y-140260732D01*
X215573337Y-140202629D01*
X215603745Y-140116868D01*
X215643356Y-140009230D01*
X215689930Y-139885500D01*
X215741227Y-139751461D01*
X215795005Y-139612894D01*
X215849026Y-139475583D01*
X215901048Y-139345311D01*
X215948832Y-139227860D01*
X215990137Y-139129014D01*
X216022722Y-139054555D01*
X216039741Y-139018875D01*
X216076690Y-138972057D01*
X216116726Y-138946431D01*
X216148092Y-138938998D01*
X216216044Y-138924849D01*
X216315544Y-138904969D01*
X216441552Y-138880342D01*
X216589029Y-138851956D01*
X216752934Y-138820795D01*
X216916000Y-138790131D01*
X217667417Y-138649568D01*
X217672958Y-137816133D01*
X217673781Y-137632217D01*
X217673777Y-137461572D01*
X217673004Y-137308830D01*
X217671518Y-137178620D01*
X217669378Y-137075574D01*
X217666641Y-137004320D01*
X217663365Y-136969491D01*
X217662374Y-136966912D01*
X217635550Y-136956434D01*
X217577278Y-136941647D01*
X217497896Y-136925038D01*
X217455750Y-136917223D01*
X217144862Y-136861345D01*
X216874666Y-136811583D01*
X216644002Y-136767692D01*
X216451707Y-136729431D01*
X216296621Y-136696554D01*
X216177583Y-136668821D01*
X216093431Y-136645987D01*
X216043006Y-136627809D01*
X216027583Y-136618191D01*
X216009627Y-136588962D01*
X215977758Y-136525931D01*
X215934401Y-136434349D01*
X215881979Y-136319467D01*
X215822917Y-136186538D01*
X215759638Y-136040813D01*
X215741320Y-135998024D01*
X215668597Y-135826592D01*
X215611664Y-135689728D01*
X215569043Y-135583349D01*
X215539253Y-135503371D01*
X215520817Y-135445712D01*
X215512256Y-135406288D01*
X215512091Y-135381017D01*
X215514720Y-135372358D01*
X215531166Y-135344918D01*
X215568862Y-135286827D01*
X215624997Y-135202268D01*
X215696763Y-135095423D01*
X215781349Y-134970474D01*
X215875946Y-134831603D01*
X215977745Y-134682992D01*
X215982371Y-134676258D01*
X216083605Y-134527957D01*
X216176805Y-134389594D01*
X216259309Y-134265260D01*
X216328454Y-134159047D01*
X216381578Y-134075048D01*
X216416020Y-134017355D01*
X216429118Y-133990059D01*
X216429167Y-133989444D01*
X216414475Y-133964844D01*
X216373105Y-133915163D01*
X216309109Y-133844434D01*
X216226543Y-133756688D01*
X216129462Y-133655956D01*
X216021920Y-133546272D01*
X215907971Y-133431665D01*
X215791672Y-133316169D01*
X215677076Y-133203815D01*
X215568239Y-133098634D01*
X215469214Y-133004659D01*
X215384057Y-132925921D01*
X215316822Y-132866452D01*
X215271564Y-132830283D01*
X215253899Y-132820834D01*
X215227461Y-132832503D01*
X215170337Y-132865770D01*
X215086570Y-132918020D01*
X214980200Y-132986638D01*
X214855269Y-133069012D01*
X214715819Y-133162528D01*
X214565890Y-133264571D01*
X214534377Y-133286203D01*
X214382649Y-133389716D01*
X214240413Y-133485240D01*
X214111736Y-133570157D01*
X214000685Y-133641848D01*
X213911329Y-133697693D01*
X213847736Y-133735073D01*
X213813971Y-133751370D01*
X213811147Y-133751869D01*
X213777655Y-133743906D01*
X213711657Y-133721543D01*
X213619424Y-133687362D01*
X213507228Y-133643944D01*
X213381340Y-133593874D01*
X213248031Y-133539731D01*
X213113573Y-133484099D01*
X212984238Y-133429559D01*
X212866296Y-133378693D01*
X212766020Y-133334085D01*
X212689681Y-133298314D01*
X212643550Y-133273965D01*
X212634183Y-133267293D01*
X212621931Y-133246640D01*
X212607210Y-133204369D01*
X212589348Y-133137445D01*
X212567674Y-133042833D01*
X212541515Y-132917497D01*
X212510200Y-132758402D01*
X212473058Y-132562513D01*
X212446063Y-132417220D01*
X212402542Y-132184598D01*
X212365277Y-131992168D01*
X212333916Y-131838311D01*
X212308106Y-131721406D01*
X212287492Y-131639831D01*
X212271723Y-131591966D01*
X212262960Y-131577292D01*
X212232976Y-131569954D01*
X212166484Y-131563700D01*
X212069294Y-131558528D01*
X211947217Y-131554439D01*
X211806065Y-131551433D01*
X211651647Y-131549509D01*
X211489775Y-131548668D01*
X211326260Y-131548910D01*
G37*
X211326260Y-131548910D02*
X211166912Y-131550235D01*
X211017543Y-131552643D01*
X210883964Y-131556133D01*
X210771984Y-131560707D01*
X210687416Y-131566363D01*
X210636070Y-131573101D01*
X210624066Y-131577292D01*
X210611870Y-131597346D01*
X210596593Y-131642761D01*
X210577629Y-131716259D01*
X210554372Y-131820558D01*
X210526219Y-131958378D01*
X210492563Y-132132439D01*
X210452799Y-132345462D01*
X210451012Y-132355167D01*
X210411042Y-132572120D01*
X210377782Y-132751274D01*
X210350216Y-132896453D01*
X210327330Y-133011480D01*
X210308109Y-133100180D01*
X210291535Y-133166377D01*
X210276596Y-133213893D01*
X210262274Y-133246553D01*
X210247555Y-133268181D01*
X210231424Y-133282599D01*
X210212864Y-133293633D01*
X210200062Y-133300259D01*
X210147198Y-133325355D01*
X210065974Y-133361098D01*
X209962652Y-133404977D01*
X209843496Y-133454480D01*
X209714766Y-133507098D01*
X209582725Y-133560319D01*
X209453635Y-133611632D01*
X209333758Y-133658526D01*
X209229356Y-133698491D01*
X209146691Y-133729016D01*
X209092025Y-133747589D01*
X209073029Y-133752167D01*
X209042851Y-133740583D01*
X208984016Y-133708254D01*
X208902474Y-133658815D01*
X208804176Y-133595898D01*
X208695074Y-133523139D01*
X208670467Y-133506346D01*
X208532459Y-133411804D01*
X208378694Y-133306520D01*
X208222819Y-133199835D01*
X208078480Y-133101090D01*
X207990130Y-133040679D01*
X207885576Y-132970585D01*
X207790958Y-132909728D01*
X207712548Y-132861937D01*
X207656618Y-132831044D01*
X207630150Y-132820834D01*
X207605780Y-132835485D01*
X207556248Y-132876742D01*
X207485593Y-132940563D01*
X207397855Y-133022902D01*
X207297070Y-133119716D01*
X207187279Y-133226960D01*
X207072519Y-133340591D01*
X206956830Y-133456565D01*
X206844249Y-133570839D01*
X206738817Y-133679367D01*
X206644571Y-133778106D01*
X206565551Y-133863012D01*
X206505794Y-133930042D01*
X206469340Y-133975151D01*
X206459667Y-133992838D01*
X206471306Y-134018635D01*
X206504468Y-134075126D01*
X206556518Y-134158242D01*
X206624821Y-134263916D01*
X206706743Y-134388076D01*
X206799650Y-134526654D01*
X206900907Y-134675581D01*
X206914750Y-134695786D01*
X207040711Y-134880860D01*
X207148057Y-135041477D01*
X207235629Y-135175810D01*
X207302265Y-135282036D01*
X207346805Y-135358330D01*
X207368086Y-135402866D01*
X207369833Y-135411023D01*
X207361587Y-135443826D01*
X207338573Y-135509139D01*
X207303383Y-135600860D01*
X207258606Y-135712890D01*
X207206832Y-135839126D01*
X207150651Y-135973468D01*
X207092653Y-136109813D01*
X207035429Y-136242061D01*
X206981567Y-136364111D01*
X206933659Y-136469861D01*
X206894295Y-136553211D01*
X206866063Y-136608057D01*
X206853702Y-136626870D01*
X206821243Y-136642821D01*
X206755681Y-136663090D01*
X206665714Y-136685322D01*
X206560044Y-136707160D01*
X206550866Y-136708876D01*
X206449697Y-136727602D01*
X206317126Y-136752084D01*
X206163386Y-136780434D01*
X205998715Y-136810766D01*
X205833346Y-136841192D01*
X205761167Y-136854461D01*
X205583435Y-136887919D01*
X205444475Y-136915962D01*
X205341177Y-136939334D01*
X205270430Y-136958778D01*
X205229124Y-136975040D01*
X205216125Y-136984841D01*
X205209870Y-137013812D01*
X205204361Y-137079293D01*
X205199626Y-137175467D01*
X205195691Y-137296516D01*
X205192583Y-137436624D01*
X205190330Y-137589973D01*
X205188959Y-137750746D01*
X205188498Y-137913126D01*
X205188972Y-138071295D01*
X205190410Y-138219437D01*
X205192838Y-138351735D01*
X205196285Y-138462370D01*
X205200776Y-138545527D01*
X205206339Y-138595387D01*
X205208565Y-138603951D01*
X205219336Y-138623807D01*
X205238981Y-138640003D01*
X205274032Y-138654640D01*
X205331021Y-138669818D01*
X205416480Y-138687635D01*
X205536941Y-138710191D01*
X205541940Y-138711105D01*
X205798717Y-138758080D01*
X206017095Y-138798251D01*
X206200339Y-138832325D01*
X206351713Y-138861007D01*
X206474480Y-138885003D01*
X206571904Y-138905018D01*
X206647249Y-138921759D01*
X206703779Y-138935932D01*
X206744757Y-138948242D01*
X206773448Y-138959395D01*
X206793115Y-138970097D01*
X206807023Y-138981054D01*
X206811752Y-138985716D01*
X206831178Y-139017296D01*
X206863061Y-139082362D01*
X206904922Y-139174803D01*
X206954283Y-139288507D01*
X207008667Y-139417363D01*
X207065597Y-139555259D01*
X207122594Y-139696085D01*
X207177182Y-139833729D01*
X207226883Y-139962079D01*
X207269219Y-140075025D01*
X207301713Y-140166455D01*
X207321887Y-140230257D01*
X207327500Y-140257909D01*
X207315403Y-140289191D01*
X207280185Y-140352295D01*
X207223458Y-140444687D01*
X207146833Y-140563832D01*
X207051922Y-140707194D01*
X206940336Y-140872238D01*
X206893583Y-140940567D01*
X206793825Y-141087061D01*
X206702149Y-141223878D01*
X206621261Y-141346813D01*
X206553866Y-141451660D01*
X206502669Y-141534213D01*
X206470374Y-141590266D01*
X206459667Y-141615221D01*
X206474302Y-141640277D01*
X206515514Y-141690504D01*
X206579265Y-141761850D01*
X206661515Y-141850259D01*
X206758227Y-141951678D01*
X206865360Y-142062055D01*
X206978877Y-142177334D01*
X207094739Y-142293464D01*
X207208906Y-142406389D01*
X207317340Y-142512056D01*
X207416002Y-142606412D01*
X207500853Y-142685404D01*
X207567855Y-142744976D01*
X207612968Y-142781076D01*
X207630477Y-142790334D01*
X207665815Y-142778604D01*
X207723249Y-142747658D01*
X207791146Y-142703855D01*
X207799957Y-142697674D01*
X207907896Y-142621783D01*
X208029352Y-142537364D01*
X208159526Y-142447659D01*
X208293619Y-142355907D01*
X208426831Y-142265349D01*
X208554364Y-142179224D01*
X208671418Y-142100773D01*
X208773194Y-142033236D01*
X208854894Y-141979853D01*
X208911717Y-141943865D01*
X208938864Y-141928511D01*
X208939520Y-141928295D01*
X208969540Y-141934476D01*
X209029340Y-141957901D01*
X209111647Y-141995341D01*
X209209187Y-142043565D01*
X209267603Y-142073997D01*
X209369944Y-142127398D01*
X209460303Y-142172880D01*
X209531595Y-142207005D01*
X209576732Y-142226336D01*
X209587962Y-142229417D01*
X209599540Y-142210470D01*
X209625568Y-142156179D01*
X209664442Y-142070372D01*
X209714556Y-141956876D01*
X209774304Y-141819517D01*
X209842082Y-141662122D01*
X209916282Y-141488518D01*
X209995300Y-141302533D01*
X210077531Y-141107991D01*
X210161368Y-140908722D01*
X210245206Y-140708551D01*
X210327440Y-140511305D01*
X210406463Y-140320811D01*
X210480671Y-140140897D01*
X210548458Y-139975388D01*
X210608218Y-139828112D01*
X210658345Y-139702895D01*
X210697235Y-139603565D01*
X210723281Y-139533948D01*
X210734878Y-139497871D01*
X210735333Y-139494663D01*
X210718745Y-139468682D01*
X210676440Y-139432350D01*
X210645375Y-139411158D01*
X210394693Y-139235273D01*
X210183388Y-139046748D01*
X210009833Y-138843464D01*
X209872399Y-138623302D01*
X209769460Y-138384142D01*
X209716409Y-138201596D01*
X209690433Y-138046128D01*
X209679174Y-137869378D01*
X209682238Y-137685747D01*
X209699232Y-137509632D01*
X209729763Y-137355432D01*
X209740491Y-137318750D01*
X209844938Y-137057438D01*
X209982968Y-136819923D01*
X210152105Y-136608660D01*
X210349879Y-136426107D01*
X210573814Y-136274718D01*
X210821438Y-136156950D01*
X210957583Y-136110162D01*
X211045030Y-136085476D01*
X211122017Y-136068848D01*
X211201396Y-136058691D01*
X211296021Y-136053419D01*
X211418743Y-136051444D01*
X211433833Y-136051363D01*
X211564232Y-136052085D01*
X211664957Y-136056528D01*
X211748599Y-136066005D01*
X211827751Y-136081823D01*
X211893843Y-136099230D01*
X212150178Y-136192359D01*
X212384640Y-136318997D01*
X212594779Y-136475763D01*
X212778144Y-136659273D01*
X212932285Y-136866144D01*
X213054752Y-137092994D01*
X213143094Y-137336440D01*
X213194861Y-137593098D01*
X213207603Y-137859587D01*
X213205471Y-137909975D01*
X213171277Y-138176240D01*
X213098966Y-138426684D01*
X212987245Y-138664757D01*
X212838612Y-138888955D01*
X212767163Y-138979244D01*
X212700035Y-139054689D01*
X212628418Y-139123335D01*
X212543507Y-139193228D01*
X212436494Y-139272416D01*
X212359332Y-139326817D01*
X212278846Y-139385403D01*
X212213108Y-139437958D01*
X212169028Y-139478627D01*
X212153500Y-139501179D01*
X212161333Y-139527492D01*
X212183573Y-139588095D01*
X212218336Y-139678208D01*
X212263737Y-139793049D01*
X212317890Y-139927835D01*
X212378910Y-140077787D01*
X212426183Y-140192809D01*
X212561569Y-140520838D01*
X212681742Y-140811906D01*
X212787614Y-141068194D01*
X212880096Y-141291883D01*
X212960099Y-141485154D01*
X213028533Y-141650189D01*
X213086310Y-141789168D01*
X213134341Y-141904274D01*
X213173537Y-141997688D01*
X213204808Y-142071590D01*
X213229066Y-142128162D01*
X213247221Y-142169585D01*
X213260185Y-142198041D01*
X213268869Y-142215711D01*
X213274183Y-142224776D01*
X213275464Y-142226372D01*
X213298950Y-142223093D01*
X213352997Y-142202438D01*
X213431012Y-142167324D01*
X213526403Y-142120665D01*
X213598465Y-142083497D01*
X213702887Y-142029304D01*
X213795070Y-141982888D01*
X213868168Y-141947585D01*
X213915335Y-141926730D01*
X213928960Y-141922500D01*
X213951502Y-141934089D01*
X214004798Y-141967068D01*
X214084780Y-142018752D01*
X214187381Y-142086457D01*
X214308532Y-142167499D01*
X214444165Y-142259195D01*
X214586646Y-142356417D01*
X214732649Y-142455965D01*
X214868305Y-142547472D01*
X214989521Y-142628250D01*
X215092199Y-142695611D01*
X215172246Y-142746869D01*
X215225565Y-142779336D01*
X215247897Y-142790334D01*
X215268694Y-142775832D01*
X215315834Y-142734507D01*
X215385884Y-142669628D01*
X215475413Y-142584466D01*
X215580988Y-142482290D01*
X215699177Y-142366370D01*
X215826549Y-142239976D01*
X215847301Y-142219249D01*
X215975394Y-142090565D01*
X216093820Y-141970369D01*
X216199261Y-141862123D01*
X216288395Y-141769289D01*
X216357905Y-141695328D01*
X216404469Y-141643703D01*
X216424768Y-141617876D01*
X216425343Y-141616435D01*
X216415282Y-141592257D01*
X216383668Y-141537448D01*
X216333143Y-141456115D01*
X216266350Y-141352364D01*
X216185934Y-141230302D01*
X216094536Y-141094034D01*
X215996250Y-140949780D01*
X215896013Y-140803414D01*
X215803285Y-140667346D01*
X215720831Y-140545684D01*
X215651414Y-140442536D01*
X215597800Y-140362008D01*
X215562753Y-140308209D01*
X215549092Y-140285394D01*
X215554373Y-140260732D01*
X215573337Y-140202629D01*
X215603745Y-140116868D01*
X215643356Y-140009230D01*
X215689930Y-139885500D01*
X215741227Y-139751461D01*
X215795005Y-139612894D01*
X215849026Y-139475583D01*
X215901048Y-139345311D01*
X215948832Y-139227860D01*
X215990137Y-139129014D01*
X216022722Y-139054555D01*
X216039741Y-139018875D01*
X216076690Y-138972057D01*
X216116726Y-138946431D01*
X216148092Y-138938998D01*
X216216044Y-138924849D01*
X216315544Y-138904969D01*
X216441552Y-138880342D01*
X216589029Y-138851956D01*
X216752934Y-138820795D01*
X216916000Y-138790131D01*
X217667417Y-138649568D01*
X217672958Y-137816133D01*
X217673781Y-137632217D01*
X217673777Y-137461572D01*
X217673004Y-137308830D01*
X217671518Y-137178620D01*
X217669378Y-137075574D01*
X217666641Y-137004320D01*
X217663365Y-136969491D01*
X217662374Y-136966912D01*
X217635550Y-136956434D01*
X217577278Y-136941647D01*
X217497896Y-136925038D01*
X217455750Y-136917223D01*
X217144862Y-136861345D01*
X216874666Y-136811583D01*
X216644002Y-136767692D01*
X216451707Y-136729431D01*
X216296621Y-136696554D01*
X216177583Y-136668821D01*
X216093431Y-136645987D01*
X216043006Y-136627809D01*
X216027583Y-136618191D01*
X216009627Y-136588962D01*
X215977758Y-136525931D01*
X215934401Y-136434349D01*
X215881979Y-136319467D01*
X215822917Y-136186538D01*
X215759638Y-136040813D01*
X215741320Y-135998024D01*
X215668597Y-135826592D01*
X215611664Y-135689728D01*
X215569043Y-135583349D01*
X215539253Y-135503371D01*
X215520817Y-135445712D01*
X215512256Y-135406288D01*
X215512091Y-135381017D01*
X215514720Y-135372358D01*
X215531166Y-135344918D01*
X215568862Y-135286827D01*
X215624997Y-135202268D01*
X215696763Y-135095423D01*
X215781349Y-134970474D01*
X215875946Y-134831603D01*
X215977745Y-134682992D01*
X215982371Y-134676258D01*
X216083605Y-134527957D01*
X216176805Y-134389594D01*
X216259309Y-134265260D01*
X216328454Y-134159047D01*
X216381578Y-134075048D01*
X216416020Y-134017355D01*
X216429118Y-133990059D01*
X216429167Y-133989444D01*
X216414475Y-133964844D01*
X216373105Y-133915163D01*
X216309109Y-133844434D01*
X216226543Y-133756688D01*
X216129462Y-133655956D01*
X216021920Y-133546272D01*
X215907971Y-133431665D01*
X215791672Y-133316169D01*
X215677076Y-133203815D01*
X215568239Y-133098634D01*
X215469214Y-133004659D01*
X215384057Y-132925921D01*
X215316822Y-132866452D01*
X215271564Y-132830283D01*
X215253899Y-132820834D01*
X215227461Y-132832503D01*
X215170337Y-132865770D01*
X215086570Y-132918020D01*
X214980200Y-132986638D01*
X214855269Y-133069012D01*
X214715819Y-133162528D01*
X214565890Y-133264571D01*
X214534377Y-133286203D01*
X214382649Y-133389716D01*
X214240413Y-133485240D01*
X214111736Y-133570157D01*
X214000685Y-133641848D01*
X213911329Y-133697693D01*
X213847736Y-133735073D01*
X213813971Y-133751370D01*
X213811147Y-133751869D01*
X213777655Y-133743906D01*
X213711657Y-133721543D01*
X213619424Y-133687362D01*
X213507228Y-133643944D01*
X213381340Y-133593874D01*
X213248031Y-133539731D01*
X213113573Y-133484099D01*
X212984238Y-133429559D01*
X212866296Y-133378693D01*
X212766020Y-133334085D01*
X212689681Y-133298314D01*
X212643550Y-133273965D01*
X212634183Y-133267293D01*
X212621931Y-133246640D01*
X212607210Y-133204369D01*
X212589348Y-133137445D01*
X212567674Y-133042833D01*
X212541515Y-132917497D01*
X212510200Y-132758402D01*
X212473058Y-132562513D01*
X212446063Y-132417220D01*
X212402542Y-132184598D01*
X212365277Y-131992168D01*
X212333916Y-131838311D01*
X212308106Y-131721406D01*
X212287492Y-131639831D01*
X212271723Y-131591966D01*
X212262960Y-131577292D01*
X212232976Y-131569954D01*
X212166484Y-131563700D01*
X212069294Y-131558528D01*
X211947217Y-131554439D01*
X211806065Y-131551433D01*
X211651647Y-131549509D01*
X211489775Y-131548668D01*
X211326260Y-131548910D01*
G04 #@! TO.C,*
D10*
X370482666Y-18994380D02*
X370482666Y-17994380D01*
X370101714Y-17994380D01*
X370006476Y-18042000D01*
X369958857Y-18089619D01*
X369911238Y-18184857D01*
X369911238Y-18327714D01*
X369958857Y-18422952D01*
X370006476Y-18470571D01*
X370101714Y-18518190D01*
X370482666Y-18518190D01*
X369292190Y-17994380D02*
X369101714Y-17994380D01*
X369006476Y-18042000D01*
X368911238Y-18137238D01*
X368863619Y-18327714D01*
X368863619Y-18661047D01*
X368911238Y-18851523D01*
X369006476Y-18946761D01*
X369101714Y-18994380D01*
X369292190Y-18994380D01*
X369387428Y-18946761D01*
X369482666Y-18851523D01*
X369530285Y-18661047D01*
X369530285Y-18327714D01*
X369482666Y-18137238D01*
X369387428Y-18042000D01*
X369292190Y-17994380D01*
X368577904Y-17994380D02*
X368006476Y-17994380D01*
X368292190Y-18994380D02*
X368292190Y-17994380D01*
G04 #@! TD*
M02*
